<?xml version="1.0" encoding="utf-8"?>
<!-- Generator: Adobe Illustrator 21.1.0, SVG Export Plug-In . SVG Version: 6.00 Build 0)  -->
<svg version="1.1" id="Слой_1" xmlns="http://www.w3.org/2000/svg" xmlns:xlink="http://www.w3.org/1999/xlink" x="0px" y="0px"
	 viewBox="0 0 486.7 245.7" style="enable-background:new 0 0 486.7 245.7;" xml:space="preserve">
<style type="text/css">
	.st0{fill:#C4C4C4;}
</style>
<g>
	<path class="st0" d="M485.6,120.1c-36-38.6-74.5-68.4-114.5-88.6C329.8,10.6,286.8,0,243.4,0S157,10.6,115.6,31.5
		C75.6,51.7,37,81.5,1,120.1c-1.4,1.5-1.4,3.9,0,5.5c36,38.6,74.5,68.4,114.5,88.6c41.4,20.9,84.4,31.5,127.8,31.5
		s86.4-10.6,127.8-31.5c40-20.2,78.6-50,114.6-88.6C487,124.1,487,121.7,485.6,120.1z M243.3,237.6c-82.1,0-162.9-39.7-233.9-114.8
		C80.5,47.7,161.3,8,243.3,8s162.8,39.7,233.9,114.8C406.1,198,325.3,237.6,243.3,237.6z"/>
	<path class="st0" d="M243.3,20.7c-56.3,0-102.1,45.8-102.1,102.1S187,224.9,243.3,224.9s102.1-45.8,102.1-102.1
		S299.6,20.7,243.3,20.7z M243.3,217c-51.9,0-94.1-42.2-94.1-94.1s42.2-94.1,94.1-94.1s94.1,42.2,94.1,94.1S295.2,217,243.3,217z"/>
	<path class="st0" d="M243.3,81.6c-22.7,0-41.2,18.5-41.2,41.2s18.5,41.2,41.2,41.2s41.2-18.5,41.2-41.2S266,81.6,243.3,81.6z
		 M243.3,156.1c-18.3,0-33.2-14.9-33.2-33.2s14.9-33.2,33.2-33.2s33.2,14.9,33.2,33.2S261.6,156.1,243.3,156.1z"/>
</g>
</svg>
