<?xml version="1.0" encoding="utf-8"?>
<!-- Generator: Adobe Illustrator 21.1.0, SVG Export Plug-In . SVG Version: 6.00 Build 0)  -->
<svg version="1.1" id="Слой_1" xmlns="http://www.w3.org/2000/svg" xmlns:xlink="http://www.w3.org/1999/xlink" x="0px" y="0px"
	 viewBox="0 0 38 44" style="enable-background:new 0 0 38 44;" xml:space="preserve">
<style type="text/css">
	.st0{fill:#FFFFFF;}
</style>
<title>7-User ui mobile app interface web</title>
<g>
	<path class="st0" d="M24.3,22.8c6-2.9,8.4-10.1,5.5-16.1S19.7-1.7,13.7,1.2S5.3,11.3,8.2,17.3c1.2,2.4,3.1,4.3,5.5,5.5
		C5.6,25.1,0,32.6,0,41v2c0,0.6,0.4,1,1,1h36c0.6,0,1-0.4,1-1v-2C38,32.6,32.4,25.1,24.3,22.8z M9,12C9,6.5,13.5,2,19,2
		s10,4.5,10,10s-4.5,10-10,10S9,17.5,9,12z M36,42H2v-1c0-9.4,7.6-17,17-17s17,7.6,17,17V42z"/>
</g>
</svg>
