<?xml version="1.0" standalone="no"?>
<!DOCTYPE svg PUBLIC "-//W3C//DTD SVG 1.1//EN" "http://www.w3.org/Graphics/SVG/1.1/DTD/svg11.dtd" >
<svg xmlns="http://www.w3.org/2000/svg" xmlns:xlink="http://www.w3.org/1999/xlink" version="1.1">
<metadata>
Created by FontForge 20170924 at Fri Mar 29 18:16:38 2013
 By www-data
Futura was designed for Bauer company in 1927 by Paul Renner. This is a sans serif face based on geometrical shapes, representative of the aesthetics of the Bauhaus school of the 1920s-30s. Issued by the Bauer Foundry in a wide range of weights and widths, Futura became a very popular choice for text and display setting. Originally Cyrillic version of eight styles was developed at ParaType (ParaGraph) in 1995 by Vladimir Yefimov. Additional Cyrillic styles were developed in 2007-2009 by Isabella Chaeva. Simultaneously the old eight styles were partly revised to match the whole family. Now the new Futura is an uniform type system consisted of seven weights with corresponding obliques plus eight condensed styles. All these fonts are coordinated in letterforms, metrics, and weights to better working together.
</metadata>
<defs>
<font id="FuturaPTCond-ExtraBoldObl" horiz-adv-x="500" >
  <font-face 
    font-family="Futura PT Cond Extra Bold"
    font-weight="400"
    font-style="italic"
    font-stretch="condensed"
    units-per-em="1000"
    panose-1="2 11 10 6 2 2 4 9 2 3"
    ascent="763"
    descent="-237"
    x-height="467"
    cap-height="667"
    bbox="-272 -250 1024 930"
    underline-thickness="50"
    underline-position="-100"
    slope="-7"
    stemh="140"
    stemv="180"
    unicode-range="U+0020-FB02"
  />
<missing-glyph horiz-adv-x="233" 
 />
    <glyph glyph-name="afii10017.var.accented" unicode="&#x410;`" horiz-adv-x="524" 
d="M491 0h-183l-3 85h-119l-25 -85h-184l240 667h217zM300 305v87c0 38 2 77 3 115c-8 -31 -14 -63 -23 -94c-18 -62 -34 -124 -53 -186h75c-1 26 -2 52 -2 78zM459 868l-105 -148h-98l65 148h138z" />
    <glyph glyph-name="afii10022.var.accented" unicode="&#x415;`" horiz-adv-x="405" 
d="M430 667l-20 -157h-152l-12 -97h137l-19 -151h-136l-13 -102h152l-19 -160h-330l82 667h330zM409 868l-105 -148h-98l65 148h138z" />
    <glyph glyph-name="afii10026.var.accented" unicode="&#x418;`" horiz-adv-x="557" 
d="M18 0l82 667h170l-23 -185c-14 -115 -36 -189 -47 -225c28 66 63 140 92 195l115 215h158l-82 -667h-170l22 178c6 50 20 137 37 214c-22 -64 -45 -112 -87 -190l-109 -202h-158zM465 868l-105 -148h-98l65 148h138z" />
    <glyph glyph-name="afii10032.var.accented" unicode="&#x41e;`" horiz-adv-x="558" 
d="M337 679c56 0 103 -18 140 -57c60 -63 69 -153 69 -208c0 -113 -33 -266 -125 -356c-56 -55 -115 -70 -167 -70c-43 0 -99 13 -146 62c-63 65 -70 147 -70 213c0 165 58 279 123 342c63 62 130 74 176 74zM315 511c-9 0 -22 -5 -35 -19s-28 -39 -41 -91
c-12 -47 -17 -90 -17 -139c0 -59 11 -83 22 -94c8 -8 16 -11 26 -11c16 0 25 7 33 16c25 28 40 82 44 99c11 45 15 91 15 134c0 69 -14 89 -22 96s-16 9 -25 9zM486 868l-105 -148h-98l65 148h138z" />
    <glyph glyph-name="afii10037.var.accented" unicode="&#x423;`" 
d="M54 667h184l23 -109c11 -50 16 -94 17 -141c14 50 29 96 49 146l41 104h186l-318 -667h-177l108 230zM437 868l-105 -148h-98l65 148h138z" />
    <glyph glyph-name="afii10045.var.accented" unicode="&#x42b;`" horiz-adv-x="751" 
d="M674 0h-177l79 667h183zM220 0h-202l82 667h177l-30 -245h8c69 0 131 -13 174 -55c25 -24 52 -65 52 -131c0 -67 -25 -130 -65 -170c-58 -57 -134 -66 -196 -66zM229 278l-16 -133c28 -4 57 7 73 24c9 9 18 26 18 51s-11 39 -20 46c-13 10 -36 15 -55 12zM562 868
l-105 -148h-98l65 148h138z" />
    <glyph glyph-name="afii10047.var.accented" unicode="&#x42d;`" horiz-adv-x="496" 
d="M40 29l11 193c10 -16 24 -31 43 -44s39 -20 66 -20c35 0 61 14 77 28c20 18 35 48 40 75h-151l19 151h150c-4 26 -16 56 -36 74c-17 15 -43 26 -76 26c-21 0 -41 -5 -61 -16c-16 -9 -32 -22 -44 -35l24 188c42 23 80 30 117 30c92 0 150 -35 184 -69
c49 -49 81 -133 81 -230c0 -103 -34 -240 -123 -323c-50 -47 -106 -69 -183 -69c-57 0 -90 14 -138 41zM388 868l-105 -148h-98l65 148h138z" />
    <glyph glyph-name="afii10048.var.accented" unicode="&#x42e;`" horiz-adv-x="810" 
d="M247 425h69c16 73 53 138 97 182c51 50 107 72 174 72c59 0 105 -18 142 -57c60 -63 69 -153 69 -208c0 -115 -33 -266 -125 -357c-49 -49 -101 -69 -172 -69c-46 0 -95 11 -137 53s-70 114 -70 227h-66l-33 -268h-177l82 667h177zM567 511c-9 0 -22 -5 -35 -19
s-28 -39 -41 -91c-12 -47 -17 -90 -17 -139c0 -59 11 -83 22 -94c8 -8 16 -11 26 -11c16 0 25 7 33 16c25 28 40 82 44 99c11 45 15 91 15 134c0 69 -14 89 -22 96s-16 9 -25 9zM602 868l-105 -148h-98l65 148h138z" />
    <glyph glyph-name="afii10049.var.accented" unicode="&#x42f;`" horiz-adv-x="541" 
d="M0 0l155 269c-11 5 -41 19 -63 50c-23 33 -28 72 -28 102c0 75 27 135 63 172c58 59 149 74 250 74h172l-82 -667h-177l19 147c6 44 7 63 18 120l-128 -267h-199zM334 358l19 159c-17 2 -46 2 -70 -20c-15 -13 -28 -35 -28 -70c0 -12 3 -33 19 -49c14 -13 37 -20 54 -20
h6zM497 868l-105 -148h-98l65 148h138z" />
    <glyph glyph-name="afii10023.var.accented" unicode="&#x401;`" horiz-adv-x="405" 
d="M430 667l-20 -157h-152l-12 -97h137l-19 -151h-136l-13 -102h152l-19 -160h-330l82 667h330zM357 847l-85 -124l-73 12l59 133zM206 799c0 -6 -3 -14 -4 -18c-11 -27 -39 -47 -68 -47c-33 0 -58 24 -58 58c0 38 35 72 73 72c39 0 57 -29 57 -65zM483 806
c0 -38 -35 -72 -73 -72c-33 0 -57 25 -57 58c0 38 33 72 72 72c33 0 58 -25 58 -58z" />
    <glyph glyph-name="afii10065.var.accented" unicode="&#x430;`" horiz-adv-x="489" 
d="M479 467l-57 -467h-171c5 26 10 53 15 79c-30 -50 -68 -89 -130 -89c-92 0 -113 104 -113 177c0 43 4 86 14 128c19 80 70 182 165 182c57 0 81 -36 99 -84c1 25 3 49 4 74h174zM282 288c0 19 -3 46 -28 46c-48 0 -59 -111 -59 -146c0 -22 2 -55 31 -55
c47 0 56 121 56 155zM431 678l-105 -148h-98l65 148h138z" />
    <glyph glyph-name="afii10070.var.accented" unicode="&#x435;`" horiz-adv-x="474" 
d="M266 157h166c-35 -106 -114 -167 -225 -167c-120 0 -184 74 -184 191c0 144 90 295 248 295c120 0 180 -87 180 -200c0 -27 -4 -53 -8 -79h-250c-1 -6 -1 -13 -1 -19c0 -22 3 -53 32 -53c20 0 36 15 42 32zM207 290h79c0 4 1 8 1 12c0 22 -8 47 -34 47
c-30 0 -43 -34 -46 -59zM423 678l-105 -148h-98l65 148h138z" />
    <glyph glyph-name="afii10074.var.accented" unicode="&#x438;`" horiz-adv-x="504" 
d="M68 467h166l-16 -131c-4 -35 -12 -81 -22 -123c5 11 33 68 46 90l94 164h158l-57 -467h-166l15 125c4 34 18 108 22 129c-11 -26 -32 -70 -46 -94l-93 -160h-158zM439 678l-105 -148h-98l65 148h138z" />
    <glyph glyph-name="afii10080.var.accented" unicode="&#x43e;`" horiz-adv-x="480" 
d="M270 477c67 0 109 -26 131 -47c48 -46 55 -112 55 -152c0 -86 -29 -173 -84 -226c-29 -28 -81 -62 -164 -62c-42 0 -88 8 -127 44c-50 46 -57 109 -57 156c0 132 66 203 85 222c31 30 83 65 161 65zM254 346c-11 0 -19 -6 -24 -11c-25 -25 -40 -94 -40 -140
c0 -7 1 -39 11 -57c8 -14 18 -17 26 -17c11 0 20 6 25 12c27 28 39 97 39 140c0 14 -2 39 -11 56c-4 8 -12 17 -26 17zM427 678l-105 -148h-98l65 148h138z" />
    <glyph glyph-name="afii10085.var.accented" unicode="&#x443;`" horiz-adv-x="458" 
d="M487 467l-301 -682h-176l110 234l-82 448h172c9 -78 22 -156 22 -235c0 -10 -1 -20 -1 -30c15 55 28 111 48 164l38 101h170zM411 678l-105 -148h-98l65 148h138z" />
    <glyph glyph-name="afii10093.var.accented" unicode="&#x44b;`" horiz-adv-x="694" 
d="M626 0h-172l57 467h172zM219 301h49c37 0 92 -4 131 -36c23 -19 43 -50 43 -100c0 -44 -15 -90 -45 -119c-27 -26 -71 -46 -139 -46h-248l57 467h172zM196 110h5c29 0 42 3 50 7c12 6 21 19 21 38c0 6 -2 16 -9 24c-12 13 -31 14 -51 14h-6zM524 678l-105 -148h-98
l65 148h138z" />
    <glyph glyph-name="afii10095.var.accented" unicode="&#x44d;`" horiz-adv-x="389" 
d="M20 22l17 133c24 -27 53 -33 75 -33c16 0 36 2 53 15c10 8 23 23 27 45h-107l13 104h103c-3 17 -12 35 -26 45c-13 10 -32 14 -51 14c-18 0 -42 -4 -68 -23l17 135c37 16 68 20 95 20c34 0 95 -5 142 -54c33 -34 55 -90 55 -162c0 -53 -15 -146 -77 -210
c-45 -47 -94 -61 -152 -61c-53 0 -89 14 -116 32zM331 678l-105 -148h-98l65 148h138z" />
    <glyph glyph-name="afii10096.var.accented" unicode="&#x44e;`" horiz-adv-x="706" 
d="M217 306h55c13 55 42 94 76 122c44 36 90 49 144 49c34 0 91 -6 135 -48c48 -47 55 -112 55 -153c0 -91 -31 -175 -84 -227c-47 -45 -101 -59 -164 -59c-44 0 -93 10 -130 49c-28 29 -48 78 -49 131h-56l-20 -170h-168l57 467h168zM480 346c-11 0 -19 -6 -24 -11
c-25 -25 -40 -94 -40 -140c0 -7 1 -39 11 -57c8 -14 18 -17 26 -17c11 0 20 6 25 12c27 28 39 97 39 140c0 14 -2 39 -11 56c-4 8 -12 17 -26 17zM540 678l-105 -148h-98l65 148h138z" />
    <glyph glyph-name="afii10097.var.accented" unicode="&#x44f;`" horiz-adv-x="478" 
d="M0 0l104 162c-20 7 -37 20 -48 35c-18 25 -22 56 -22 76c0 57 19 105 50 137c49 51 113 57 201 57h183l-57 -467h-172l12 102c3 25 5 42 10 73c-12 -31 -18 -40 -25 -56l-55 -119h-181zM270 250l11 95h-9c-14 0 -35 1 -50 -12c-8 -7 -15 -19 -15 -37c0 -13 4 -25 15 -34
c14 -11 34 -12 42 -12h6zM436 678l-105 -148h-98l65 148h138z" />
    <glyph glyph-name="afii10071.var.accented" unicode="&#x451;`" horiz-adv-x="474" 
d="M266 157h166c-35 -106 -114 -167 -225 -167c-120 0 -184 74 -184 191c0 144 90 295 248 295c120 0 180 -87 180 -200c0 -27 -4 -53 -8 -79h-250c-1 -6 -1 -13 -1 -19c0 -22 3 -53 32 -53c20 0 36 15 42 32zM207 290h79c0 4 1 8 1 12c0 22 -8 47 -34 47
c-30 0 -43 -34 -46 -59zM340 662l-91 -128l-63 16l64 131zM190 609c0 -6 -3 -14 -5 -18c-10 -27 -38 -47 -67 -47c-33 0 -58 24 -58 58c0 38 34 72 73 72s57 -29 57 -65zM466 616c0 -38 -35 -72 -73 -72c-32 0 -57 25 -57 58c0 38 34 72 72 72c34 0 58 -25 58 -58z" />
    <glyph glyph-name="fi" unicode="fi" horiz-adv-x="539" 
d="M352 728l-20 -161c-9 9 -19 17 -33 17c-26 0 -30 -28 -32 -48l-8 -69h61l-17 -140h-61l-40 -327h-171l40 327h-49l17 140h50c7 62 8 129 35 181c29 57 86 92 150 92c27 0 53 -5 78 -12zM563 624c0 -59 -54 -113 -113 -113c-50 0 -88 39 -88 89c0 60 53 113 113 113
c51 0 88 -38 88 -89zM529 467l-57 -467h-171l58 467h170z" />
    <glyph glyph-name="fl" unicode="fl" horiz-adv-x="539" 
d="M352 728l-20 -161c-9 9 -19 17 -33 17c-26 0 -30 -28 -32 -48l-8 -69h61l-17 -140h-61l-40 -327h-171l40 327h-49l17 140h50c7 62 8 129 35 181c29 57 86 92 150 92c27 0 53 -5 78 -12zM562 729l-90 -729h-171l90 729h171z" />
    <glyph glyph-name=".notdef" horiz-adv-x="233" 
 />
    <glyph glyph-name="space" unicode=" " horiz-adv-x="233" 
 />
    <glyph glyph-name="exclam" unicode="!" horiz-adv-x="314" 
d="M303 690l-54 -450h-173l54 450h173zM242 103c0 -59 -54 -113 -113 -113c-51 0 -87 39 -87 89c0 60 52 114 112 114c52 0 88 -39 88 -90z" />
    <glyph glyph-name="quotedbl" unicode="&#x22;" horiz-adv-x="413" 
d="M422 667l-25 -268h-95l-24 268h144zM234 667l-24 -268h-96l-24 268h144z" />
    <glyph glyph-name="numbersign" unicode="#" horiz-adv-x="600" 
d="M639 498l-32 -116h-100l-23 -83h101l-32 -117h-102l-51 -182h-134l52 182h-84l-52 -182h-132l52 182h-102l33 117h101l23 83h-100l32 116h101l48 169h131l-47 -169h84l48 169h133l-48 -169h100zM374 382h-85l-23 -83h84z" />
    <glyph glyph-name="dollar" unicode="$" horiz-adv-x="532" 
d="M472 642l-24 -202c-23 36 -53 71 -99 71c-25 0 -49 -17 -49 -44c0 -55 138 -82 138 -224c0 -61 -23 -122 -62 -169c-29 -34 -52 -48 -90 -67l-12 -101h-84l10 85c-55 2 -80 6 -131 30l26 208c20 -40 57 -75 104 -75c29 0 58 17 58 49c0 57 -136 100 -136 226
c0 66 27 133 72 180c31 32 55 50 98 65l11 93h84l-10 -88c38 -8 58 -16 96 -37z" />
    <glyph glyph-name="percent" unicode="%" horiz-adv-x="713" 
d="M335 531c0 -99 -62 -194 -160 -194c-83 0 -128 55 -128 143c0 108 58 199 166 199c85 0 122 -62 122 -148zM219 533c0 22 -1 48 -20 48c-30 0 -36 -68 -36 -98c0 -23 1 -49 21 -49c29 0 35 70 35 99zM599 667l-370 -667h-92l372 667h90zM692 189
c0 -99 -62 -194 -160 -194c-83 0 -128 55 -128 143c0 108 58 199 166 199c85 0 122 -62 122 -148zM576 191c0 22 -1 48 -20 48c-30 0 -36 -68 -36 -98c0 -23 1 -49 21 -49c29 0 35 70 35 99z" />
    <glyph glyph-name="ampersand" unicode="&#x26;" horiz-adv-x="620" 
d="M508 316l76 -122c-25 -24 -50 -48 -77 -70l76 -124h-192l-22 36c-46 -29 -98 -48 -153 -48c-102 0 -182 79 -182 181c0 93 58 160 136 202c-22 32 -36 72 -36 111c0 109 100 197 206 197c94 0 178 -63 178 -162c0 -86 -65 -151 -134 -192l54 -86c25 25 48 50 70 77z
M369 511c0 19 -14 31 -32 31c-22 0 -41 -19 -41 -41s13 -42 23 -61c21 17 50 42 50 71zM295 160l-54 87c-24 -13 -38 -29 -38 -57c0 -26 18 -47 45 -47c17 0 33 7 47 17z" />
    <glyph glyph-name="quotesingle" unicode="'" horiz-adv-x="225" 
d="M234 667l-24 -268h-96l-24 268h144z" />
    <glyph glyph-name="parenleft" unicode="(" horiz-adv-x="330" 
d="M231 737l119 -69c-90 -148 -153 -320 -153 -501c0 -114 16 -213 54 -315l-136 -69c-47 111 -73 231 -73 356c0 219 71 422 189 598z" />
    <glyph glyph-name="parenright" unicode=")" horiz-adv-x="330" 
d="M86 668l136 69c49 -112 73 -230 73 -358c0 -220 -70 -419 -189 -596l-119 69c91 143 154 324 154 500c0 111 -18 217 -55 316z" />
    <glyph glyph-name="asterisk" unicode="*" horiz-adv-x="525" 
d="M486 530l-108 -15l59 -93l-98 -55l-47 99l-69 -85l-82 77l79 76l-101 40l48 103l95 -52l7 110l111 -14l-20 -108l105 28z" />
    <glyph glyph-name="plus" unicode="+" 
d="M480 280h-151v-153h-130v153h-152v120h152v153h130v-153h151v-120z" />
    <glyph glyph-name="comma" unicode="," horiz-adv-x="289" 
d="M250 159l-154 -320h-140l120 320h174z" />
    <glyph glyph-name="hyphen" unicode="-" horiz-adv-x="317" 
d="M262 186h-217l16 134h217z" />
    <glyph glyph-name="period" unicode="." horiz-adv-x="289" 
d="M228 102c0 -59 -53 -112 -112 -112c-51 0 -89 39 -89 90c0 59 53 112 112 112c51 0 89 -39 89 -90z" />
    <glyph glyph-name="slash" unicode="/" horiz-adv-x="526" 
d="M565 729l-489 -945h-120l489 945h120z" />
    <glyph glyph-name="zero" unicode="0" horiz-adv-x="532" 
d="M516 426c0 -60 -6 -120 -20 -178c-30 -124 -109 -260 -253 -260c-154 0 -200 135 -200 266c0 57 6 115 21 171c32 124 116 254 259 254c146 0 193 -128 193 -253zM343 436c0 30 -1 87 -43 87c-75 0 -83 -242 -83 -297c0 -26 1 -82 38 -82c77 0 88 237 88 292z" />
    <glyph glyph-name="one" unicode="1" horiz-adv-x="532" 
d="M438 667l-82 -667h-177l62 510h-71l19 157h249z" />
    <glyph glyph-name="two" unicode="2" horiz-adv-x="532" 
d="M260 425h-172c12 140 101 254 250 254c113 0 185 -75 185 -187c0 -143 -111 -257 -213 -344c55 4 110 4 165 5l-19 -153h-452l209 243c53 61 137 157 137 242c0 21 -10 46 -35 46c-45 0 -53 -73 -55 -106z" />
    <glyph glyph-name="three" unicode="3" horiz-adv-x="532" 
d="M257 477h-171c24 120 112 202 237 202c102 0 183 -67 183 -172c0 -42 -15 -84 -42 -117c-17 -21 -34 -32 -57 -45c50 -31 71 -73 71 -131c0 -136 -120 -226 -249 -226c-104 0 -194 58 -194 170c0 13 3 25 4 38h173c-1 -6 -1 -12 -1 -18c0 -24 11 -42 37 -42
c37 0 57 39 57 72c0 40 -24 60 -63 60c-11 0 -21 -2 -32 -2l18 142c7 -1 14 -1 21 -1c54 0 81 26 81 80c0 20 -7 43 -31 43c-29 0 -37 -29 -42 -53z" />
    <glyph glyph-name="four" unicode="4" horiz-adv-x="532" 
d="M508 279l-17 -144h-56l-17 -135h-177l16 135h-238l17 141l247 391h217l-48 -388h56zM183 279h98c10 67 19 134 31 200c-40 -69 -80 -137 -129 -200z" />
    <glyph glyph-name="five" unicode="5" horiz-adv-x="532" 
d="M514 667l-19 -157h-187l-24 -75c10 1 20 1 30 1c103 0 169 -77 169 -177c0 -152 -132 -271 -281 -271c-61 0 -122 19 -174 52l40 158c41 -26 86 -46 135 -46s101 28 101 83c0 54 -52 66 -96 66c-43 0 -78 -8 -119 -23l98 389h327z" />
    <glyph glyph-name="six" unicode="6" horiz-adv-x="532" 
d="M456 667l-128 -190c-12 -18 -25 -35 -39 -52c21 11 40 18 64 18c96 0 138 -96 138 -179c0 -149 -106 -276 -260 -276c-124 0 -188 85 -188 204c0 151 142 349 222 475h191zM320 254c0 26 -11 59 -42 59c-51 0 -61 -82 -61 -120c0 -26 5 -61 39 -61c52 0 64 83 64 122z
" />
    <glyph glyph-name="seven" unicode="7" horiz-adv-x="532" 
d="M583 667l-377 -667h-191l201 355c31 54 66 106 104 155h-222l19 157h466z" />
    <glyph glyph-name="eight" unicode="8" horiz-adv-x="532" 
d="M512 513c0 -41 -14 -84 -40 -116c-20 -24 -41 -37 -69 -50c59 -26 84 -66 84 -130c0 -137 -120 -229 -250 -229c-104 0 -201 67 -201 178c0 55 25 111 67 146c20 17 42 26 66 35c-58 20 -83 56 -83 118c0 126 113 214 233 214c99 0 193 -58 193 -166zM335 492
c0 19 -8 43 -31 43c-34 0 -44 -44 -44 -71c0 -22 6 -45 33 -45c32 0 42 49 42 73zM308 225c0 23 -7 52 -36 52c-36 0 -52 -53 -52 -82c0 -23 7 -53 36 -53c38 0 52 53 52 83z" />
    <glyph glyph-name="nine" unicode="9" horiz-adv-x="532" 
d="M102 0l128 189c12 18 25 36 39 53c-21 -12 -41 -19 -65 -19c-95 0 -137 97 -137 179c0 149 107 277 261 277c124 0 187 -86 187 -204c0 -152 -142 -349 -223 -475h-190zM342 475c0 26 -6 60 -39 60c-53 0 -65 -83 -65 -123c0 -26 11 -59 42 -59c52 0 62 84 62 122z" />
    <glyph glyph-name="colon" unicode=":" horiz-adv-x="289" 
d="M263 387c0 -59 -53 -112 -112 -112c-51 0 -89 39 -89 90c0 59 53 112 112 112c51 0 89 -39 89 -90zM228 102c0 -59 -53 -112 -112 -112c-51 0 -89 39 -89 90c0 59 53 112 112 112c51 0 89 -39 89 -90z" />
    <glyph glyph-name="semicolon" unicode=";" horiz-adv-x="289" 
d="M296 387c0 -59 -53 -112 -112 -112c-51 0 -89 38 -89 89c0 60 52 113 112 113c51 0 89 -39 89 -90zM250 159l-154 -320h-140l120 320h174z" />
    <glyph glyph-name="less" unicode="&#x3c;" 
d="M466 58l-433 222v109l433 220v-128l-296 -147l295 -148z" />
    <glyph glyph-name="equal" unicode="=" 
d="M480 370h-433v113h433v-113zM480 197h-433v113h433v-113z" />
    <glyph glyph-name="greater" unicode="&#x3e;" 
d="M493 279l-433 -221v129l296 147l-295 147l-1 128l433 -221v-109z" />
    <glyph glyph-name="question" unicode="?" horiz-adv-x="501" 
d="M242 478h-171c7 53 14 84 45 129c43 62 118 95 192 95c115 0 188 -75 188 -190c0 -92 -53 -180 -151 -207l-7 -65h-169l19 160c9 -1 18 -2 27 -2c72 0 104 38 104 102c0 22 -2 54 -31 54c-35 0 -43 -50 -46 -76zM337 103c0 -59 -54 -113 -113 -113c-51 0 -87 39 -87 89
c0 60 52 114 112 114c52 0 88 -39 88 -90z" />
    <glyph glyph-name="at" unicode="@" horiz-adv-x="733" 
d="M554 98l10 -80c-66 -21 -136 -30 -206 -30c-184 0 -315 108 -315 298c0 212 186 392 397 392c155 0 282 -94 282 -257c0 -57 -17 -114 -47 -163c-31 -50 -86 -104 -149 -104c-32 0 -65 20 -70 54c-32 -39 -82 -63 -133 -63c-76 0 -122 62 -122 134c0 103 91 223 200 223
c36 0 75 -14 92 -48l12 38l88 -1l-60 -189c-5 -17 -12 -35 -12 -53c0 -13 6 -22 20 -22c19 0 37 19 48 32c34 40 54 100 54 152c0 123 -92 187 -208 187c-166 0 -305 -140 -305 -306c0 -56 17 -111 53 -154c48 -56 115 -70 186 -70c63 0 125 10 185 30zM457 349
c0 34 -18 60 -54 60c-56 0 -100 -63 -100 -115c0 -34 23 -58 57 -58c55 0 97 62 97 113z" />
    <glyph glyph-name="A" unicode="A" horiz-adv-x="524" 
d="M491 0h-183l-3 85h-119l-25 -85h-184l240 667h217zM300 305v87c0 38 2 77 3 115c-8 -31 -14 -63 -23 -94c-18 -62 -34 -124 -53 -186h75c-1 26 -2 52 -2 78z" />
    <glyph glyph-name="B" unicode="B" horiz-adv-x="522" 
d="M100 667h206c111 0 206 -38 206 -165c0 -89 -49 -152 -140 -160c78 -11 117 -45 117 -127c0 -127 -99 -215 -223 -215h-248zM259 522l-14 -114c4 -1 8 -1 12 -1c41 0 77 22 77 66c0 36 -23 50 -56 50c-6 0 -13 0 -19 -1zM229 272l-16 -127c5 -1 10 -1 15 -1
c44 0 82 27 82 74c0 40 -32 55 -67 55c-5 0 -9 -1 -14 -1z" />
    <glyph glyph-name="C" unicode="C" horiz-adv-x="438" 
d="M461 662l-23 -190c-22 25 -42 40 -77 40c-107 0 -140 -138 -140 -223c0 -63 21 -127 95 -127c38 0 69 19 97 43l-34 -193c-39 -16 -67 -24 -109 -24c-159 0 -232 127 -232 272c0 200 109 419 335 419c36 0 55 -3 88 -17z" />
    <glyph glyph-name="D" unicode="D" horiz-adv-x="529" 
d="M100 667h153c169 0 264 -102 264 -269c0 -91 -24 -194 -75 -270c-64 -95 -145 -128 -258 -128h-166zM257 500l-42 -339c96 5 119 140 119 215c0 52 -10 124 -77 124z" />
    <glyph glyph-name="E" unicode="E" horiz-adv-x="405" 
d="M430 667l-20 -157h-152l-12 -97h137l-19 -151h-136l-13 -102h152l-19 -160h-330l82 667h330z" />
    <glyph glyph-name="F" unicode="F" horiz-adv-x="382" 
d="M413 667l-19 -157h-136l-12 -97h127l-19 -151h-126l-33 -262h-177l82 667h313z" />
    <glyph glyph-name="G" unicode="G" horiz-adv-x="552" 
d="M543 514l-180 -64c0 28 -8 68 -44 68c-54 0 -72 -75 -82 -116c-12 -53 -21 -107 -21 -161c0 -37 3 -93 53 -93c48 0 68 58 73 97h-65l17 140h247c-5 -50 -12 -99 -24 -148c-32 -135 -112 -249 -264 -249c-158 0 -216 125 -216 265c0 60 7 119 24 177
c38 130 130 249 277 249c109 0 175 -64 205 -165z" />
    <glyph glyph-name="H" unicode="H" horiz-adv-x="531" 
d="M539 667l-82 -667h-177l33 268h-85l-33 -268h-177l82 667h177l-29 -236h85l29 236h177z" />
    <glyph glyph-name="I" unicode="I" horiz-adv-x="269" 
d="M277 667l-82 -667h-177l82 667h177z" />
    <glyph glyph-name="J" unicode="J" horiz-adv-x="349" 
d="M357 667l-57 -463c-6 -45 -12 -86 -37 -125c-40 -64 -103 -91 -177 -91c-40 0 -75 8 -113 22l23 186c15 -23 37 -39 66 -39c48 0 60 42 65 82l52 428h178z" />
    <glyph glyph-name="K" unicode="K" horiz-adv-x="533" 
d="M564 667l-181 -322l117 -345h-191l-79 319l-35 -319h-177l82 667h177l-40 -298l140 298h187z" />
    <glyph glyph-name="L" unicode="L" horiz-adv-x="363" 
d="M348 160l-19 -160h-311l82 667h177l-62 -507h133z" />
    <glyph glyph-name="M" unicode="M" horiz-adv-x="755" 
d="M712 667l-18 -667h-185c11 142 23 283 35 425c-36 -143 -82 -284 -126 -425h-145l-11 321c0 11 -1 23 -1 34c0 23 1 47 2 70c-19 -142 -46 -284 -71 -425h-190l158 667h221l9 -225c1 -17 2 -33 2 -50c0 -27 -2 -53 -3 -80c27 121 67 237 104 355h219z" />
    <glyph glyph-name="N" unicode="N" horiz-adv-x="554" 
d="M562 667l-82 -667h-169l-59 245c-11 46 -21 92 -28 139c-2 -35 -4 -71 -6 -106c-6 -93 -20 -185 -31 -278h-169l82 667h169l60 -234c14 -55 23 -112 35 -168c0 84 -1 168 10 252l19 150h169z" />
    <glyph glyph-name="O" unicode="O" horiz-adv-x="558" 
d="M546 422c0 -64 -8 -129 -26 -191c-37 -123 -125 -243 -266 -243c-67 0 -131 34 -169 89c-37 54 -47 122 -47 186c0 63 9 127 29 187c41 119 134 229 270 229c145 0 209 -128 209 -257zM362 408c0 32 -1 103 -47 103c-53 0 -80 -115 -86 -156c-5 -29 -7 -59 -7 -89
c0 -33 1 -109 48 -109c55 0 80 119 86 161c4 30 6 60 6 90z" />
    <glyph glyph-name="P" unicode="P" horiz-adv-x="498" 
d="M100 667h172c132 0 238 -43 238 -193c0 -68 -25 -141 -73 -190c-56 -57 -137 -72 -215 -65l-27 -219h-177zM241 368h9c49 0 79 41 79 87c0 36 -18 66 -57 66h-13z" />
    <glyph glyph-name="Q" unicode="Q" horiz-adv-x="566" 
d="M354 -93l-50 89c-18 -6 -35 -8 -54 -8c-150 0 -213 136 -213 268c0 59 7 118 24 174c38 127 130 249 274 249c151 0 213 -136 213 -269c0 -111 -34 -249 -111 -332l69 -92zM362 403c0 34 -2 108 -50 108c-50 0 -77 -120 -83 -159c-5 -29 -7 -59 -7 -89
c0 -33 2 -106 49 -106c54 0 79 112 85 154c4 30 6 61 6 92z" />
    <glyph glyph-name="R" unicode="R" horiz-adv-x="525" 
d="M100 667h181c131 0 230 -45 230 -191c0 -91 -38 -163 -124 -199l98 -277h-192c-16 67 -34 133 -49 200c-6 26 -11 51 -17 77c-8 -93 -20 -185 -32 -277h-177zM239 358h12c49 0 83 49 83 95c0 50 -30 64 -75 64z" />
    <glyph glyph-name="S" unicode="S" horiz-adv-x="398" 
d="M408 645l-25 -204c-18 36 -52 73 -95 73c-24 0 -53 -18 -53 -44c0 -59 140 -87 140 -224s-100 -258 -242 -258c-44 0 -87 11 -127 29l26 209c23 -38 57 -73 104 -73c29 0 58 18 58 50c0 60 -138 87 -138 231c0 123 101 245 228 245c44 0 86 -13 124 -34z" />
    <glyph glyph-name="T" unicode="T" horiz-adv-x="377" 
d="M427 667l-20 -160h-98l-62 -507h-177l62 507h-98l20 160h373z" />
    <glyph glyph-name="U" unicode="U" horiz-adv-x="537" 
d="M545 667l-58 -472c-8 -68 -30 -112 -85 -155c-46 -36 -96 -52 -155 -52c-117 0 -205 60 -205 184c0 16 1 32 3 48l55 447h177l-53 -431c-1 -11 -2 -22 -2 -33c0 -26 10 -46 39 -46c44 0 50 45 54 79l53 431h177z" />
    <glyph glyph-name="V" unicode="V" horiz-adv-x="510" 
d="M564 667l-261 -667h-181l-68 667h186c5 -104 12 -208 12 -312c0 -41 -2 -82 -4 -123c30 148 78 291 123 435h193z" />
    <glyph glyph-name="W" unicode="W" horiz-adv-x="742" 
d="M796 667l-215 -667h-171c-7 139 -17 278 -16 417c-8 -30 -14 -61 -20 -92c-6 -28 -13 -55 -20 -83l-63 -242h-173l-64 667h175c3 -80 5 -161 7 -241c1 -19 2 -38 2 -57c0 -40 -1 -79 -2 -119c30 141 72 279 113 417h152c6 -96 13 -191 15 -287c1 -46 0 -92 0 -138
c14 73 29 146 49 218l58 207h173z" />
    <glyph glyph-name="X" unicode="X" horiz-adv-x="509" 
d="M552 667l-190 -321l119 -346h-197c-10 41 -18 83 -26 124c-4 18 -8 37 -10 55c-25 -61 -54 -120 -83 -179h-193l202 346l-111 321h197c7 -37 15 -73 22 -110c3 -16 5 -32 9 -48c17 54 40 106 62 158h199z" />
    <glyph glyph-name="Y" unicode="Y" horiz-adv-x="493" 
d="M547 667l-200 -385l-35 -282h-177l35 282l-116 385h185c14 -68 29 -137 37 -206c26 70 57 138 87 206h184z" />
    <glyph glyph-name="Z" unicode="Z" horiz-adv-x="507" 
d="M544 667l-2 -19l-206 -363c-25 -45 -53 -88 -79 -133c68 6 135 6 203 8l-19 -160h-453l2 14l181 326c33 59 69 116 110 170h-191l19 157h435z" />
    <glyph glyph-name="bracketleft" unicode="[" horiz-adv-x="344" 
d="M372 729l-14 -119h-102l-85 -699h101l-15 -120h-251l115 938h251z" />
    <glyph glyph-name="backslash" unicode="\" horiz-adv-x="562" 
d="M53 729h120l372 -945h-120z" />
    <glyph glyph-name="bracketright" unicode="]" horiz-adv-x="344" 
d="M346 729l-115 -938h-252l15 120h101l86 699h-101l14 119h252z" />
    <glyph glyph-name="asciicircum" unicode="^" 
d="M509 330h-136l-110 233l-110 -233h-135l160 337h170z" />
    <glyph glyph-name="underscore" unicode="_" 
d="M472 -166h-500v120h500v-120z" />
    <glyph glyph-name="grave" unicode="`" 
d="M340 530h-98l-68 148h138z" />
    <glyph glyph-name="a" unicode="a" horiz-adv-x="489" 
d="M479 467l-57 -467h-171c5 26 10 53 15 79c-30 -50 -68 -89 -130 -89c-92 0 -113 104 -113 177c0 43 4 86 14 128c19 80 70 182 165 182c57 0 81 -36 99 -84c1 25 3 49 4 74h174zM282 288c0 19 -3 46 -28 46c-48 0 -59 -111 -59 -146c0 -22 2 -55 31 -55
c47 0 56 121 56 155z" />
    <glyph glyph-name="b" unicode="b" horiz-adv-x="489" 
d="M101 729h171c-12 -93 -21 -186 -35 -278c-3 -17 -6 -35 -8 -52c29 45 61 78 118 78c99 0 120 -98 120 -178c0 -43 -4 -87 -14 -129c-20 -81 -71 -180 -167 -180c-53 0 -74 29 -96 73c-2 -21 -2 -42 -4 -63h-175zM290 273c0 22 -4 60 -34 60c-44 0 -53 -106 -53 -138
c0 -21 2 -56 31 -56c46 0 56 101 56 134z" />
    <glyph glyph-name="c" unicode="c" horiz-adv-x="298" 
d="M309 475l-19 -152c-56 -4 -87 -44 -87 -98c0 -33 17 -73 55 -73h11l-19 -159c-15 -2 -31 -3 -46 -3c-123 0 -179 98 -179 210c0 140 102 277 250 277c11 0 23 -1 34 -2z" />
    <glyph glyph-name="d" unicode="d" horiz-adv-x="489" 
d="M511 729l-89 -729h-174c1 21 8 42 11 63c-30 -40 -61 -73 -114 -73c-97 0 -123 94 -123 174c0 43 4 87 14 129c20 81 71 184 167 184c55 0 80 -31 100 -78c7 111 24 220 38 330h170zM288 274c0 19 -2 59 -29 59c-48 0 -58 -101 -58 -136c0 -21 6 -58 33 -58
c45 0 54 103 54 135z" />
    <glyph glyph-name="e" unicode="e" horiz-adv-x="474" 
d="M266 157h166c-35 -106 -114 -167 -225 -167c-120 0 -184 74 -184 191c0 144 90 295 248 295c120 0 180 -87 180 -200c0 -27 -4 -53 -8 -79h-250c-1 -6 -1 -13 -1 -19c0 -22 3 -53 32 -53c20 0 36 15 42 32zM207 290h79c0 4 1 8 1 12c0 22 -8 47 -34 47
c-30 0 -43 -34 -46 -59z" />
    <glyph glyph-name="f" unicode="f" horiz-adv-x="296" 
d="M352 728l-20 -161c-9 9 -19 17 -33 17c-26 0 -30 -28 -32 -48l-8 -69h61l-17 -140h-61l-40 -327h-171l40 327h-49l17 140h50c7 62 8 129 35 181c29 57 86 92 150 92c27 0 53 -5 78 -12z" />
    <glyph glyph-name="g" unicode="g" horiz-adv-x="485" 
d="M475 467l-59 -479c-6 -48 -17 -91 -49 -128c-45 -52 -116 -75 -183 -75c-117 0 -183 47 -185 169h174c0 -21 8 -38 31 -38c38 0 44 36 48 66c3 23 6 47 9 72c-28 -34 -68 -61 -114 -61c-94 0 -124 104 -124 181c0 41 5 82 15 122c21 78 75 181 168 181
c44 0 73 -36 93 -71l4 61h172zM284 279c0 19 0 57 -27 57c-46 0 -55 -104 -55 -137c0 -20 2 -63 30 -63c44 0 52 111 52 143z" />
    <glyph glyph-name="h" unicode="h" horiz-adv-x="483" 
d="M272 729l-32 -261c-4 -30 -9 -60 -16 -90c28 52 70 99 134 99c66 0 100 -55 100 -116c0 -14 -1 -29 -3 -43l-39 -318h-171l31 247c1 9 2 17 2 26c0 15 -5 31 -23 31c-33 0 -41 -44 -44 -69l-29 -235h-171l90 729h171z" />
    <glyph glyph-name="i" unicode="i" horiz-adv-x="249" 
d="M273 624c0 -59 -54 -113 -113 -113c-50 0 -88 39 -88 89c0 60 53 113 113 113c51 0 88 -38 88 -89zM239 467l-57 -467h-171l58 467h170z" />
    <glyph glyph-name="j" unicode="j" horiz-adv-x="252" 
d="M274 624v-10c0 -8 -5 -22 -8 -29c-16 -42 -59 -74 -104 -74c-51 0 -88 38 -88 89c0 60 52 113 112 113c52 0 88 -38 88 -89zM242 467l-85 -682h-170l83 682h172z" />
    <glyph glyph-name="k" unicode="k" horiz-adv-x="487" 
d="M505 467l-139 -215l93 -252h-190l-41 146c-11 39 -16 66 -18 81l-28 -227h-171l90 729h171l-57 -462c8 18 21 41 33 62l75 138h182z" />
    <glyph glyph-name="l" unicode="l" horiz-adv-x="250" 
d="M272 729l-90 -729h-171l90 729h171z" />
    <glyph glyph-name="m" unicode="m" horiz-adv-x="722" 
d="M69 467h170c-3 -26 -7 -52 -12 -78c30 48 69 88 130 88c65 0 93 -40 110 -97c26 55 59 97 125 97c63 0 106 -46 106 -108c0 -16 -2 -33 -4 -49l-39 -320h-171l30 245c1 11 4 23 4 34c0 14 -5 30 -22 30c-35 0 -44 -46 -47 -73l-29 -236h-171l29 235c2 14 4 27 4 41
c0 16 -6 29 -24 29c-39 0 -43 -43 -47 -73l-29 -232h-171z" />
    <glyph glyph-name="n" unicode="n" horiz-adv-x="483" 
d="M69 467h170c-5 -30 -9 -59 -15 -89c28 52 70 99 134 99c66 0 100 -55 100 -116c0 -14 -1 -29 -3 -43l-39 -318h-171l31 247c1 9 2 17 2 26c0 15 -5 31 -23 31c-33 0 -41 -44 -44 -69l-29 -235h-171z" />
    <glyph glyph-name="o" unicode="o" horiz-adv-x="480" 
d="M456 280c0 -153 -81 -290 -248 -290c-124 0 -184 82 -184 200c0 145 88 287 246 287c121 0 186 -80 186 -197zM291 269c0 24 -3 77 -37 77c-49 0 -64 -112 -64 -148c0 -24 4 -77 37 -77c49 0 64 112 64 148z" />
    <glyph glyph-name="p" unicode="p" horiz-adv-x="489" 
d="M241 467l-12 -66c28 43 60 76 115 76c98 0 123 -109 123 -188c0 -41 -4 -82 -15 -122c-20 -78 -73 -177 -165 -177c-51 0 -78 30 -99 73c0 -26 -3 -51 -6 -77l-25 -201h-171l85 682h170zM290 272c0 20 -3 62 -31 62c-44 0 -54 -104 -54 -136c0 -19 2 -62 29 -62
c43 0 56 104 56 136z" />
    <glyph glyph-name="q" unicode="q" horiz-adv-x="487" 
d="M477 467l-84 -682h-171l25 201c1 9 2 17 4 26c3 17 7 34 10 51c-30 -41 -64 -73 -118 -73c-99 0 -120 104 -120 183c0 41 5 83 15 123c20 78 75 181 168 181c52 0 79 -30 96 -76l4 66h171zM286 272c0 20 -2 62 -30 62c-45 0 -54 -103 -54 -135c0 -20 3 -63 31 -63
c41 0 53 106 53 136z" />
    <glyph glyph-name="r" unicode="r" horiz-adv-x="339" 
d="M360 478l-24 -194c-15 9 -28 15 -46 15c-22 0 -43 -11 -57 -27c-19 -21 -23 -45 -26 -72l-25 -200h-171l58 467h170l-20 -91c30 59 72 100 141 102z" />
    <glyph glyph-name="s" unicode="s" horiz-adv-x="389" 
d="M390 439l-74 -127c-16 19 -38 41 -65 41c-14 0 -30 -9 -30 -25c0 -53 142 -33 142 -157c0 -110 -101 -181 -204 -181c-64 0 -104 17 -159 49l78 129c18 -23 48 -49 79 -49c16 0 36 8 36 27c0 21 -24 28 -40 34c-56 22 -104 52 -104 119c0 110 108 178 209 178
c49 0 90 -14 132 -38z" />
    <glyph glyph-name="t" unicode="t" horiz-adv-x="297" 
d="M319 467l-17 -140h-56l-41 -327h-170l40 327h-49l17 140h49l17 137h171l-17 -137h56z" />
    <glyph glyph-name="u" unicode="u" horiz-adv-x="492" 
d="M482 467l-35 -287c-8 -65 -29 -110 -85 -147c-43 -28 -94 -43 -145 -43c-95 0 -186 48 -186 154c0 12 2 24 3 36l35 287h170l-32 -263c-1 -12 -3 -23 -3 -35c0 -21 9 -34 31 -34c38 0 41 41 44 69l32 263h171z" />
    <glyph glyph-name="v" unicode="v" horiz-adv-x="439" 
d="M468 467l-191 -467h-178l-70 467h173c5 -67 12 -134 12 -202c0 -31 -1 -62 -2 -93c24 100 57 197 88 295h168z" />
    <glyph glyph-name="w" unicode="w" horiz-adv-x="672" 
d="M701 467l-191 -467h-169v280l-87 -280h-168l-57 467h168l8 -150c2 -44 1 -88 1 -132c18 97 55 189 87 282h145c4 -94 9 -188 6 -282c24 95 56 189 87 282h170z" />
    <glyph glyph-name="x" unicode="x" horiz-adv-x="475" 
d="M491 467l-163 -223l119 -244h-198c-10 36 -19 73 -25 110c-17 -38 -39 -75 -61 -110h-191l169 240l-104 227h195c7 -34 15 -67 20 -101c15 35 34 67 50 101h189z" />
    <glyph glyph-name="y" unicode="y" horiz-adv-x="458" 
d="M487 467l-301 -682h-176l110 234l-82 448h172c9 -78 22 -156 22 -235c0 -10 -1 -20 -1 -30c15 55 28 111 48 164l38 101h170z" />
    <glyph glyph-name="z" unicode="z" horiz-adv-x="428" 
d="M441 467l-138 -238c-17 -30 -35 -59 -55 -88h126l-17 -141h-369l141 242c17 29 35 58 55 85h-130l17 140h370z" />
    <glyph glyph-name="braceleft" unicode="{" horiz-adv-x="504" 
d="M462 726l-14 -114c-58 0 -94 11 -106 -57c-14 -96 -14 -191 -41 -244c-12 -24 -32 -37 -54 -51c36 -26 46 -48 46 -92c0 -12 -1 -23 -2 -35l-20 -157c-1 -9 -3 -17 -3 -26c0 -40 26 -43 60 -43c11 0 23 0 34 1l-14 -115c-26 -1 -52 -2 -78 -2c-80 0 -136 19 -136 110
c0 11 1 23 2 34l24 189c1 9 2 19 2 28c0 33 -14 51 -46 58l13 110c45 8 59 33 64 76l22 188c13 108 64 145 170 145c26 0 51 -2 77 -3z" />
    <glyph glyph-name="bar" unicode="|" 
d="M318 -250h-130v1000h130v-1000z" />
    <glyph glyph-name="braceright" unicode="}" horiz-adv-x="504" 
d="M415 310l-13 -110c-27 -6 -48 -18 -57 -46c-3 -10 -7 -20 -8 -30l-23 -189c-14 -117 -70 -144 -181 -144c-22 0 -43 1 -65 2l14 115c7 -1 14 -1 21 -1c52 0 75 -1 85 57c11 61 15 192 42 245c12 24 33 37 54 51c-36 26 -46 47 -46 91c0 12 1 23 2 35l19 157
c1 11 3 22 3 33c0 45 -64 36 -94 36l14 114c26 1 51 3 77 3c80 0 137 -19 137 -110c0 -12 -1 -23 -2 -35l-23 -188c-1 -9 -2 -19 -2 -28c0 -33 13 -52 46 -58z" />
    <glyph glyph-name="asciitilde" unicode="~" horiz-adv-x="667" 
d="M556 748l73 -43c-32 -69 -74 -134 -159 -134c-62 0 -123 50 -183 50c-42 0 -56 -27 -73 -61l-71 47c6 15 12 30 19 45c26 55 69 94 132 94c67 0 126 -49 190 -49c37 0 55 21 72 51z" />
    <glyph glyph-name="uni00A0" unicode="&#xa0;" horiz-adv-x="233" 
 />
    <glyph glyph-name="exclamdown" unicode="&#xa1;" horiz-adv-x="315" 
d="M279 388c0 -60 -53 -114 -113 -114c-52 0 -88 39 -88 90c0 59 54 113 113 113c50 0 88 -39 88 -89zM245 227l-56 -450h-173l55 450h174z" />
    <glyph glyph-name="cent" unicode="&#xa2;" horiz-adv-x="532" 
d="M417 590l-18 -148c-55 -3 -87 -46 -87 -99c0 -33 17 -70 55 -70h11l-19 -161c-16 -3 -32 -1 -48 -3l-10 -86h-84l13 105c-69 44 -97 106 -97 187c0 69 25 140 69 194c26 32 46 45 82 62l12 108h84l-10 -86c5 1 11 1 16 1c10 0 21 -2 31 -4z" />
    <glyph glyph-name="sterling" unicode="&#xa3;" horiz-adv-x="532" 
d="M503 584l-107 -96c-13 25 -28 50 -59 50c-32 0 -54 -31 -54 -61c0 -32 12 -64 12 -96h159l-12 -93h-148c-5 -49 -26 -92 -58 -129c32 -2 43 -6 71 -21c12 -7 20 -11 35 -11c24 0 42 14 56 32l82 -48c-35 -70 -88 -123 -171 -123c-28 0 -55 6 -81 17c-28 11 -39 21 -71 21
c-34 0 -60 -13 -88 -30l-39 82c27 18 54 35 83 48c22 32 28 60 28 98c0 22 -4 43 -8 64h-60l11 93h33c-5 28 -12 56 -12 85c0 122 97 211 217 211c75 0 135 -36 181 -93z" />
    <glyph glyph-name="currency" unicode="&#xa4;" horiz-adv-x="667" 
d="M666 138l-70 -71l-103 103c-43 -29 -90 -45 -142 -45c-54 0 -94 16 -140 44l-102 -102l-70 70l103 103c-28 41 -44 88 -44 138c0 52 15 94 44 137l-104 104l71 71l104 -104c44 29 87 44 140 44c52 0 94 -15 137 -43l103 102l70 -70l-102 -102c29 -45 45 -85 45 -139
c0 -52 -14 -94 -43 -137zM488 377c0 75 -61 137 -136 137s-136 -62 -136 -137s61 -136 136 -136s136 61 136 136z" />
    <glyph glyph-name="yen" unicode="&#xa5;" horiz-adv-x="532" 
d="M567 667l-111 -212h78l-11 -94h-115l-34 -66h141l-12 -93h-146l-25 -202h-177l25 202h-157l11 93h152l-20 66h-124l12 94h84l-64 212h184c14 -68 30 -137 38 -206c26 70 56 138 87 206h184z" />
    <glyph glyph-name="brokenbar" unicode="&#xa6;" 
d="M318 335h-130v415h130v-415zM318 -250h-130v415h130v-415z" />
    <glyph glyph-name="section" unicode="&#xa7;" horiz-adv-x="525" 
d="M19 7h147c-1 -10 -3 -20 -3 -30c0 -40 20 -63 61 -63c37 0 67 28 67 65c0 39 -44 59 -72 76c-24 14 -49 27 -72 42c-59 38 -94 76 -94 150c0 67 35 124 89 162c-25 37 -40 65 -40 118c0 130 113 213 236 213c100 0 168 -56 168 -159c0 -22 -4 -43 -6 -65h-140
c2 14 3 28 3 42c0 36 -15 61 -54 61c-34 0 -61 -23 -61 -58c0 -92 238 -103 238 -264c0 -63 -32 -119 -82 -156c40 -34 55 -69 55 -122c0 -137 -120 -234 -252 -234c-104 0 -192 57 -192 169c0 18 3 35 4 53zM335 279c0 37 -23 57 -59 57c-40 0 -72 -32 -72 -72
c0 -35 22 -59 58 -59c41 0 73 33 73 74z" />
    <glyph glyph-name="dieresis" unicode="&#xa8;" 
d="M463 610c0 -42 -39 -80 -81 -80c-36 0 -63 28 -63 64c0 43 37 80 80 80c37 0 64 -27 64 -64zM273 602c0 -6 -3 -15 -5 -20c-12 -30 -43 -52 -75 -52c-37 0 -64 27 -64 64c0 43 38 80 81 80s63 -32 63 -72z" />
    <glyph glyph-name="copyright" unicode="&#xa9;" horiz-adv-x="760" 
d="M740 333c0 -191 -154 -348 -346 -348s-348 157 -348 349s157 348 349 348c191 0 345 -159 345 -349zM660 333c0 148 -115 276 -266 276s-268 -126 -268 -275c0 -148 117 -277 268 -277s266 128 266 276zM497 270l-8 -128c-27 -11 -45 -16 -74 -16
c-119 0 -179 96 -179 206c0 119 69 208 193 208c26 0 38 -1 62 -11v-127c-20 17 -29 33 -59 33c-53 0 -67 -58 -67 -101c0 -42 13 -98 65 -98c29 0 46 17 67 34z" />
    <glyph glyph-name="ordfeminine" unicode="&#xaa;" horiz-adv-x="284" 
d="M279 372h-99l8 45c-9 -17 -20 -29 -31 -37s-23 -14 -39 -14c-14 0 -35 5 -50 25c-18 23 -20 55 -20 77c0 50 11 141 54 183c16 16 33 22 52 22c10 0 24 -2 36 -13c9 -8 18 -24 22 -36l2 43h101zM269 297h-242l6 48h242zM147 475c0 -6 0 -14 5 -20c3 -4 8 -6 12 -6
c10 0 16 10 19 15c7 13 11 34 14 50c2 11 5 33 5 45c0 9 -1 18 -4 24c-3 5 -6 8 -13 8c-6 0 -10 -3 -14 -7c-5 -5 -12 -16 -18 -49c-3 -17 -6 -45 -6 -60z" />
    <glyph glyph-name="guillemotleft" unicode="&#xab;" horiz-adv-x="485" 
d="M237 63l-85 -50l-124 226l179 226l71 -66l-134 -168zM437 63l-85 -50l-124 226l179 226l71 -66l-134 -168z" />
    <glyph glyph-name="logicalnot" unicode="&#xac;" 
d="M455 0h-130v150h-303v117h433v-267z" />
    <glyph glyph-name="uni00AD" unicode="&#xad;" horiz-adv-x="317" 
d="M262 186h-217l16 134h217z" />
    <glyph glyph-name="registered" unicode="&#xae;" horiz-adv-x="760" 
d="M543 154h-117l-54 143v-143h-109v375h109c82 0 154 -33 154 -127c0 -43 -20 -76 -61 -93zM372 357h5c25 0 40 21 40 44c0 29 -20 40 -45 40v-84zM660 333c0 148 -115 276 -266 276s-268 -126 -268 -275c0 -148 117 -277 268 -277s266 128 266 276zM740 333
c0 -191 -154 -348 -346 -348s-348 157 -348 349s157 348 349 348c191 0 345 -159 345 -349z" />
    <glyph glyph-name="macron" unicode="&#xaf;" 
d="M469 647l-12 -94h-335l12 94h335z" />
    <glyph glyph-name="degree" unicode="&#xb0;" 
d="M439 509c0 -85 -70 -153 -155 -153c-84 0 -154 69 -154 153s71 151 154 151c84 0 155 -66 155 -151zM361 509c0 42 -35 75 -77 75c-41 0 -76 -33 -76 -75s34 -76 76 -76s77 33 77 76z" />
    <glyph glyph-name="plusminus" unicode="&#xb1;" 
d="M471 357h-152v-154h-130v154h-151v120h151v153h130v-153h152v-120zM471 50h-433v120h433v-120z" />
    <glyph glyph-name="twosuperior" unicode="&#xb2;" horiz-adv-x="347" 
d="M193 519h-110c7 86 63 155 153 155c70 0 117 -42 117 -113c0 -85 -65 -150 -125 -202c32 2 64 3 96 3l-11 -95h-282l130 147c32 36 82 91 82 143c0 11 -6 25 -19 25c-27 0 -30 -44 -31 -63z" />
    <glyph glyph-name="threesuperior" unicode="&#xb3;" horiz-adv-x="347" 
d="M193 550h-108c14 73 68 124 144 124c63 0 116 -37 116 -104c0 -42 -21 -76 -57 -97c29 -18 41 -44 41 -77c0 -82 -74 -136 -151 -136c-61 0 -123 32 -123 100c0 9 1 18 2 27h110c-1 -4 -1 -9 -1 -13c0 -13 7 -22 21 -22c21 0 32 22 32 41c0 22 -15 33 -36 33
c-8 0 -15 -1 -22 -2l11 89c5 0 10 -1 15 -1c31 0 47 14 47 46c0 11 -4 24 -17 24c-18 0 -21 -17 -24 -32z" />
    <glyph glyph-name="acute" unicode="&#xb4;" 
d="M437 678l-105 -148h-98l65 148h138z" />
    <glyph glyph-name="mu" unicode="&#xb5;" horiz-adv-x="582" 
d="M515 0h-156l8 64c-8 -19 -22 -40 -37 -53c-19 -16 -39 -21 -61 -21c-25 0 -46 7 -62 23c-2 2 -21 21 -31 53l-34 -281h-156l83 682h172l-27 -219c-1 -12 -3 -31 -3 -42c0 -27 7 -49 19 -64c11 -13 27 -24 53 -24c20 0 36 7 50 20c23 22 34 57 41 114l26 215h172z" />
    <glyph glyph-name="mu" unicode="&#x3bc;" horiz-adv-x="582" 
d="M515 0h-156l8 64c-8 -19 -22 -40 -37 -53c-19 -16 -39 -21 -61 -21c-25 0 -46 7 -62 23c-2 2 -21 21 -31 53l-34 -281h-156l83 682h172l-27 -219c-1 -12 -3 -31 -3 -42c0 -27 7 -49 19 -64c11 -13 27 -24 53 -24c20 0 36 7 50 20c23 22 34 57 41 114l26 215h172z" />
    <glyph glyph-name="paragraph" unicode="&#xb6;" horiz-adv-x="667" 
d="M647 667l-12 -100h-73l-81 -667h-110l81 667h-83l-82 -667h-110l52 421h-13c-90 0 -158 52 -158 146c0 53 22 108 61 144c50 46 127 56 193 56h335z" />
    <glyph glyph-name="periodcentered" unicode="&#xb7;" horiz-adv-x="322" 
d="M291 353c0 -69 -62 -130 -131 -130c-59 0 -103 44 -103 103c0 69 61 131 130 131c60 0 104 -44 104 -104z" />
    <glyph glyph-name="cedilla" unicode="&#xb8;" 
d="M307 -106l-126 -117l-71 54l102 122z" />
    <glyph glyph-name="onesuperior" unicode="&#xb9;" horiz-adv-x="347" 
d="M300 667l-49 -400h-112l37 303h-43l12 97h155z" />
    <glyph glyph-name="ordmasculine" unicode="&#xba;" horiz-adv-x="284" 
d="M54 505c0 34 9 90 49 130c26 27 57 38 94 38c23 0 53 -5 78 -31c18 -19 32 -49 32 -94c0 -37 -10 -98 -49 -137c-28 -28 -61 -37 -94 -37c-30 0 -54 7 -76 31c-24 25 -34 59 -34 100zM273 297h-246l6 48h246zM189 598c-5 0 -11 -3 -15 -7c-6 -6 -13 -17 -19 -49
c-4 -24 -5 -42 -5 -53c0 -15 2 -26 7 -32c4 -5 9 -7 14 -7s10 2 15 7c7 6 13 18 18 42c4 19 7 38 7 57c0 11 -1 22 -6 31s-12 11 -16 11z" />
    <glyph glyph-name="guillemotright" unicode="&#xbb;" horiz-adv-x="485" 
d="M11 79l133 168l-92 168l85 50l123 -226l-178 -226zM211 79l133 168l-92 168l85 50l123 -226l-178 -226z" />
    <glyph glyph-name="onequarter" unicode="&#xbc;" horiz-adv-x="831" 
d="M796 169l-11 -89h-34l-10 -80h-112l10 80h-145l10 86l151 234h135l-28 -231h34zM300 667l-49 -400h-112l37 303h-43l12 97h155zM600 169h54c5 36 9 72 16 107c-22 -37 -44 -73 -70 -107zM650 667l-370 -667h-92l372 667h90z" />
    <glyph glyph-name="onehalf" unicode="&#xbd;" horiz-adv-x="831" 
d="M643 252h-109c7 86 63 155 153 155c70 0 117 -42 117 -113c0 -85 -65 -150 -125 -202c32 2 64 3 96 3l-11 -95h-282l130 147c31 35 82 92 82 143c0 12 -6 25 -20 25c-27 0 -30 -45 -31 -63zM300 667l-49 -400h-112l37 303h-43l12 97h155zM650 667l-370 -667h-92l372 667
h90z" />
    <glyph glyph-name="threequarters" unicode="&#xbe;" horiz-adv-x="831" 
d="M796 169l-11 -89h-34l-10 -80h-112l10 80h-145l10 86l150 234h136l-28 -231h34zM193 550h-108c14 73 68 124 144 124c63 0 116 -37 116 -104c0 -42 -21 -76 -57 -97c29 -18 41 -44 41 -77c0 -82 -74 -136 -151 -136c-61 0 -123 32 -123 100c0 9 1 18 2 27h110
c-1 -4 -1 -9 -1 -13c0 -13 7 -22 21 -22c21 0 32 22 32 41c0 22 -15 33 -36 33c-8 0 -15 -1 -22 -2l11 89c5 0 10 -1 15 -1c31 0 47 14 47 46c0 11 -4 24 -17 24c-18 0 -21 -17 -24 -32zM599 169h55c5 35 8 72 16 107c-22 -37 -44 -73 -71 -107zM678 667l-370 -667h-92
l372 667h90z" />
    <glyph glyph-name="questiondown" unicode="&#xbf;" horiz-adv-x="501" 
d="M370 387c0 -59 -52 -113 -112 -113c-52 0 -88 38 -88 90c0 59 54 113 113 113c51 0 87 -40 87 -90zM263 -11h171c-6 -53 -13 -84 -44 -129c-43 -61 -118 -95 -192 -95c-115 0 -188 75 -188 190c0 92 52 180 150 207l9 65h169l-21 -160c-8 1 -17 2 -26 2
c-73 0 -104 -37 -104 -102c0 -21 2 -54 30 -54c35 0 43 50 46 76z" />
    <glyph glyph-name="Agrave" unicode="&#xc0;" horiz-adv-x="524" 
d="M491 0h-183l-3 85h-119l-25 -85h-184l240 667h217zM300 305v87c0 38 2 77 3 115c-8 -31 -14 -63 -23 -94c-18 -62 -34 -124 -53 -186h75c-1 26 -2 52 -2 78zM380 720h-98l-68 148h138z" />
    <glyph glyph-name="Aacute" unicode="&#xc1;" horiz-adv-x="524" 
d="M491 0h-183l-3 85h-119l-25 -85h-184l240 667h217zM300 305v87c0 38 2 77 3 115c-8 -31 -14 -63 -23 -94c-18 -62 -34 -124 -53 -186h75c-1 26 -2 52 -2 78zM467 868l-105 -148h-98l65 148h138z" />
    <glyph glyph-name="Acircumflex" unicode="&#xc2;" horiz-adv-x="524" 
d="M491 0h-183l-3 85h-119l-25 -85h-184l240 667h217zM300 305v87c0 38 2 77 3 115c-8 -31 -14 -63 -23 -94c-18 -62 -34 -124 -53 -186h75c-1 26 -2 52 -2 78zM356 870l124 -98l-65 -70l-71 55l-94 -57l-53 70z" />
    <glyph glyph-name="Atilde" unicode="&#xc3;" horiz-adv-x="524" 
d="M491 0h-183l-3 85h-119l-25 -85h-184l240 667h217zM300 305v87c0 38 2 77 3 115c-8 -31 -14 -63 -23 -94c-18 -62 -34 -124 -53 -186h75c-1 26 -2 52 -2 78zM413 855h88c-6 -68 -44 -133 -120 -133c-47 0 -80 33 -111 33c-21 0 -28 -17 -31 -35h-89c2 19 5 38 12 56
c17 42 56 76 103 76c50 0 81 -33 116 -33c22 0 29 17 32 36z" />
    <glyph glyph-name="Adieresis" unicode="&#xc4;" horiz-adv-x="524" 
d="M491 0h-183l-3 85h-119l-25 -85h-184l240 667h217zM300 305v87c0 38 2 77 3 115c-8 -31 -14 -63 -23 -94c-18 -62 -34 -124 -53 -186h75c-1 26 -2 52 -2 78zM503 800c0 -42 -39 -80 -81 -80c-36 0 -63 28 -63 64c0 43 37 80 80 80c37 0 64 -27 64 -64zM313 792
c0 -6 -3 -15 -5 -20c-12 -30 -43 -52 -75 -52c-37 0 -64 27 -64 64c0 43 38 80 81 80s63 -32 63 -72z" />
    <glyph glyph-name="Aring" unicode="&#xc5;" horiz-adv-x="524" 
d="M491 0h-183l-3 85h-119l-25 -85h-184l240 667h217zM300 305v87c0 38 2 77 3 115c-8 -31 -14 -63 -23 -94c-18 -62 -34 -124 -53 -186h75c-1 26 -2 52 -2 78zM238 810c0 53 43 96 96 96s96 -43 96 -96s-44 -96 -95 -96c-54 0 -97 44 -97 96zM297 810c0 -21 16 -37 37 -37
s37 16 37 37s-16 37 -37 37s-37 -16 -37 -37z" />
    <glyph glyph-name="AE" unicode="&#xc6;" horiz-adv-x="606" 
d="M630 667l-19 -157h-177l3 -97h148l-18 -151h-122l4 -102h119l-20 -160h-252l-2 85h-114l-24 -85h-184l234 667h424zM219 223h74c-1 61 -2 122 -2 184c0 33 1 66 2 99c-21 -95 -48 -189 -74 -283z" />
    <glyph glyph-name="Ccedilla" unicode="&#xc7;" horiz-adv-x="438" 
d="M461 662l-23 -190c-22 25 -42 40 -77 40c-107 0 -140 -138 -140 -223c0 -63 21 -127 95 -127c38 0 69 19 97 43l-34 -193c-39 -16 -67 -24 -109 -24c-159 0 -232 127 -232 272c0 200 109 419 335 419c36 0 55 -3 88 -17zM331 -113l-126 -124l-77 53l107 137z" />
    <glyph glyph-name="Egrave" unicode="&#xc8;" horiz-adv-x="405" 
d="M430 667l-20 -157h-152l-12 -97h137l-19 -151h-136l-13 -102h152l-19 -160h-330l82 667h330zM340 720h-98l-68 148h138z" />
    <glyph glyph-name="Eacute" unicode="&#xc9;" horiz-adv-x="405" 
d="M430 667l-20 -157h-152l-12 -97h137l-19 -151h-136l-13 -102h152l-19 -160h-330l82 667h330zM417 868l-105 -148h-98l65 148h138z" />
    <glyph glyph-name="Ecircumflex" unicode="&#xca;" horiz-adv-x="405" 
d="M430 667l-20 -157h-152l-12 -97h137l-19 -151h-136l-13 -102h152l-19 -160h-330l82 667h330zM301 870l124 -98l-65 -70l-71 55l-94 -57l-53 70z" />
    <glyph glyph-name="Edieresis" unicode="&#xcb;" horiz-adv-x="405" 
d="M430 667l-20 -157h-152l-12 -97h137l-19 -151h-136l-13 -102h152l-19 -160h-330l82 667h330zM443 800c0 -42 -39 -80 -81 -80c-36 0 -63 28 -63 64c0 43 37 80 80 80c37 0 64 -27 64 -64zM253 792c0 -6 -3 -15 -5 -20c-12 -30 -43 -52 -75 -52c-37 0 -64 27 -64 64
c0 43 38 80 81 80s63 -32 63 -72z" />
    <glyph glyph-name="Igrave" unicode="&#xcc;" horiz-adv-x="269" 
d="M277 667l-82 -667h-177l82 667h177zM255 720h-98l-68 148h138z" />
    <glyph glyph-name="Iacute" unicode="&#xcd;" horiz-adv-x="269" 
d="M277 667l-82 -667h-177l82 667h177zM322 868l-105 -148h-98l65 148h138z" />
    <glyph glyph-name="Icircumflex" unicode="&#xce;" horiz-adv-x="269" 
d="M277 667l-82 -667h-177l82 667h177zM221 870l124 -98l-65 -70l-71 55l-94 -57l-53 70z" />
    <glyph glyph-name="Idieresis" unicode="&#xcf;" horiz-adv-x="269" 
d="M277 667l-82 -667h-177l82 667h177zM368 800c0 -42 -39 -80 -81 -80c-36 0 -63 28 -63 64c0 43 37 80 80 80c37 0 64 -27 64 -64zM178 792c0 -6 -3 -15 -5 -20c-12 -30 -43 -52 -75 -52c-37 0 -64 27 -64 64c0 43 38 80 81 80s63 -32 63 -72z" />
    <glyph glyph-name="Eth" unicode="&#xd0;" horiz-adv-x="533" 
d="M103 667h153c57 0 117 -10 165 -44c70 -50 99 -141 99 -224c0 -92 -23 -194 -75 -271c-63 -95 -146 -128 -258 -128h-166l35 287h-39l14 110h39zM234 287l-16 -126c39 2 61 19 81 52c27 45 38 113 38 164c0 52 -12 124 -77 124l-13 -104h50l-14 -110h-49z" />
    <glyph glyph-name="Ntilde" unicode="&#xd1;" horiz-adv-x="554" 
d="M562 667l-82 -667h-169l-59 245c-11 46 -21 92 -28 139c-2 -35 -4 -71 -6 -106c-6 -93 -20 -185 -31 -278h-169l82 667h169l60 -234c14 -55 23 -112 35 -168c0 84 -1 168 10 252l19 150h169zM438 855h88c-6 -68 -44 -133 -120 -133c-47 0 -80 33 -111 33
c-21 0 -28 -17 -31 -35h-89c2 19 5 38 12 56c17 42 56 76 103 76c50 0 81 -33 116 -33c22 0 29 17 32 36z" />
    <glyph glyph-name="Ograve" unicode="&#xd2;" horiz-adv-x="558" 
d="M546 422c0 -64 -8 -129 -26 -191c-37 -123 -125 -243 -266 -243c-67 0 -131 34 -169 89c-37 54 -47 122 -47 186c0 63 9 127 29 187c41 119 134 229 270 229c145 0 209 -128 209 -257zM362 408c0 32 -1 103 -47 103c-53 0 -80 -115 -86 -156c-5 -29 -7 -59 -7 -89
c0 -33 1 -109 48 -109c55 0 80 119 86 161c4 30 6 60 6 90zM395 720h-98l-68 148h138z" />
    <glyph glyph-name="Oacute" unicode="&#xd3;" horiz-adv-x="558" 
d="M546 422c0 -64 -8 -129 -26 -191c-37 -123 -125 -243 -266 -243c-67 0 -131 34 -169 89c-37 54 -47 122 -47 186c0 63 9 127 29 187c41 119 134 229 270 229c145 0 209 -128 209 -257zM362 408c0 32 -1 103 -47 103c-53 0 -80 -115 -86 -156c-5 -29 -7 -59 -7 -89
c0 -33 1 -109 48 -109c55 0 80 119 86 161c4 30 6 60 6 90zM492 868l-105 -148h-98l65 148h138z" />
    <glyph glyph-name="Ocircumflex" unicode="&#xd4;" horiz-adv-x="558" 
d="M546 422c0 -64 -8 -129 -26 -191c-37 -123 -125 -243 -266 -243c-67 0 -131 34 -169 89c-37 54 -47 122 -47 186c0 63 9 127 29 187c41 119 134 229 270 229c145 0 209 -128 209 -257zM362 408c0 32 -1 103 -47 103c-53 0 -80 -115 -86 -156c-5 -29 -7 -59 -7 -89
c0 -33 1 -109 48 -109c55 0 80 119 86 161c4 30 6 60 6 90zM371 870l124 -98l-65 -70l-71 55l-94 -57l-53 70z" />
    <glyph glyph-name="Otilde" unicode="&#xd5;" horiz-adv-x="558" 
d="M546 422c0 -64 -8 -129 -26 -191c-37 -123 -125 -243 -266 -243c-67 0 -131 34 -169 89c-37 54 -47 122 -47 186c0 63 9 127 29 187c41 119 134 229 270 229c145 0 209 -128 209 -257zM362 408c0 32 -1 103 -47 103c-53 0 -80 -115 -86 -156c-5 -29 -7 -59 -7 -89
c0 -33 1 -109 48 -109c55 0 80 119 86 161c4 30 6 60 6 90zM438 855h88c-6 -68 -44 -133 -120 -133c-47 0 -80 33 -111 33c-21 0 -28 -17 -31 -35h-89c2 19 5 38 12 56c17 42 56 76 103 76c50 0 81 -33 116 -33c22 0 29 17 32 36z" />
    <glyph glyph-name="Odieresis" unicode="&#xd6;" horiz-adv-x="558" 
d="M546 422c0 -64 -8 -129 -26 -191c-37 -123 -125 -243 -266 -243c-67 0 -131 34 -169 89c-37 54 -47 122 -47 186c0 63 9 127 29 187c41 119 134 229 270 229c145 0 209 -128 209 -257zM362 408c0 32 -1 103 -47 103c-53 0 -80 -115 -86 -156c-5 -29 -7 -59 -7 -89
c0 -33 1 -109 48 -109c55 0 80 119 86 161c4 30 6 60 6 90zM518 800c0 -42 -39 -80 -81 -80c-36 0 -63 28 -63 64c0 43 37 80 80 80c37 0 64 -27 64 -64zM328 792c0 -6 -3 -15 -5 -20c-12 -30 -43 -52 -75 -52c-37 0 -64 27 -64 64c0 43 38 80 81 80s63 -32 63 -72z" />
    <glyph glyph-name="multiply" unicode="&#xd7;" 
d="M374 144l-111 111l-111 -111l-85 85l111 111l-111 111l85 85l111 -111l111 111l85 -85l-111 -111l111 -111z" />
    <glyph glyph-name="Oslash" unicode="&#xd8;" horiz-adv-x="586" 
d="M606 631l-68 -85c16 -49 22 -84 22 -135c0 -58 -8 -116 -24 -172c-39 -126 -133 -251 -277 -251c-59 0 -101 20 -143 60l-54 -68l-57 44l71 92c-20 51 -27 81 -27 136c0 59 7 119 24 176c37 128 129 251 274 251c62 0 106 -22 149 -66l51 64zM229 301l138 174
c-5 21 -18 41 -42 41c-70 0 -89 -163 -96 -215zM380 364l-138 -174c4 -22 17 -39 41 -39c71 0 92 160 97 213z" />
    <glyph glyph-name="Ugrave" unicode="&#xd9;" horiz-adv-x="537" 
d="M545 667l-58 -472c-8 -68 -30 -112 -85 -155c-46 -36 -96 -52 -155 -52c-117 0 -205 60 -205 184c0 16 1 32 3 48l55 447h177l-53 -431c-1 -11 -2 -22 -2 -33c0 -26 10 -46 39 -46c44 0 50 45 54 79l53 431h177zM394 720h-98l-68 148h138z" />
    <glyph glyph-name="Uacute" unicode="&#xda;" horiz-adv-x="537" 
d="M545 667l-58 -472c-8 -68 -30 -112 -85 -155c-46 -36 -96 -52 -155 -52c-117 0 -205 60 -205 184c0 16 1 32 3 48l55 447h177l-53 -431c-1 -11 -2 -22 -2 -33c0 -26 10 -46 39 -46c44 0 50 45 54 79l53 431h177zM461 868l-105 -148h-98l65 148h138z" />
    <glyph glyph-name="Ucircumflex" unicode="&#xdb;" horiz-adv-x="537" 
d="M545 667l-58 -472c-8 -68 -30 -112 -85 -155c-46 -36 -96 -52 -155 -52c-117 0 -205 60 -205 184c0 16 1 32 3 48l55 447h177l-53 -431c-1 -11 -2 -22 -2 -33c0 -26 10 -46 39 -46c44 0 50 45 54 79l53 431h177zM356 870l124 -98l-65 -70l-71 55l-94 -57l-53 70z" />
    <glyph glyph-name="Udieresis" unicode="&#xdc;" horiz-adv-x="537" 
d="M545 667l-58 -472c-8 -68 -30 -112 -85 -155c-46 -36 -96 -52 -155 -52c-117 0 -205 60 -205 184c0 16 1 32 3 48l55 447h177l-53 -431c-1 -11 -2 -22 -2 -33c0 -26 10 -46 39 -46c44 0 50 45 54 79l53 431h177zM503 800c0 -42 -39 -80 -81 -80c-36 0 -63 28 -63 64
c0 43 37 80 80 80c37 0 64 -27 64 -64zM313 792c0 -6 -3 -15 -5 -20c-12 -30 -43 -52 -75 -52c-37 0 -64 27 -64 64c0 43 38 80 81 80s63 -32 63 -72z" />
    <glyph glyph-name="Yacute" unicode="&#xdd;" horiz-adv-x="493" 
d="M547 667l-200 -385l-35 -282h-177l35 282l-116 385h185c14 -68 29 -137 37 -206c26 70 57 138 87 206h184zM452 868l-105 -148h-98l65 148h138z" />
    <glyph glyph-name="Thorn" unicode="&#xde;" horiz-adv-x="498" 
d="M277 667l-11 -93c47 -1 94 -5 137 -26c66 -32 95 -96 95 -167c0 -69 -24 -140 -73 -190c-51 -52 -115 -66 -186 -66h-28l-16 -125h-177l82 667h177zM229 275h9c49 0 80 40 80 87c0 36 -19 66 -58 66c-4 0 -8 0 -12 -1z" />
    <glyph glyph-name="germandbls" unicode="&#xdf;" horiz-adv-x="518" 
d="M40 467h47c5 44 10 88 27 129c35 84 122 145 214 145c97 0 179 -69 179 -169c0 -70 -36 -145 -108 -163c23 -3 38 -7 55 -24c30 -30 41 -78 41 -119c0 -61 -27 -135 -66 -182c-48 -58 -111 -82 -185 -84l17 143c49 13 57 80 57 122c0 25 -2 59 -34 62l17 140
c34 3 42 49 42 76c0 22 -7 43 -33 43c-35 0 -42 -35 -45 -63l-64 -523h-171l40 327h-47z" />
    <glyph glyph-name="agrave" unicode="&#xe0;" horiz-adv-x="489" 
d="M479 467l-57 -467h-171c5 26 10 53 15 79c-30 -50 -68 -89 -130 -89c-92 0 -113 104 -113 177c0 43 4 86 14 128c19 80 70 182 165 182c57 0 81 -36 99 -84c1 25 3 49 4 74h174zM282 288c0 19 -3 46 -28 46c-48 0 -59 -111 -59 -146c0 -22 2 -55 31 -55
c47 0 56 121 56 155zM345 530h-98l-68 148h138z" />
    <glyph glyph-name="aacute" unicode="&#xe1;" horiz-adv-x="489" 
d="M479 467l-57 -467h-171c5 26 10 53 15 79c-30 -50 -68 -89 -130 -89c-92 0 -113 104 -113 177c0 43 4 86 14 128c19 80 70 182 165 182c57 0 81 -36 99 -84c1 25 3 49 4 74h174zM282 288c0 19 -3 46 -28 46c-48 0 -59 -111 -59 -146c0 -22 2 -55 31 -55
c47 0 56 121 56 155zM412 678l-105 -148h-98l65 148h138z" />
    <glyph glyph-name="acircumflex" unicode="&#xe2;" horiz-adv-x="489" 
d="M479 467l-57 -467h-171c5 26 10 53 15 79c-30 -50 -68 -89 -130 -89c-92 0 -113 104 -113 177c0 43 4 86 14 128c19 80 70 182 165 182c57 0 81 -36 99 -84c1 25 3 49 4 74h174zM282 288c0 19 -3 46 -28 46c-48 0 -59 -111 -59 -146c0 -22 2 -55 31 -55
c47 0 56 121 56 155zM326 690l116 -117l-64 -63l-65 66l-90 -70l-53 67z" />
    <glyph glyph-name="atilde" unicode="&#xe3;" horiz-adv-x="489" 
d="M479 467l-57 -467h-171c5 26 10 53 15 79c-30 -50 -68 -89 -130 -89c-92 0 -113 104 -113 177c0 43 4 86 14 128c19 80 70 182 165 182c57 0 81 -36 99 -84c1 25 3 49 4 74h174zM282 288c0 19 -3 46 -28 46c-48 0 -59 -111 -59 -146c0 -22 2 -55 31 -55
c47 0 56 121 56 155zM398 665h88c-6 -68 -44 -133 -120 -133c-47 0 -80 33 -111 33c-21 0 -28 -17 -31 -35h-89c2 19 5 38 12 56c17 42 56 76 103 76c50 0 81 -33 116 -33c22 0 29 17 32 36z" />
    <glyph glyph-name="adieresis" unicode="&#xe4;" horiz-adv-x="489" 
d="M479 467l-57 -467h-171c5 26 10 53 15 79c-30 -50 -68 -89 -130 -89c-92 0 -113 104 -113 177c0 43 4 86 14 128c19 80 70 182 165 182c57 0 81 -36 99 -84c1 25 3 49 4 74h174zM282 288c0 19 -3 46 -28 46c-48 0 -59 -111 -59 -146c0 -22 2 -55 31 -55
c47 0 56 121 56 155zM478 610c0 -42 -39 -80 -81 -80c-36 0 -63 28 -63 64c0 43 37 80 80 80c37 0 64 -27 64 -64zM288 602c0 -6 -3 -15 -5 -20c-12 -30 -43 -52 -75 -52c-37 0 -64 27 -64 64c0 43 38 80 81 80s63 -32 63 -72z" />
    <glyph glyph-name="aring" unicode="&#xe5;" horiz-adv-x="489" 
d="M479 467l-57 -467h-171c5 26 10 53 15 79c-30 -50 -68 -89 -130 -89c-92 0 -113 104 -113 177c0 43 4 86 14 128c19 80 70 182 165 182c57 0 81 -36 99 -84c1 25 3 49 4 74h174zM282 288c0 19 -3 46 -28 46c-48 0 -59 -111 -59 -146c0 -22 2 -55 31 -55
c47 0 56 121 56 155zM188 619c0 53 43 96 96 96s96 -43 96 -96s-43 -96 -96 -96s-96 43 -96 96zM247 619c0 -21 16 -37 37 -37s37 16 37 37s-16 37 -37 37s-37 -16 -37 -37z" />
    <glyph glyph-name="ae" unicode="&#xe6;" horiz-adv-x="724" 
d="M88 321l17 135c46 12 93 21 140 21c53 0 95 -8 135 -46c43 29 85 46 138 46c121 0 183 -87 183 -201c0 -26 -4 -52 -8 -78h-252c0 -6 -1 -12 -1 -18c0 -24 5 -62 37 -62c21 0 35 18 43 35l161 -3c-20 -53 -41 -92 -90 -124c-42 -27 -86 -36 -135 -36
c-52 0 -91 13 -130 48c-45 -29 -100 -48 -154 -48c-85 0 -156 51 -156 141c0 108 83 170 186 170c29 0 58 -4 86 -10c-1 48 -44 57 -83 57c-42 0 -79 -9 -117 -27zM453 291h86c0 24 -3 65 -36 65c-34 0 -44 -38 -50 -65zM273 156c0 24 -19 35 -41 35c-26 0 -50 -20 -50 -47
c0 -25 18 -35 41 -35c28 0 50 18 50 47z" />
    <glyph glyph-name="ccedilla" unicode="&#xe7;" horiz-adv-x="298" 
d="M309 475l-19 -152c-56 -4 -87 -44 -87 -98c0 -33 17 -73 55 -73h11l-19 -159c-15 -2 -31 -3 -46 -3c-123 0 -179 98 -179 210c0 140 102 277 250 277c11 0 23 -1 34 -2zM248 -106l-126 -117l-71 54l102 122z" />
    <glyph glyph-name="egrave" unicode="&#xe8;" horiz-adv-x="474" 
d="M266 157h166c-35 -106 -114 -167 -225 -167c-120 0 -184 74 -184 191c0 144 90 295 248 295c120 0 180 -87 180 -200c0 -27 -4 -53 -8 -79h-250c-1 -6 -1 -13 -1 -19c0 -22 3 -53 32 -53c20 0 36 15 42 32zM207 290h79c0 4 1 8 1 12c0 22 -8 47 -34 47
c-30 0 -43 -34 -46 -59zM347 530h-98l-68 148h138z" />
    <glyph glyph-name="eacute" unicode="&#xe9;" horiz-adv-x="474" 
d="M266 157h166c-35 -106 -114 -167 -225 -167c-120 0 -184 74 -184 191c0 144 90 295 248 295c120 0 180 -87 180 -200c0 -27 -4 -53 -8 -79h-250c-1 -6 -1 -13 -1 -19c0 -22 3 -53 32 -53c20 0 36 15 42 32zM207 290h79c0 4 1 8 1 12c0 22 -8 47 -34 47
c-30 0 -43 -34 -46 -59zM424 678l-105 -148h-98l65 148h138z" />
    <glyph glyph-name="ecircumflex" unicode="&#xea;" horiz-adv-x="474" 
d="M266 157h166c-35 -106 -114 -167 -225 -167c-120 0 -184 74 -184 191c0 144 90 295 248 295c120 0 180 -87 180 -200c0 -27 -4 -53 -8 -79h-250c-1 -6 -1 -13 -1 -19c0 -22 3 -53 32 -53c20 0 36 15 42 32zM207 290h79c0 4 1 8 1 12c0 22 -8 47 -34 47
c-30 0 -43 -34 -46 -59zM311 690l116 -117l-64 -63l-65 66l-90 -70l-53 67z" />
    <glyph glyph-name="edieresis" unicode="&#xeb;" horiz-adv-x="474" 
d="M266 157h166c-35 -106 -114 -167 -225 -167c-120 0 -184 74 -184 191c0 144 90 295 248 295c120 0 180 -87 180 -200c0 -27 -4 -53 -8 -79h-250c-1 -6 -1 -13 -1 -19c0 -22 3 -53 32 -53c20 0 36 15 42 32zM207 290h79c0 4 1 8 1 12c0 22 -8 47 -34 47
c-30 0 -43 -34 -46 -59zM450 610c0 -42 -39 -80 -81 -80c-36 0 -63 28 -63 64c0 43 37 80 80 80c37 0 64 -27 64 -64zM260 602c0 -6 -3 -15 -5 -20c-12 -30 -43 -52 -75 -52c-37 0 -64 27 -64 64c0 43 38 80 81 80s63 -32 63 -72z" />
    <glyph glyph-name="igrave" unicode="&#xec;" horiz-adv-x="249" 
d="M239 467l-57 -467h-171l58 467h170zM225 530h-98l-68 148h138z" />
    <glyph glyph-name="iacute" unicode="&#xed;" horiz-adv-x="249" 
d="M239 467l-57 -467h-171l58 467h170zM292 678l-105 -148h-98l65 148h138z" />
    <glyph glyph-name="icircumflex" unicode="&#xee;" horiz-adv-x="249" 
d="M239 467l-57 -467h-171l58 467h170zM186 690l116 -117l-64 -63l-65 66l-90 -70l-53 67z" />
    <glyph glyph-name="idieresis" unicode="&#xef;" horiz-adv-x="249" 
d="M239 467l-57 -467h-171l58 467h170zM328 610c0 -42 -39 -80 -81 -80c-36 0 -63 28 -63 64c0 43 37 80 80 80c37 0 64 -27 64 -64zM138 602c0 -6 -3 -15 -5 -20c-12 -30 -43 -52 -75 -52c-37 0 -64 27 -64 64c0 43 38 80 81 80s63 -32 63 -72z" />
    <glyph glyph-name="eth" unicode="&#xf0;" horiz-adv-x="481" 
d="M416 663l-70 -37c79 -78 115 -195 115 -305c0 -79 -14 -174 -63 -238c-46 -60 -109 -93 -185 -93c-126 0 -189 78 -189 200c0 141 84 283 238 286c-8 37 -19 64 -34 88l-96 -54l-33 70l78 43c-24 18 -50 35 -77 48l52 69c44 -13 91 -35 128 -62l98 53zM291 268
c0 24 -4 77 -38 77c-49 0 -64 -114 -64 -148c0 -23 4 -77 37 -77c50 0 65 113 65 148z" />
    <glyph glyph-name="ntilde" unicode="&#xf1;" horiz-adv-x="483" 
d="M69 467h170c-5 -30 -9 -59 -15 -89c28 52 70 99 134 99c66 0 100 -55 100 -116c0 -14 -1 -29 -3 -43l-39 -318h-171l31 247c1 9 2 17 2 26c0 15 -5 31 -23 31c-33 0 -41 -44 -44 -69l-29 -235h-171zM375 665h88c-6 -68 -44 -133 -120 -133c-47 0 -80 33 -111 33
c-21 0 -28 -17 -31 -35h-89c2 19 5 38 12 56c17 42 56 76 103 76c50 0 81 -33 116 -33c22 0 29 17 32 36z" />
    <glyph glyph-name="ograve" unicode="&#xf2;" horiz-adv-x="480" 
d="M456 280c0 -153 -81 -290 -248 -290c-124 0 -184 82 -184 200c0 145 88 287 246 287c121 0 186 -80 186 -197zM291 269c0 24 -3 77 -37 77c-49 0 -64 -112 -64 -148c0 -24 4 -77 37 -77c49 0 64 112 64 148zM330 530h-98l-68 148h138z" />
    <glyph glyph-name="oacute" unicode="&#xf3;" horiz-adv-x="480" 
d="M456 280c0 -153 -81 -290 -248 -290c-124 0 -184 82 -184 200c0 145 88 287 246 287c121 0 186 -80 186 -197zM291 269c0 24 -3 77 -37 77c-49 0 -64 -112 -64 -148c0 -24 4 -77 37 -77c49 0 64 112 64 148zM437 678l-105 -148h-98l65 148h138z" />
    <glyph glyph-name="ocircumflex" unicode="&#xf4;" horiz-adv-x="480" 
d="M456 280c0 -153 -81 -290 -248 -290c-124 0 -184 82 -184 200c0 145 88 287 246 287c121 0 186 -80 186 -197zM291 269c0 24 -3 77 -37 77c-49 0 -64 -112 -64 -148c0 -24 4 -77 37 -77c49 0 64 112 64 148zM311 690l116 -117l-64 -63l-65 66l-90 -70l-53 67z" />
    <glyph glyph-name="otilde" unicode="&#xf5;" horiz-adv-x="480" 
d="M456 280c0 -153 -81 -290 -248 -290c-124 0 -184 82 -184 200c0 145 88 287 246 287c121 0 186 -80 186 -197zM291 269c0 24 -3 77 -37 77c-49 0 -64 -112 -64 -148c0 -24 4 -77 37 -77c49 0 64 112 64 148zM373 665h88c-6 -68 -44 -133 -120 -133c-47 0 -80 33 -111 33
c-21 0 -28 -17 -31 -35h-89c2 19 5 38 12 56c17 42 56 76 103 76c50 0 81 -33 116 -33c22 0 29 17 32 36z" />
    <glyph glyph-name="odieresis" unicode="&#xf6;" horiz-adv-x="480" 
d="M456 280c0 -153 -81 -290 -248 -290c-124 0 -184 82 -184 200c0 145 88 287 246 287c121 0 186 -80 186 -197zM291 269c0 24 -3 77 -37 77c-49 0 -64 -112 -64 -148c0 -24 4 -77 37 -77c49 0 64 112 64 148zM453 610c0 -42 -39 -80 -81 -80c-36 0 -63 28 -63 64
c0 43 37 80 80 80c37 0 64 -27 64 -64zM263 602c0 -6 -3 -15 -5 -20c-12 -30 -43 -52 -75 -52c-37 0 -64 27 -64 64c0 43 38 80 81 80s63 -32 63 -72z" />
    <glyph glyph-name="divide" unicode="&#xf7;" 
d="M338 510c0 -40 -34 -74 -74 -74c-41 0 -75 33 -75 74s33 74 74 74s75 -32 75 -74zM480 280h-433v120h433v-120zM338 170c0 -40 -34 -74 -74 -74c-41 0 -75 33 -75 74s33 74 74 74s75 -32 75 -74z" />
    <glyph glyph-name="oslash" unicode="&#xf8;" horiz-adv-x="480" 
d="M484 472l-58 -72c24 -39 31 -81 31 -126c0 -150 -87 -284 -249 -284c-40 0 -60 3 -96 21l-54 -67l-60 48l58 73c-24 40 -32 79 -32 125c0 143 89 287 245 287c36 0 68 -7 100 -24l54 66zM291 269c0 24 -3 77 -37 77c-49 0 -64 -112 -64 -148c0 -24 4 -77 37 -77
c49 0 64 112 64 148z" />
    <glyph glyph-name="ugrave" unicode="&#xf9;" horiz-adv-x="492" 
d="M482 467l-35 -287c-8 -65 -29 -110 -85 -147c-43 -28 -94 -43 -145 -43c-95 0 -186 48 -186 154c0 12 2 24 3 36l35 287h170l-32 -263c-1 -12 -3 -23 -3 -35c0 -21 9 -34 31 -34c38 0 41 41 44 69l32 263h171zM325 530h-98l-68 148h138z" />
    <glyph glyph-name="uacute" unicode="&#xfa;" horiz-adv-x="492" 
d="M482 467l-35 -287c-8 -65 -29 -110 -85 -147c-43 -28 -94 -43 -145 -43c-95 0 -186 48 -186 154c0 12 2 24 3 36l35 287h170l-32 -263c-1 -12 -3 -23 -3 -35c0 -21 9 -34 31 -34c38 0 41 41 44 69l32 263h171zM422 678l-105 -148h-98l65 148h138z" />
    <glyph glyph-name="ucircumflex" unicode="&#xfb;" horiz-adv-x="492" 
d="M482 467l-35 -287c-8 -65 -29 -110 -85 -147c-43 -28 -94 -43 -145 -43c-95 0 -186 48 -186 154c0 12 2 24 3 36l35 287h170l-32 -263c-1 -12 -3 -23 -3 -35c0 -21 9 -34 31 -34c38 0 41 41 44 69l32 263h171zM307 690l116 -117l-64 -63l-65 66l-90 -70l-53 67z" />
    <glyph glyph-name="udieresis" unicode="&#xfc;" horiz-adv-x="492" 
d="M482 467l-35 -287c-8 -65 -29 -110 -85 -147c-43 -28 -94 -43 -145 -43c-95 0 -186 48 -186 154c0 12 2 24 3 36l35 287h170l-32 -263c-1 -12 -3 -23 -3 -35c0 -21 9 -34 31 -34c38 0 41 41 44 69l32 263h171zM459 610c0 -42 -39 -80 -81 -80c-36 0 -63 28 -63 64
c0 43 37 80 80 80c37 0 64 -27 64 -64zM269 602c0 -6 -3 -15 -5 -20c-12 -30 -43 -52 -75 -52c-37 0 -64 27 -64 64c0 43 38 80 81 80s63 -32 63 -72z" />
    <glyph glyph-name="yacute" unicode="&#xfd;" horiz-adv-x="458" 
d="M487 467l-301 -682h-176l110 234l-82 448h172c9 -78 22 -156 22 -235c0 -10 -1 -20 -1 -30c15 55 28 111 48 164l38 101h170zM412 678l-105 -148h-98l65 148h138z" />
    <glyph glyph-name="thorn" unicode="&#xfe;" horiz-adv-x="490" 
d="M275 729l-32 -262c-3 -22 -8 -44 -13 -66c28 44 60 76 115 76c98 0 123 -109 123 -187c0 -104 -44 -300 -178 -300c-53 0 -78 28 -101 73c-5 -91 -18 -181 -32 -278h-171l118 944h171zM291 270c0 19 -2 64 -30 64c-44 0 -54 -106 -54 -135c0 -18 2 -63 28 -63
c44 0 56 104 56 134z" />
    <glyph glyph-name="ydieresis" unicode="&#xff;" horiz-adv-x="458" 
d="M487 467l-301 -682h-176l110 234l-82 448h172c9 -78 22 -156 22 -235c0 -10 -1 -20 -1 -30c15 55 28 111 48 164l38 101h170zM438 610c0 -42 -39 -80 -81 -80c-36 0 -63 28 -63 64c0 43 37 80 80 80c37 0 64 -27 64 -64zM248 602c0 -6 -3 -15 -5 -20
c-12 -30 -43 -52 -75 -52c-37 0 -64 27 -64 64c0 43 38 80 81 80s63 -32 63 -72z" />
    <glyph glyph-name="Amacron" unicode="&#x100;" horiz-adv-x="524" 
d="M491 0h-183l-3 85h-119l-25 -85h-184l240 667h217zM300 305v87c0 38 2 77 3 115c-8 -31 -14 -63 -23 -94c-18 -62 -34 -124 -53 -186h75c-1 26 -2 52 -2 78zM504 837l-12 -94h-335l12 94h335z" />
    <glyph glyph-name="amacron" unicode="&#x101;" horiz-adv-x="489" 
d="M479 467l-57 -467h-171c5 26 10 53 15 79c-30 -50 -68 -89 -130 -89c-92 0 -113 104 -113 177c0 43 4 86 14 128c19 80 70 182 165 182c57 0 81 -36 99 -84c1 25 3 49 4 74h174zM282 288c0 19 -3 46 -28 46c-48 0 -59 -111 -59 -146c0 -22 2 -55 31 -55
c47 0 56 121 56 155zM469 647l-12 -94h-335l12 94h335z" />
    <glyph glyph-name="Abreve" unicode="&#x102;" horiz-adv-x="524" 
d="M491 0h-183l-3 85h-119l-25 -85h-184l240 667h217zM300 305v87c0 38 2 77 3 115c-8 -31 -14 -63 -23 -94c-18 -62 -34 -124 -53 -186h75c-1 26 -2 52 -2 78zM438 866h69c-19 -89 -83 -148 -176 -148c-79 0 -140 49 -140 131v17h69c12 -45 39 -53 82 -53c47 0 74 10 96 53
z" />
    <glyph glyph-name="abreve" unicode="&#x103;" horiz-adv-x="489" 
d="M479 467l-57 -467h-171c5 26 10 53 15 79c-30 -50 -68 -89 -130 -89c-92 0 -113 104 -113 177c0 43 4 86 14 128c19 80 70 182 165 182c57 0 81 -36 99 -84c1 25 3 49 4 74h174zM282 288c0 19 -3 46 -28 46c-48 0 -59 -111 -59 -146c0 -22 2 -55 31 -55
c47 0 56 121 56 155zM398 669h69c-19 -89 -83 -148 -176 -148c-79 0 -140 49 -140 131v17h69c12 -45 39 -53 82 -53c47 0 74 10 96 53z" />
    <glyph glyph-name="Aogonek" unicode="&#x104;" horiz-adv-x="524" 
d="M217 667h217l57 -667h-60c-10 -11 -17 -22 -24 -36c-5 -10 -9 -20 -9 -35c0 -7 2 -15 8 -22s17 -10 27 -10c11 0 27 5 36 9l-17 -77c-19 -8 -38 -12 -60 -12c-31 0 -53 9 -67 21c-7 6 -23 23 -23 55c0 16 4 40 22 64c10 13 30 32 43 43h-59l-3 85h-119l-25 -85h-184z
M300 305v87c0 29 2 81 3 115c-13 -59 -22 -95 -36 -140c-8 -26 -14 -50 -40 -140h75z" />
    <glyph glyph-name="aogonek" unicode="&#x105;" horiz-adv-x="489" 
d="M479 467l-57 -467h-52c-4 -5 -18 -24 -23 -34s-10 -22 -10 -34c0 -9 3 -17 10 -23c4 -4 12 -8 24 -8s25 4 35 9l-17 -73c-14 -6 -35 -12 -61 -12c-17 0 -46 3 -66 24c-12 13 -19 31 -19 52s7 40 20 58c10 14 28 30 43 41h-55l15 79c-9 -16 -21 -32 -35 -47
c-23 -24 -51 -42 -92 -42c-31 0 -54 9 -73 30c-16 17 -43 59 -43 153c0 93 26 204 84 262c31 31 65 42 95 42c23 0 45 -6 64 -24c15 -14 29 -39 35 -60l4 74h174zM254 334c-6 0 -15 -2 -24 -11c-13 -13 -22 -39 -26 -58c-6 -24 -9 -57 -9 -80c0 -12 0 -32 12 -44
c5 -5 12 -8 19 -8c9 0 16 5 22 11c8 8 19 26 27 69c4 21 7 48 7 73c0 24 -4 36 -11 42c-4 4 -11 6 -17 6z" />
    <glyph glyph-name="Cacute" unicode="&#x106;" horiz-adv-x="438" 
d="M461 662l-23 -190c-22 25 -42 40 -77 40c-107 0 -140 -138 -140 -223c0 -63 21 -127 95 -127c38 0 69 19 97 43l-34 -193c-39 -16 -67 -24 -109 -24c-159 0 -232 127 -232 272c0 200 109 419 335 419c36 0 55 -3 88 -17zM517 868l-105 -148h-98l65 148h138z" />
    <glyph glyph-name="cacute" unicode="&#x107;" horiz-adv-x="298" 
d="M309 475l-19 -152c-56 -4 -87 -44 -87 -98c0 -33 17 -73 55 -73h11l-19 -159c-15 -2 -31 -3 -46 -3c-123 0 -179 98 -179 210c0 140 102 277 250 277c11 0 23 -1 34 -2zM407 678l-105 -148h-98l65 148h138z" />
    <glyph glyph-name="Ccircumflex" unicode="&#x108;" horiz-adv-x="438" 
d="M461 662l-23 -190c-22 25 -42 40 -77 40c-107 0 -140 -138 -140 -223c0 -63 21 -127 95 -127c38 0 69 19 97 43l-34 -193c-39 -16 -67 -24 -109 -24c-159 0 -232 127 -232 272c0 200 109 419 335 419c36 0 55 -3 88 -17zM396 870l124 -98l-65 -70l-71 55l-94 -57l-53 70z
" />
    <glyph glyph-name="ccircumflex" unicode="&#x109;" horiz-adv-x="298" 
d="M309 475l-19 -152c-56 -4 -87 -44 -87 -98c0 -33 17 -73 55 -73h11l-19 -159c-15 -2 -31 -3 -46 -3c-123 0 -179 98 -179 210c0 140 102 277 250 277c11 0 23 -1 34 -2zM261 690l116 -117l-64 -63l-65 66l-90 -70l-53 67z" />
    <glyph glyph-name="Cdotaccent" unicode="&#x10a;" horiz-adv-x="438" 
d="M461 662l-23 -190c-22 25 -42 40 -77 40c-107 0 -140 -138 -140 -223c0 -63 21 -127 95 -127c38 0 69 19 97 43l-34 -193c-39 -16 -67 -24 -109 -24c-159 0 -232 127 -232 272c0 200 109 419 335 419c36 0 55 -3 88 -17zM463 796c0 -6 -3 -16 -6 -21
c-12 -32 -44 -55 -78 -55c-38 0 -67 29 -67 67c0 45 39 84 84 84c46 0 67 -32 67 -75z" />
    <glyph glyph-name="cdotaccent" unicode="&#x10b;" horiz-adv-x="298" 
d="M309 475l-19 -152c-56 -4 -87 -44 -87 -98c0 -33 17 -73 55 -73h11l-19 -159c-15 -2 -31 -3 -46 -3c-123 0 -179 98 -179 210c0 140 102 277 250 277c11 0 23 -1 34 -2zM355 606c0 -6 -3 -16 -6 -21c-12 -32 -44 -55 -78 -55c-38 0 -67 29 -67 67c0 45 39 84 84 84
c46 0 67 -32 67 -75z" />
    <glyph glyph-name="Ccaron" unicode="&#x10c;" horiz-adv-x="438" 
d="M461 662l-23 -190c-22 25 -42 40 -77 40c-107 0 -140 -138 -140 -223c0 -63 21 -127 95 -127c38 0 69 19 97 43l-34 -193c-39 -16 -67 -24 -109 -24c-159 0 -232 127 -232 272c0 200 109 419 335 419c36 0 55 -3 88 -17zM536 802l-166 -98l-121 103l71 63l70 -58l92 56z
" />
    <glyph glyph-name="ccaron" unicode="&#x10d;" horiz-adv-x="298" 
d="M309 475l-19 -152c-56 -4 -87 -44 -87 -98c0 -33 17 -73 55 -73h11l-19 -159c-15 -2 -31 -3 -46 -3c-123 0 -179 98 -179 210c0 140 102 277 250 277c11 0 23 -1 34 -2zM410 623l-159 -112l-118 118l71 61l64 -65l87 65z" />
    <glyph glyph-name="Dcaron" unicode="&#x10e;" horiz-adv-x="529" 
d="M100 667h153c169 0 264 -102 264 -269c0 -91 -24 -194 -75 -270c-64 -95 -145 -128 -258 -128h-166zM257 500l-42 -339c96 5 119 140 119 215c0 52 -10 124 -77 124zM456 802l-166 -98l-121 103l71 63l70 -58l92 56z" />
    <glyph glyph-name="dcaron" unicode="&#x10f;" horiz-adv-x="717" 
d="M511 729l-89 -729h-174c1 21 8 42 11 63c-30 -40 -61 -73 -114 -73c-97 0 -123 94 -123 174c0 43 4 87 14 129c20 81 71 184 167 184c55 0 80 -31 100 -78c7 111 24 220 38 330h170zM288 274c0 19 -2 59 -29 59c-48 0 -58 -101 -58 -136c0 -21 6 -58 33 -58
c45 0 54 103 54 135zM727 667l-100 -221h-104l58 221h146z" />
    <glyph glyph-name="Dcroat" unicode="&#x110;" horiz-adv-x="533" 
d="M103 667h153c57 0 117 -10 165 -44c70 -50 99 -141 99 -224c0 -92 -23 -194 -75 -271c-63 -95 -146 -128 -258 -128h-166l35 287h-39l14 110h39zM234 287l-16 -126c39 2 61 19 81 52c27 45 38 113 38 164c0 52 -12 124 -77 124l-13 -104h50l-14 -110h-49z" />
    <glyph glyph-name="dcroat" unicode="&#x111;" horiz-adv-x="518" 
d="M511 729l-15 -125h55l-14 -105h-54l-61 -499h-174l11 63c-10 -15 -30 -38 -46 -50s-39 -23 -68 -23c-36 0 -64 15 -85 43c-37 49 -38 119 -38 146c0 74 30 169 80 217c21 20 53 39 95 39c23 0 43 -5 63 -19c14 -10 29 -25 40 -47c1 39 4 49 7 78l6 52h-120l14 105h118
l16 125h170zM257 307c-5 0 -14 -2 -22 -9c-23 -20 -34 -76 -34 -113c0 -16 2 -37 13 -48c5 -4 11 -8 18 -8c9 0 16 4 21 9c25 24 34 86 34 113c0 11 -1 35 -12 48c-5 5 -11 8 -18 8z" />
    <glyph glyph-name="Emacron" unicode="&#x112;" horiz-adv-x="405" 
d="M430 667l-20 -157h-152l-12 -97h137l-19 -151h-136l-13 -102h152l-19 -160h-330l82 667h330zM449 837l-12 -94h-335l12 94h335z" />
    <glyph glyph-name="emacron" unicode="&#x113;" horiz-adv-x="474" 
d="M266 157h166c-35 -106 -114 -167 -225 -167c-120 0 -184 74 -184 191c0 144 90 295 248 295c120 0 180 -87 180 -200c0 -27 -4 -53 -8 -79h-250c-1 -6 -1 -13 -1 -19c0 -22 3 -53 32 -53c20 0 36 15 42 32zM207 290h79c0 4 1 8 1 12c0 22 -8 47 -34 47
c-30 0 -43 -34 -46 -59zM456 647l-12 -94h-335l12 94h335z" />
    <glyph glyph-name="Edotaccent" unicode="&#x116;" horiz-adv-x="405" 
d="M430 667l-20 -157h-152l-12 -97h137l-19 -151h-136l-13 -102h152l-19 -160h-330l82 667h330zM352 796c0 -6 -3 -16 -6 -21c-12 -32 -44 -55 -78 -55c-38 0 -67 29 -67 67c0 45 39 84 84 84c46 0 67 -32 67 -75z" />
    <glyph glyph-name="edotaccent" unicode="&#x117;" horiz-adv-x="474" 
d="M266 157h166c-35 -106 -114 -167 -225 -167c-120 0 -184 74 -184 191c0 144 90 295 248 295c120 0 180 -87 180 -200c0 -27 -4 -53 -8 -79h-250c-1 -6 -1 -13 -1 -19c0 -22 3 -53 32 -53c20 0 36 15 42 32zM207 290h79c0 4 1 8 1 12c0 22 -8 47 -34 47
c-30 0 -43 -34 -46 -59zM359 606c0 -6 -3 -16 -6 -21c-12 -32 -44 -55 -78 -55c-38 0 -67 29 -67 67c0 45 39 84 84 84c46 0 67 -32 67 -75z" />
    <glyph glyph-name="Eogonek" unicode="&#x118;" horiz-adv-x="405" 
d="M430 667l-20 -157h-152l-12 -97h137l-19 -151h-136l-13 -102h152l-19 -160h-52c-10 -11 -17 -22 -24 -36c-5 -10 -9 -20 -9 -35c0 -7 2 -15 8 -22s17 -10 27 -10c11 0 27 5 36 9l-17 -77c-19 -8 -38 -12 -60 -12c-31 0 -53 9 -67 21c-7 6 -23 23 -23 55c0 16 4 40 22 64
c10 13 30 32 43 43h-214l82 667h330z" />
    <glyph glyph-name="eogonek" unicode="&#x119;" horiz-adv-x="474" 
d="M266 157h166c-10 -31 -25 -60 -51 -89c-18 -20 -39 -38 -65 -59c-23 -19 -37 -31 -45 -43c-7 -10 -11 -22 -11 -34c0 -9 3 -17 10 -23c4 -4 12 -8 24 -8s25 4 35 9l-17 -73c-14 -6 -35 -12 -61 -12c-17 0 -46 3 -66 24c-12 13 -19 31 -19 52s7 39 20 58
c11 16 23 25 34 32c-8 -1 -16 -1 -24 -1c-56 0 -95 22 -121 48c-43 43 -52 99 -52 143c0 93 37 177 90 230c42 41 92 65 158 65c57 0 97 -20 123 -45c36 -35 57 -91 57 -155c0 -28 -5 -62 -8 -79h-250c-1 -5 -1 -12 -1 -19c0 -18 3 -37 12 -46c5 -4 13 -7 20 -7
c9 0 17 3 25 9s13 14 17 23zM207 290h79c1 4 1 9 1 13c0 13 -3 27 -10 35c-4 5 -12 11 -24 11c-11 0 -20 -5 -26 -11c-12 -12 -19 -34 -20 -48z" />
    <glyph glyph-name="Ecaron" unicode="&#x11a;" horiz-adv-x="405" 
d="M430 667l-20 -157h-152l-12 -97h137l-19 -151h-136l-13 -102h152l-19 -160h-330l82 667h330zM431 802l-166 -98l-121 103l71 63l70 -58l92 56z" />
    <glyph glyph-name="ecaron" unicode="&#x11b;" horiz-adv-x="474" 
d="M266 157h166c-35 -106 -114 -167 -225 -167c-120 0 -184 74 -184 191c0 144 90 295 248 295c120 0 180 -87 180 -200c0 -27 -4 -53 -8 -79h-250c-1 -6 -1 -13 -1 -19c0 -22 3 -53 32 -53c20 0 36 15 42 32zM207 290h79c0 4 1 8 1 12c0 22 -8 47 -34 47
c-30 0 -43 -34 -46 -59zM427 623l-159 -112l-118 118l71 61l64 -65l87 65z" />
    <glyph glyph-name="Gcircumflex" unicode="&#x11c;" horiz-adv-x="552" 
d="M543 514l-180 -64c0 28 -8 68 -44 68c-54 0 -72 -75 -82 -116c-12 -53 -21 -107 -21 -161c0 -37 3 -93 53 -93c48 0 68 58 73 97h-65l17 140h247c-5 -50 -12 -99 -24 -148c-32 -135 -112 -249 -264 -249c-158 0 -216 125 -216 265c0 60 7 119 24 177
c38 130 130 249 277 249c109 0 175 -64 205 -165zM386 870l124 -98l-65 -70l-71 55l-94 -57l-53 70z" />
    <glyph glyph-name="gcircumflex" unicode="&#x11d;" horiz-adv-x="485" 
d="M475 467l-59 -479c-6 -48 -17 -91 -49 -128c-45 -52 -116 -75 -183 -75c-117 0 -183 47 -185 169h174c0 -21 8 -38 31 -38c38 0 44 36 48 66c3 23 6 47 9 72c-28 -34 -68 -61 -114 -61c-94 0 -124 104 -124 181c0 41 5 82 15 122c21 78 75 181 168 181
c44 0 73 -36 93 -71l4 61h172zM284 279c0 19 0 57 -27 57c-46 0 -55 -104 -55 -137c0 -20 2 -63 30 -63c44 0 52 111 52 143zM321 690l116 -117l-64 -63l-65 66l-90 -70l-53 67z" />
    <glyph glyph-name="Gbreve" unicode="&#x11e;" horiz-adv-x="552" 
d="M543 514l-180 -64c0 28 -8 68 -44 68c-54 0 -72 -75 -82 -116c-12 -53 -21 -107 -21 -161c0 -37 3 -93 53 -93c48 0 68 58 73 97h-65l17 140h247c-5 -50 -12 -99 -24 -148c-32 -135 -112 -249 -264 -249c-158 0 -216 125 -216 265c0 60 7 119 24 177
c38 130 130 249 277 249c109 0 175 -64 205 -165zM453 866h69c-19 -89 -83 -148 -176 -148c-79 0 -140 49 -140 131v17h69c12 -45 39 -53 82 -53c47 0 74 10 96 53z" />
    <glyph glyph-name="gbreve" unicode="&#x11f;" horiz-adv-x="485" 
d="M475 467l-59 -479c-6 -48 -17 -91 -49 -128c-45 -52 -116 -75 -183 -75c-117 0 -183 47 -185 169h174c0 -21 8 -38 31 -38c38 0 44 36 48 66c3 23 6 47 9 72c-28 -34 -68 -61 -114 -61c-94 0 -124 104 -124 181c0 41 5 82 15 122c21 78 75 181 168 181
c44 0 73 -36 93 -71l4 61h172zM284 279c0 19 0 57 -27 57c-46 0 -55 -104 -55 -137c0 -20 2 -63 30 -63c44 0 52 111 52 143zM383 669h69c-19 -89 -83 -148 -176 -148c-79 0 -140 49 -140 131v17h69c12 -45 39 -53 82 -53c47 0 74 10 96 53z" />
    <glyph glyph-name="Gdotaccent" unicode="&#x120;" horiz-adv-x="552" 
d="M543 514l-180 -64c0 28 -8 68 -44 68c-54 0 -72 -75 -82 -116c-12 -53 -21 -107 -21 -161c0 -37 3 -93 53 -93c48 0 68 58 73 97h-65l17 140h247c-5 -50 -12 -99 -24 -148c-32 -135 -112 -249 -264 -249c-158 0 -216 125 -216 265c0 60 7 119 24 177
c38 130 130 249 277 249c109 0 175 -64 205 -165zM430 796c0 -6 -3 -16 -6 -21c-12 -32 -44 -55 -78 -55c-38 0 -67 29 -67 67c0 45 39 84 84 84c46 0 67 -32 67 -75z" />
    <glyph glyph-name="gdotaccent" unicode="&#x121;" horiz-adv-x="485" 
d="M475 467l-59 -479c-6 -48 -17 -91 -49 -128c-45 -52 -116 -75 -183 -75c-117 0 -183 47 -185 169h174c0 -21 8 -38 31 -38c38 0 44 36 48 66c3 23 6 47 9 72c-28 -34 -68 -61 -114 -61c-94 0 -124 104 -124 181c0 41 5 82 15 122c21 78 75 181 168 181
c44 0 73 -36 93 -71l4 61h172zM284 279c0 19 0 57 -27 57c-46 0 -55 -104 -55 -137c0 -20 2 -63 30 -63c44 0 52 111 52 143zM362 606c0 -6 -3 -16 -6 -21c-12 -32 -44 -55 -78 -55c-38 0 -67 29 -67 67c0 45 39 84 84 84c46 0 67 -32 67 -75z" />
    <glyph glyph-name="Gcommaaccent" unicode="&#x122;" horiz-adv-x="552" 
d="M543 514l-180 -64c0 28 -8 68 -44 68c-54 0 -72 -75 -82 -116c-12 -53 -21 -107 -21 -161c0 -37 3 -93 53 -93c48 0 68 58 73 97h-65l17 140h247c-5 -50 -12 -99 -24 -148c-32 -135 -112 -249 -264 -249c-158 0 -216 125 -216 265c0 60 7 119 24 177
c38 130 130 249 277 249c109 0 175 -64 205 -165zM327 -45l-94 -188h-102l50 188h146z" />
    <glyph glyph-name="gcommaaccent" unicode="&#x123;" horiz-adv-x="485" 
d="M475 467l-59 -479c-6 -48 -17 -91 -49 -128c-45 -52 -116 -75 -183 -75c-117 0 -183 47 -185 169h174c0 -21 8 -38 31 -38c38 0 44 36 48 66c3 23 6 47 9 72c-28 -34 -68 -61 -114 -61c-94 0 -124 104 -124 181c0 41 5 82 15 122c21 78 75 181 168 181
c44 0 73 -36 93 -71l4 61h172zM284 279c0 19 0 57 -27 57c-46 0 -55 -104 -55 -137c0 -20 2 -63 30 -63c44 0 52 111 52 143zM179 517l94 188h102l-50 -188h-146z" />
    <glyph glyph-name="Hcircumflex" unicode="&#x124;" horiz-adv-x="531" 
d="M539 667l-82 -667h-177l33 268h-85l-33 -268h-177l82 667h177l-29 -236h85l29 236h177zM361 870l124 -98l-65 -70l-71 55l-94 -57l-53 70z" />
    <glyph glyph-name="hcircumflex" unicode="&#x125;" horiz-adv-x="483" 
d="M272 729l-32 -261c-4 -30 -9 -60 -16 -90c28 52 70 99 134 99c66 0 100 -55 100 -116c0 -14 -1 -29 -3 -43l-39 -318h-171l31 247c1 9 2 17 2 26c0 15 -5 31 -23 31c-33 0 -41 -44 -44 -69l-29 -235h-171l90 729h171zM211 930l116 -117l-64 -63l-65 66l-90 -70l-53 67z
" />
    <glyph glyph-name="Hbar" unicode="&#x126;" horiz-adv-x="531" 
d="M18 0l62 505h-50l15 121h50l5 41h177l-5 -41h86l5 41h177l-5 -41h50l-15 -121h-50l-62 -505h-177l33 268h-86l-33 -268h-177zM343 505h-86l-10 -84h86z" />
    <glyph glyph-name="hbar" unicode="&#x127;" horiz-adv-x="489" 
d="M20 0l61 499h-54l14 105h53l15 125h173l-15 -125h118l-14 -105h-118l-8 -73c-4 -30 -9 -60 -16 -90c28 52 70 99 134 99c66 0 100 -55 100 -116c0 -14 -1 -29 -3 -43l-35 -276h-171l27 205c1 9 2 17 2 26c0 15 -5 31 -23 31c-33 0 -41 -44 -44 -69l-25 -193h-171z" />
    <glyph glyph-name="Imacron" unicode="&#x12a;" horiz-adv-x="269" 
d="M277 667l-82 -667h-177l82 667h177zM364 837l-12 -94h-335l12 94h335z" />
    <glyph glyph-name="imacron" unicode="&#x12b;" horiz-adv-x="250" 
d="M239 467l-57 -467h-171l58 467h170zM339 647l-12 -94h-335l12 94h335z" />
    <glyph glyph-name="Iogonek" unicode="&#x12e;" horiz-adv-x="269" 
d="M277 667l-82 -667c-10 -11 -17 -22 -24 -36c-5 -10 -9 -20 -9 -35c0 -7 2 -15 8 -22s17 -10 27 -10c11 0 27 5 36 9l-17 -77c-19 -8 -38 -12 -60 -12c-31 0 -53 9 -67 21c-7 6 -23 23 -23 55c0 16 4 40 22 64c10 13 30 32 43 43h-113l82 667h177z" />
    <glyph glyph-name="iogonek" unicode="&#x12f;" horiz-adv-x="250" 
d="M186 713c32 0 52 -15 62 -25c21 -20 26 -44 26 -64c0 -22 -8 -51 -34 -78c-27 -28 -58 -35 -79 -35c-19 0 -42 6 -62 26c-20 21 -26 45 -26 63c0 23 8 52 33 78c24 24 53 35 80 35zM240 467l-57 -467c-4 -5 -18 -24 -23 -34s-10 -22 -10 -34c0 -9 3 -17 10 -23
c4 -4 12 -8 24 -8s25 4 35 9l-17 -73c-14 -6 -35 -12 -61 -12c-17 0 -46 3 -66 24c-12 13 -19 31 -19 52s7 40 20 58c10 14 28 30 43 41h-107l58 467h170z" />
    <glyph glyph-name="Idotaccent" unicode="&#x130;" horiz-adv-x="269" 
d="M277 667l-82 -667h-177l82 667h177zM277 796c0 -6 -3 -16 -6 -21c-12 -32 -44 -55 -78 -55c-38 0 -67 29 -67 67c0 45 39 84 84 84c46 0 67 -32 67 -75z" />
    <glyph glyph-name="dotlessi" unicode="&#x131;" horiz-adv-x="249" 
d="M239 467l-57 -467h-171l58 467h170z" />
    <glyph glyph-name="Jcircumflex" unicode="&#x134;" horiz-adv-x="349" 
d="M357 667l-57 -463c-6 -45 -12 -86 -37 -125c-40 -64 -103 -91 -177 -91c-40 0 -75 8 -113 22l23 186c15 -23 37 -39 66 -39c48 0 60 42 65 82l52 428h178zM291 870l124 -98l-65 -70l-71 55l-94 -57l-53 70z" />
    <glyph glyph-name="jcircumflex" unicode="&#x135;" horiz-adv-x="251" 
d="M241 467l-84 -682h-170l82 682h172zM176 690l116 -117l-64 -63l-65 66l-90 -70l-53 67z" />
    <glyph glyph-name="Kcommaaccent" unicode="&#x136;" horiz-adv-x="533" 
d="M564 667l-181 -322l117 -345h-191l-79 319l-35 -319h-177l82 667h177l-40 -298l140 298h187zM322 -45l-94 -188h-102l50 188h146z" />
    <glyph glyph-name="kcommaaccent" unicode="&#x137;" horiz-adv-x="487" 
d="M505 467l-139 -215l93 -252h-190l-41 146c-11 39 -16 66 -18 81l-28 -227h-171l90 729h171l-57 -462c8 18 21 41 33 62l75 138h182zM297 -46l-94 -188h-102l50 188h146z" />
    <glyph glyph-name="Lacute" unicode="&#x139;" horiz-adv-x="363" 
d="M348 160l-19 -160h-311l82 667h177l-62 -507h133zM327 868l-105 -148h-98l65 148h138z" />
    <glyph glyph-name="lacute" unicode="&#x13a;" horiz-adv-x="250" 
d="M272 729l-90 -729h-171l90 729h171zM317 918l-105 -148h-98l65 148h138z" />
    <glyph glyph-name="Lcommaaccent" unicode="&#x13b;" horiz-adv-x="363" 
d="M348 160l-19 -160h-311l82 667h177l-62 -507h133zM247 -45l-94 -188h-102l50 188h146z" />
    <glyph glyph-name="lcommaaccent" unicode="&#x13c;" horiz-adv-x="250" 
d="M272 729l-90 -729h-171l90 729h171zM167 -46l-94 -188h-102l50 188h146z" />
    <glyph glyph-name="Lcaron" unicode="&#x13d;" horiz-adv-x="507" 
d="M348 160l-19 -160h-311l82 667h177l-62 -507h133zM507 667l-104 -209h-102l60 209h146z" />
    <glyph glyph-name="lcaron" unicode="&#x13e;" horiz-adv-x="487" 
d="M272 729l-90 -729h-171l90 729h171zM487 667l-100 -221h-104l58 221h146z" />
    <glyph glyph-name="Ldot" unicode="&#x13f;" horiz-adv-x="395" 
d="M348 160l-19 -160h-311l82 667h177l-62 -507h133zM421 334c0 -6 -3 -16 -6 -21c-12 -32 -44 -55 -78 -55c-38 0 -67 29 -67 67c0 45 39 84 84 84c46 0 67 -32 67 -75z" />
    <glyph glyph-name="ldot" unicode="&#x140;" horiz-adv-x="396" 
d="M272 729l-90 -729h-171l90 729h171zM416 365c0 -6 -3 -16 -6 -21c-12 -32 -44 -55 -78 -55c-38 0 -67 29 -67 67c0 45 39 84 84 84c46 0 67 -32 67 -75z" />
    <glyph glyph-name="Lslash" unicode="&#x141;" horiz-adv-x="367" 
d="M351 160l-19 -160h-311l27 217l-52 -40l16 131l52 40l39 319h177l-27 -224l96 71l-16 -131l-96 -71l-19 -152h133z" />
    <glyph glyph-name="lslash" unicode="&#x142;" horiz-adv-x="296" 
d="M319 515l-15 -118l-54 -39l-44 -358h-171l34 275l-55 -38l14 118l55 38l42 336h170l-31 -253z" />
    <glyph glyph-name="Nacute" unicode="&#x143;" horiz-adv-x="554" 
d="M562 667l-82 -667h-169l-59 245c-11 46 -21 92 -28 139c-2 -35 -4 -71 -6 -106c-6 -93 -20 -185 -31 -278h-169l82 667h169l60 -234c14 -55 23 -112 35 -168c0 84 -1 168 10 252l19 150h169zM472 868l-105 -148h-98l65 148h138z" />
    <glyph glyph-name="nacute" unicode="&#x144;" horiz-adv-x="483" 
d="M69 467h170c-5 -30 -9 -59 -15 -89c28 52 70 99 134 99c66 0 100 -55 100 -116c0 -14 -1 -29 -3 -43l-39 -318h-171l31 247c1 9 2 17 2 26c0 15 -5 31 -23 31c-33 0 -41 -44 -44 -69l-29 -235h-171zM417 678l-105 -148h-98l65 148h138z" />
    <glyph glyph-name="Ncommaaccent" unicode="&#x145;" horiz-adv-x="554" 
d="M562 667l-82 -667h-169l-59 245c-11 46 -21 92 -28 139c-2 -35 -4 -71 -6 -106c-6 -93 -20 -185 -31 -278h-169l82 667h169l60 -234c14 -55 23 -112 35 -168c0 84 -1 168 10 252l19 150h169zM322 -45l-94 -188h-102l50 188h146z" />
    <glyph glyph-name="ncommaaccent" unicode="&#x146;" horiz-adv-x="483" 
d="M69 467h170c-5 -30 -9 -59 -15 -89c28 52 70 99 134 99c66 0 100 -55 100 -116c0 -14 -1 -29 -3 -43l-39 -318h-171l31 247c1 9 2 17 2 26c0 15 -5 31 -23 31c-33 0 -41 -44 -44 -69l-29 -235h-171zM287 -46l-94 -188h-102l50 188h146z" />
    <glyph glyph-name="Ncaron" unicode="&#x147;" horiz-adv-x="554" 
d="M562 667l-82 -667h-169l-59 245c-11 46 -21 92 -28 139c-2 -35 -4 -71 -6 -106c-6 -93 -20 -185 -31 -278h-169l82 667h169l60 -234c14 -55 23 -112 35 -168c0 84 -1 168 10 252l19 150h169zM506 802l-166 -98l-121 103l71 63l70 -58l92 56z" />
    <glyph glyph-name="ncaron" unicode="&#x148;" horiz-adv-x="483" 
d="M69 467h170c-5 -30 -9 -59 -15 -89c28 52 70 99 134 99c66 0 100 -55 100 -116c0 -14 -1 -29 -3 -43l-39 -318h-171l31 247c1 9 2 17 2 26c0 15 -5 31 -23 31c-33 0 -41 -44 -44 -69l-29 -235h-171zM445 623l-159 -112l-118 118l71 61l64 -65l87 65z" />
    <glyph glyph-name="Omacron" unicode="&#x14c;" horiz-adv-x="558" 
d="M546 422c0 -64 -8 -129 -26 -191c-37 -123 -125 -243 -266 -243c-67 0 -131 34 -169 89c-37 54 -47 122 -47 186c0 63 9 127 29 187c41 119 134 229 270 229c145 0 209 -128 209 -257zM362 408c0 32 -1 103 -47 103c-53 0 -80 -115 -86 -156c-5 -29 -7 -59 -7 -89
c0 -33 1 -109 48 -109c55 0 80 119 86 161c4 30 6 60 6 90zM524 837l-12 -94h-335l12 94h335z" />
    <glyph glyph-name="omacron" unicode="&#x14d;" horiz-adv-x="480" 
d="M456 280c0 -153 -81 -290 -248 -290c-124 0 -184 82 -184 200c0 145 88 287 246 287c121 0 186 -80 186 -197zM291 269c0 24 -3 77 -37 77c-49 0 -64 -112 -64 -148c0 -24 4 -77 37 -77c49 0 64 112 64 148zM469 647l-12 -94h-335l12 94h335z" />
    <glyph glyph-name="Obreve" unicode="&#x14e;" horiz-adv-x="558" 
d="M546 422c0 -64 -8 -129 -26 -191c-37 -123 -125 -243 -266 -243c-67 0 -131 34 -169 89c-37 54 -47 122 -47 186c0 63 9 127 29 187c41 119 134 229 270 229c145 0 209 -128 209 -257zM362 408c0 32 -1 103 -47 103c-53 0 -80 -115 -86 -156c-5 -29 -7 -59 -7 -89
c0 -33 1 -109 48 -109c55 0 80 119 86 161c4 30 6 60 6 90zM448 866h69c-19 -89 -83 -148 -176 -148c-79 0 -140 49 -140 131v17h69c12 -45 39 -53 82 -53c47 0 74 10 96 53z" />
    <glyph glyph-name="obreve" unicode="&#x14f;" horiz-adv-x="480" 
d="M456 280c0 -153 -81 -290 -248 -290c-124 0 -184 82 -184 200c0 145 88 287 246 287c121 0 186 -80 186 -197zM291 269c0 24 -3 77 -37 77c-49 0 -64 -112 -64 -148c0 -24 4 -77 37 -77c49 0 64 112 64 148zM383 669h69c-19 -89 -83 -148 -176 -148
c-79 0 -140 49 -140 131v17h69c12 -45 39 -53 82 -53c47 0 74 10 96 53z" />
    <glyph glyph-name="Ohungarumlaut" unicode="&#x150;" horiz-adv-x="558" 
d="M546 422c0 -64 -8 -129 -26 -191c-37 -123 -125 -243 -266 -243c-67 0 -131 34 -169 89c-37 54 -47 122 -47 186c0 63 9 127 29 187c41 119 134 229 270 229c145 0 209 -128 209 -257zM362 408c0 32 -1 103 -47 103c-53 0 -80 -115 -86 -156c-5 -29 -7 -59 -7 -89
c0 -33 1 -109 48 -109c55 0 80 119 86 161c4 30 6 60 6 90zM571 868l-105 -148h-88l65 148h128zM406 868l-104 -148h-88l65 148h127z" />
    <glyph glyph-name="ohungarumlaut" unicode="&#x151;" horiz-adv-x="480" 
d="M456 280c0 -153 -81 -290 -248 -290c-124 0 -184 82 -184 200c0 145 88 287 246 287c121 0 186 -80 186 -197zM291 269c0 24 -3 77 -37 77c-49 0 -64 -112 -64 -148c0 -24 4 -77 37 -77c49 0 64 112 64 148zM506 678l-105 -148h-88l65 148h128zM341 678l-104 -148h-88
l65 148h127z" />
    <glyph glyph-name="OE" unicode="&#x152;" horiz-adv-x="697" 
d="M675 413l-19 -151h-134l-12 -102h149l-19 -160h-328l6 49c-38 -49 -79 -57 -102 -57c-53 0 -97 22 -131 74c-38 60 -47 131 -47 190c0 136 42 277 121 356c49 49 99 61 136 61c43 0 76 -19 93 -52l6 46h326l-19 -157h-148l-12 -97h134zM220 262c0 -29 5 -78 25 -96
c6 -6 15 -10 26 -10c15 0 26 9 33 16c9 9 30 35 46 119c7 35 12 81 12 119c0 59 -12 82 -21 91c-7 7 -14 10 -24 10c-14 0 -25 -5 -35 -16c-23 -24 -36 -65 -43 -92c-9 -34 -19 -98 -19 -141z" />
    <glyph glyph-name="oe" unicode="&#x153;" horiz-adv-x="726" 
d="M521 157h162c-36 -105 -119 -167 -225 -167c-45 0 -84 10 -121 43c-29 -27 -71 -43 -117 -43c-125 0 -196 76 -196 200c0 152 87 285 251 286c46 0 81 -8 117 -42c44 32 82 42 129 42c119 -1 183 -86 183 -199c0 -26 -4 -52 -9 -80h-253v-17c0 -23 5 -61 36 -61
c21 0 36 17 43 38zM454 290h86c0 24 -4 59 -36 59c-34 0 -44 -33 -50 -59zM293 271c0 24 -4 76 -38 76c-49 0 -64 -113 -64 -149c0 -24 4 -77 37 -77c50 0 65 113 65 150z" />
    <glyph glyph-name="Racute" unicode="&#x154;" horiz-adv-x="525" 
d="M100 667h181c131 0 230 -45 230 -191c0 -91 -38 -163 -124 -199l98 -277h-192c-16 67 -34 133 -49 200c-6 26 -11 51 -17 77c-8 -93 -20 -185 -32 -277h-177zM239 358h12c49 0 83 49 83 95c0 50 -30 64 -75 64zM449 868l-105 -148h-98l65 148h138z" />
    <glyph glyph-name="racute" unicode="&#x155;" horiz-adv-x="339" 
d="M360 478l-24 -194c-15 9 -28 15 -46 15c-22 0 -43 -11 -57 -27c-19 -21 -23 -45 -26 -72l-25 -200h-171l58 467h170l-20 -91c30 59 72 100 141 102zM377 678l-105 -148h-98l65 148h138z" />
    <glyph glyph-name="Rcommaaccent" unicode="&#x156;" horiz-adv-x="525" 
d="M100 667h181c131 0 230 -45 230 -191c0 -91 -38 -163 -124 -199l98 -277h-192c-16 67 -34 133 -49 200c-6 26 -11 51 -17 77c-8 -93 -20 -185 -32 -277h-177zM239 358h12c49 0 83 49 83 95c0 50 -30 64 -75 64zM317 -45l-94 -188h-102l50 188h146z" />
    <glyph glyph-name="rcommaaccent" unicode="&#x157;" horiz-adv-x="339" 
d="M360 478l-24 -194c-15 9 -28 15 -46 15c-22 0 -43 -11 -57 -27c-19 -21 -23 -45 -26 -72l-25 -200h-171l58 467h170l-20 -91c30 59 72 100 141 102zM277 -46l-94 -188h-102l50 188h146z" />
    <glyph glyph-name="Rcaron" unicode="&#x158;" horiz-adv-x="525" 
d="M100 667h181c131 0 230 -45 230 -191c0 -91 -38 -163 -124 -199l98 -277h-192c-16 67 -34 133 -49 200c-6 26 -11 51 -17 77c-8 -93 -20 -185 -32 -277h-177zM239 358h12c49 0 83 49 83 95c0 50 -30 64 -75 64zM463 802l-166 -98l-121 103l71 63l70 -58l92 56z" />
    <glyph glyph-name="rcaron" unicode="&#x159;" horiz-adv-x="339" 
d="M360 478l-24 -194c-15 9 -28 15 -46 15c-22 0 -43 -11 -57 -27c-19 -21 -23 -45 -26 -72l-25 -200h-171l58 467h170l-20 -91c30 59 72 100 141 102zM400 623l-159 -112l-118 118l71 61l64 -65l87 65z" />
    <glyph glyph-name="Sacute" unicode="&#x15a;" horiz-adv-x="398" 
d="M408 645l-25 -204c-18 36 -52 73 -95 73c-24 0 -53 -18 -53 -44c0 -59 140 -87 140 -224s-100 -258 -242 -258c-44 0 -87 11 -127 29l26 209c23 -38 57 -73 104 -73c29 0 58 18 58 50c0 60 -138 87 -138 231c0 123 101 245 228 245c44 0 86 -13 124 -34zM437 868
l-105 -148h-98l65 148h138z" />
    <glyph glyph-name="sacute" unicode="&#x15b;" horiz-adv-x="389" 
d="M390 439l-74 -127c-16 19 -38 41 -65 41c-14 0 -30 -9 -30 -25c0 -53 142 -33 142 -157c0 -110 -101 -181 -204 -181c-64 0 -104 17 -159 49l78 129c18 -23 48 -49 79 -49c16 0 36 8 36 27c0 21 -24 28 -40 34c-56 22 -104 52 -104 119c0 110 108 178 209 178
c49 0 90 -14 132 -38zM412 678l-105 -148h-98l65 148h138z" />
    <glyph glyph-name="Scircumflex" unicode="&#x15c;" horiz-adv-x="398" 
d="M408 645l-25 -204c-18 36 -52 73 -95 73c-24 0 -53 -18 -53 -44c0 -59 140 -87 140 -224s-100 -258 -242 -258c-44 0 -87 11 -127 29l26 209c23 -38 57 -73 104 -73c29 0 58 18 58 50c0 60 -138 87 -138 231c0 123 101 245 228 245c44 0 86 -13 124 -34zM316 870l124 -98
l-65 -70l-71 55l-94 -57l-53 70z" />
    <glyph glyph-name="scircumflex" unicode="&#x15d;" horiz-adv-x="389" 
d="M390 439l-74 -127c-16 19 -38 41 -65 41c-14 0 -30 -9 -30 -25c0 -53 142 -33 142 -157c0 -110 -101 -181 -204 -181c-64 0 -104 17 -159 49l78 129c18 -23 48 -49 79 -49c16 0 36 8 36 27c0 21 -24 28 -40 34c-56 22 -104 52 -104 119c0 110 108 178 209 178
c49 0 90 -14 132 -38zM291 690l116 -117l-64 -63l-65 66l-90 -70l-53 67z" />
    <glyph glyph-name="Scedilla" unicode="&#x15e;" horiz-adv-x="398" 
d="M408 645l-25 -204c-18 36 -52 73 -95 73c-24 0 -53 -18 -53 -44c0 -59 140 -87 140 -224s-100 -258 -242 -258c-44 0 -87 11 -127 29l26 209c23 -38 57 -73 104 -73c29 0 58 18 58 50c0 60 -138 87 -138 231c0 123 101 245 228 245c44 0 86 -13 124 -34zM220 -113
l-126 -124l-77 53l107 137z" />
    <glyph glyph-name="scedilla" unicode="&#x15f;" horiz-adv-x="389" 
d="M390 439l-74 -127c-16 19 -38 41 -65 41c-14 0 -30 -9 -30 -25c0 -53 142 -33 142 -157c0 -110 -101 -181 -204 -181c-64 0 -104 17 -159 49l78 129c18 -23 48 -49 79 -49c16 0 36 8 36 27c0 21 -24 28 -40 34c-56 22 -104 52 -104 119c0 110 108 178 209 178
c49 0 90 -14 132 -38zM238 -106l-126 -117l-71 54l102 122z" />
    <glyph glyph-name="Scaron" unicode="&#x160;" horiz-adv-x="398" 
d="M408 645l-25 -204c-18 36 -52 73 -95 73c-24 0 -53 -18 -53 -44c0 -59 140 -87 140 -224s-100 -258 -242 -258c-44 0 -87 11 -127 29l26 209c23 -38 57 -73 104 -73c29 0 58 18 58 50c0 60 -138 87 -138 231c0 123 101 245 228 245c44 0 86 -13 124 -34zM451 802
l-166 -98l-121 103l71 63l70 -58l92 56z" />
    <glyph glyph-name="scaron" unicode="&#x161;" horiz-adv-x="389" 
d="M390 439l-74 -127c-16 19 -38 41 -65 41c-14 0 -30 -9 -30 -25c0 -53 142 -33 142 -157c0 -110 -101 -181 -204 -181c-64 0 -104 17 -159 49l78 129c18 -23 48 -49 79 -49c16 0 36 8 36 27c0 21 -24 28 -40 34c-56 22 -104 52 -104 119c0 110 108 178 209 178
c49 0 90 -14 132 -38zM415 623l-159 -112l-118 118l71 61l64 -65l87 65z" />
    <glyph glyph-name="Tcedilla" unicode="&#x162;" horiz-adv-x="377" 
d="M427 667l-20 -160h-98l-62 -507h-177l62 507h-98l20 160h373zM237 -113l-126 -124l-77 53l107 137z" />
    <glyph glyph-name="tcedilla" unicode="&#x163;" horiz-adv-x="297" 
d="M319 467l-17 -140h-56l-41 -327h-170l40 327h-49l17 140h49l17 137h171l-17 -137h56zM197 -106l-126 -117l-71 54l102 122z" />
    <glyph glyph-name="Tcaron" unicode="&#x164;" horiz-adv-x="377" 
d="M407 507l20 160h-373l-20 -160h98l-62 -507h177l62 507h98zM411 802l-166 -98l-121 103l71 63l70 -58l92 56z" />
    <glyph glyph-name="tcaron" unicode="&#x165;" horiz-adv-x="507" 
d="M319 467l-17 -140h-56l-41 -327h-170l40 327h-49l17 140h49l17 137h171l-17 -137h56zM517 727l-100 -221h-104l58 221h146z" />
    <glyph glyph-name="Utilde" unicode="&#x168;" horiz-adv-x="537" 
d="M545 667l-58 -472c-8 -68 -30 -112 -85 -155c-46 -36 -96 -52 -155 -52c-117 0 -205 60 -205 184c0 16 1 32 3 48l55 447h177l-53 -431c-1 -11 -2 -22 -2 -33c0 -26 10 -46 39 -46c44 0 50 45 54 79l53 431h177zM423 855h88c-6 -68 -44 -133 -120 -133
c-47 0 -80 33 -111 33c-21 0 -28 -17 -31 -35h-89c2 19 5 38 12 56c17 42 56 76 103 76c50 0 81 -33 116 -33c22 0 29 17 32 36z" />
    <glyph glyph-name="utilde" unicode="&#x169;" horiz-adv-x="492" 
d="M482 467l-35 -287c-8 -65 -29 -110 -85 -147c-43 -28 -94 -43 -145 -43c-95 0 -186 48 -186 154c0 12 2 24 3 36l35 287h170l-32 -263c-1 -12 -3 -23 -3 -35c0 -21 9 -34 31 -34c38 0 41 41 44 69l32 263h171zM379 665h88c-6 -68 -44 -133 -120 -133
c-47 0 -80 33 -111 33c-21 0 -28 -17 -31 -35h-89c2 19 5 38 12 56c17 42 56 76 103 76c50 0 81 -33 116 -33c22 0 29 17 32 36z" />
    <glyph glyph-name="Umacron" unicode="&#x16a;" horiz-adv-x="537" 
d="M545 667l-58 -472c-8 -68 -30 -112 -85 -155c-46 -36 -96 -52 -155 -52c-117 0 -205 60 -205 184c0 16 1 32 3 48l55 447h177l-53 -431c-1 -11 -2 -22 -2 -33c0 -26 10 -46 39 -46c44 0 50 45 54 79l53 431h177zM509 837l-12 -94h-335l12 94h335z" />
    <glyph glyph-name="umacron" unicode="&#x16b;" horiz-adv-x="492" 
d="M482 467l-35 -287c-8 -65 -29 -110 -85 -147c-43 -28 -94 -43 -145 -43c-95 0 -186 48 -186 154c0 12 2 24 3 36l35 287h170l-32 -263c-1 -12 -3 -23 -3 -35c0 -21 9 -34 31 -34c38 0 41 41 44 69l32 263h171zM459 647l-12 -94h-335l12 94h335z" />
    <glyph glyph-name="Ubreve" unicode="&#x16c;" horiz-adv-x="537" 
d="M545 667l-58 -472c-8 -68 -30 -112 -85 -155c-46 -36 -96 -52 -155 -52c-117 0 -205 60 -205 184c0 16 1 32 3 48l55 447h177l-53 -431c-1 -11 -2 -22 -2 -33c0 -26 10 -46 39 -46c44 0 50 45 54 79l53 431h177zM433 866h69c-19 -89 -83 -148 -176 -148
c-79 0 -140 49 -140 131v17h69c12 -45 39 -53 82 -53c47 0 74 10 96 53z" />
    <glyph glyph-name="ubreve" unicode="&#x16d;" horiz-adv-x="492" 
d="M482 467l-35 -287c-8 -65 -29 -110 -85 -147c-43 -28 -94 -43 -145 -43c-95 0 -186 48 -186 154c0 12 2 24 3 36l35 287h170l-32 -263c-1 -12 -3 -23 -3 -35c0 -21 9 -34 31 -34c38 0 41 41 44 69l32 263h171zM383 669h69c-19 -89 -83 -148 -176 -148
c-79 0 -140 49 -140 131v17h69c12 -45 39 -53 82 -53c47 0 74 10 96 53z" />
    <glyph glyph-name="Uring" unicode="&#x16e;" horiz-adv-x="537" 
d="M545 667l-58 -472c-8 -68 -30 -112 -85 -155c-46 -36 -96 -52 -155 -52c-117 0 -205 60 -205 184c0 16 1 32 3 48l55 447h177l-53 -431c-1 -11 -2 -22 -2 -33c0 -26 10 -46 39 -46c44 0 50 45 54 79l53 431h177zM243 810c0 53 43 96 96 96s96 -43 96 -96s-44 -96 -95 -96
c-54 0 -97 44 -97 96zM302 810c0 -21 16 -37 37 -37s37 16 37 37s-16 37 -37 37s-37 -16 -37 -37z" />
    <glyph glyph-name="uring" unicode="&#x16f;" horiz-adv-x="492" 
d="M482 467l-35 -287c-8 -65 -29 -110 -85 -147c-43 -28 -94 -43 -145 -43c-95 0 -186 48 -186 154c0 12 2 24 3 36l35 287h170l-32 -263c-1 -12 -3 -23 -3 -35c0 -21 9 -34 31 -34c38 0 41 41 44 69l32 263h171zM188 619c0 53 43 96 96 96s96 -43 96 -96s-43 -96 -96 -96
s-96 43 -96 96zM247 619c0 -21 16 -37 37 -37s37 16 37 37s-16 37 -37 37s-37 -16 -37 -37z" />
    <glyph glyph-name="Uhungarumlaut" unicode="&#x170;" horiz-adv-x="537" 
d="M545 667l-58 -472c-8 -68 -30 -112 -85 -155c-46 -36 -96 -52 -155 -52c-117 0 -205 60 -205 184c0 16 1 32 3 48l55 447h177l-53 -431c-1 -11 -2 -22 -2 -33c0 -26 10 -46 39 -46c44 0 50 45 54 79l53 431h177zM521 868l-105 -148h-88l65 148h128zM356 868l-104 -148
h-88l65 148h127z" />
    <glyph glyph-name="uhungarumlaut" unicode="&#x171;" horiz-adv-x="492" 
d="M482 467l-35 -287c-8 -65 -29 -110 -85 -147c-43 -28 -94 -43 -145 -43c-95 0 -186 48 -186 154c0 12 2 24 3 36l35 287h170l-32 -263c-1 -12 -3 -23 -3 -35c0 -21 9 -34 31 -34c38 0 41 41 44 69l32 263h171zM491 678l-105 -148h-88l65 148h128zM326 678l-104 -148h-88
l65 148h127z" />
    <glyph glyph-name="Uogonek" unicode="&#x172;" horiz-adv-x="537" 
d="M545 667l-58 -472c-4 -32 -11 -65 -27 -95c-15 -28 -39 -55 -68 -77c-21 -16 -53 -34 -72 -53c-9 -10 -19 -23 -19 -40c0 -8 3 -17 8 -23c6 -7 17 -10 27 -10c11 0 27 5 36 9l-17 -77c-19 -8 -38 -12 -60 -12c-18 0 -46 2 -67 21c-13 12 -23 30 -23 57c0 23 7 39 18 56
c10 14 23 28 34 38h-10c-41 0 -96 5 -140 39c-53 40 -65 98 -65 147c0 16 1 32 3 45l55 447h177l-53 -431c-1 -10 -2 -20 -2 -29c0 -16 3 -29 11 -39c7 -8 16 -11 27 -11c12 0 21 2 31 11c18 17 21 42 24 68l53 431h177z" />
    <glyph glyph-name="uogonek" unicode="&#x173;" horiz-adv-x="492" 
d="M482 467l-35 -287c-4 -33 -8 -69 -32 -104c-21 -30 -49 -47 -78 -65c-37 -23 -51 -32 -60 -42s-14 -23 -14 -36c0 -10 3 -18 10 -24c4 -4 12 -8 24 -8s25 4 35 9l-17 -73c-14 -6 -35 -12 -61 -12c-17 0 -46 3 -66 24c-12 13 -19 31 -19 52c0 18 6 35 15 49s25 30 39 41
c-6 -1 -13 -1 -19 -1c-50 0 -99 20 -131 50c-32 31 -42 69 -42 104c0 12 2 35 4 47l34 276h170l-33 -275c-1 -5 -2 -19 -2 -24c0 -9 3 -20 8 -25s14 -8 23 -8c12 0 21 5 26 10c9 9 14 26 16 41l34 281h171z" />
    <glyph glyph-name="Ydieresis" unicode="&#x178;" horiz-adv-x="493" 
d="M547 667l-200 -385l-35 -282h-177l35 282l-116 385h185c14 -68 29 -137 37 -206c26 70 57 138 87 206h184zM478 800c0 -42 -39 -80 -81 -80c-36 0 -63 28 -63 64c0 43 37 80 80 80c37 0 64 -27 64 -64zM288 792c0 -6 -3 -15 -5 -20c-12 -30 -43 -52 -75 -52
c-37 0 -64 27 -64 64c0 43 38 80 81 80s63 -32 63 -72z" />
    <glyph glyph-name="Zacute" unicode="&#x179;" horiz-adv-x="507" 
d="M544 667l-2 -19l-206 -363c-25 -45 -53 -88 -79 -133c68 6 135 6 203 8l-19 -160h-453l2 14l181 326c33 59 69 116 110 170h-191l19 157h435zM462 868l-105 -148h-98l65 148h138z" />
    <glyph glyph-name="zacute" unicode="&#x17a;" horiz-adv-x="428" 
d="M441 467l-138 -238c-17 -30 -35 -59 -55 -88h126l-17 -141h-369l141 242c17 29 35 58 55 85h-130l17 140h370zM401 678l-105 -148h-98l65 148h138z" />
    <glyph glyph-name="Zdotaccent" unicode="&#x17b;" horiz-adv-x="507" 
d="M544 667l-2 -19l-206 -363c-25 -45 -53 -88 -79 -133c68 6 135 6 203 8l-19 -160h-453l2 14l181 326c33 59 69 116 110 170h-191l19 157h435zM409 796c0 -6 -3 -16 -6 -21c-12 -32 -44 -55 -78 -55c-38 0 -67 29 -67 67c0 45 39 84 84 84c46 0 67 -32 67 -75z" />
    <glyph glyph-name="zdotaccent" unicode="&#x17c;" horiz-adv-x="428" 
d="M441 467l-138 -238c-17 -30 -35 -59 -55 -88h126l-17 -141h-369l141 242c17 29 35 58 55 85h-130l17 140h370zM343 606c0 -6 -3 -16 -6 -21c-12 -32 -44 -55 -78 -55c-38 0 -67 29 -67 67c0 45 39 84 84 84c46 0 67 -32 67 -75z" />
    <glyph glyph-name="Zcaron" unicode="&#x17d;" horiz-adv-x="507" 
d="M544 667l-2 -19l-206 -363c-25 -45 -53 -88 -79 -133c68 6 135 6 203 8l-19 -160h-453l2 14l181 326c33 59 69 116 110 170h-191l19 157h435zM486 802l-166 -98l-121 103l71 63l70 -58l92 56z" />
    <glyph glyph-name="zcaron" unicode="&#x17e;" horiz-adv-x="428" 
d="M441 467l-138 -238c-17 -30 -35 -59 -55 -88h126l-17 -141h-369l141 242c17 29 35 58 55 85h-130l17 140h370zM410 623l-159 -112l-118 118l71 61l64 -65l87 65z" />
    <glyph glyph-name="uni018F" unicode="&#x18f;" horiz-adv-x="554" 
d="M47 385h310c2 75 -9 103 -18 115c-7 9 -19 18 -38 18c-18 0 -31 -7 -38 -14c-12 -11 -24 -34 -30 -54l-168 55c24 52 61 98 99 126c47 34 98 48 151 48c86 0 135 -38 158 -61c28 -29 69 -89 69 -208c0 -115 -33 -265 -125 -356c-53 -53 -101 -66 -169 -66
c-53 0 -99 9 -140 52c-56 58 -70 149 -70 226c0 35 3 67 6 92zM341 253h-129c-6 -66 12 -87 16 -91c7 -8 19 -13 34 -13c16 0 28 6 38 15c23 21 36 63 41 89z" />
    <glyph glyph-name="florin" unicode="&#x192;" horiz-adv-x="532" 
d="M479 729l-22 -138c-11 0 -21 3 -32 3c-23 0 -34 -12 -38 -34l-18 -93h70l-18 -94h-71l-64 -332c-20 -103 -68 -174 -182 -174c-26 0 -51 6 -76 13l26 143c10 -1 21 -2 31 -2c28 0 42 7 48 36l61 316h-68l17 94h69l21 106c20 99 55 167 167 167c27 0 53 -5 79 -11z" />
    <glyph glyph-name="uni01CF" unicode="&#x1cf;" horiz-adv-x="269" 
d="M277 667l-82 -667h-177l82 667h177zM366 802l-166 -98l-121 103l71 63l70 -58l92 56z" />
    <glyph glyph-name="uni01D0" unicode="&#x1d0;" horiz-adv-x="250" 
d="M239 467l-57 -467h-171l58 467h170zM315 623l-159 -112l-118 118l71 61l64 -65l87 65z" />
    <glyph glyph-name="uni01DD" unicode="&#x1dd;" horiz-adv-x="482" 
d="M201 308l-154 38c18 37 46 69 78 91s77 40 138 40c36 0 94 -6 138 -48c51 -48 57 -118 57 -155c0 -86 -29 -173 -84 -226c-50 -48 -106 -58 -161 -58c-48 0 -95 9 -134 51c-38 40 -55 103 -55 164c0 23 4 46 7 64h254c2 15 3 46 -11 61c-9 10 -21 11 -28 11
c-10 0 -18 -2 -27 -8c-7 -5 -14 -13 -18 -25zM272 176h-81c-1 -18 1 -39 11 -50c4 -4 12 -9 24 -9c10 0 17 3 24 10c11 11 19 32 22 49z" />
    <glyph glyph-name="Gcaron" unicode="&#x1e6;" horiz-adv-x="552" 
d="M543 514l-180 -64c0 28 -8 68 -44 68c-54 0 -72 -75 -82 -116c-12 -53 -21 -107 -21 -161c0 -37 3 -93 53 -93c48 0 68 58 73 97h-65l17 140h247c-5 -50 -12 -99 -24 -148c-32 -135 -112 -249 -264 -249c-158 0 -216 125 -216 265c0 60 7 119 24 177
c38 130 130 249 277 249c109 0 175 -64 205 -165zM511 802l-166 -98l-121 103l71 63l70 -58l92 56z" />
    <glyph glyph-name="gcaron" unicode="&#x1e7;" horiz-adv-x="485" 
d="M475 467l-59 -479c-6 -48 -17 -91 -49 -128c-45 -52 -116 -75 -183 -75c-117 0 -183 47 -185 169h174c0 -21 8 -38 31 -38c38 0 44 36 48 66c3 23 6 47 9 72c-28 -34 -68 -61 -114 -61c-94 0 -124 104 -124 181c0 41 5 82 15 122c21 78 75 181 168 181
c44 0 73 -36 93 -71l4 61h172zM284 279c0 19 0 57 -27 57c-46 0 -55 -104 -55 -137c0 -20 2 -63 30 -63c44 0 52 111 52 143zM425 623l-159 -112l-118 118l71 61l64 -65l87 65z" />
    <glyph glyph-name="AEacute" unicode="&#x1fc;" horiz-adv-x="606" 
d="M630 667l-19 -157h-177l3 -97h148l-18 -151h-122l4 -102h119l-20 -160h-252l-2 85h-114l-24 -85h-184l234 667h424zM219 223h74c-1 61 -2 122 -2 184c0 33 1 66 2 99c-21 -95 -48 -189 -74 -283zM490 868l-105 -148h-98l65 148h138z" />
    <glyph glyph-name="aeacute" unicode="&#x1fd;" horiz-adv-x="724" 
d="M88 321l17 135c46 12 93 21 140 21c53 0 95 -8 135 -46c43 29 85 46 138 46c121 0 183 -87 183 -201c0 -26 -4 -52 -8 -78h-252c0 -6 -1 -12 -1 -18c0 -24 5 -62 37 -62c21 0 35 18 43 35l161 -3c-20 -53 -41 -92 -90 -124c-42 -27 -86 -36 -135 -36
c-52 0 -91 13 -130 48c-45 -29 -100 -48 -154 -48c-85 0 -156 51 -156 141c0 108 83 170 186 170c29 0 58 -4 86 -10c-1 48 -44 57 -83 57c-42 0 -79 -9 -117 -27zM453 291h86c0 24 -3 65 -36 65c-34 0 -44 -38 -50 -65zM273 156c0 24 -19 35 -41 35c-26 0 -50 -20 -50 -47
c0 -25 18 -35 41 -35c28 0 50 18 50 47zM549 678l-105 -148h-98l65 148h138z" />
    <glyph glyph-name="Scommaaccent" unicode="&#x218;" horiz-adv-x="398" 
d="M408 645l-25 -204c-18 36 -52 73 -95 73c-24 0 -53 -18 -53 -44c0 -59 140 -87 140 -224s-100 -258 -242 -258c-44 0 -87 11 -127 29l26 209c23 -38 57 -73 104 -73c29 0 58 18 58 50c0 60 -138 87 -138 231c0 123 101 245 228 245c44 0 86 -13 124 -34zM227 -45
l-94 -188h-102l50 188h146z" />
    <glyph glyph-name="scommaaccent" unicode="&#x219;" horiz-adv-x="389" 
d="M390 439l-74 -127c-16 19 -38 41 -65 41c-14 0 -30 -9 -30 -25c0 -53 142 -33 142 -157c0 -110 -101 -181 -204 -181c-64 0 -104 17 -159 49l78 129c18 -23 48 -49 79 -49c16 0 36 8 36 27c0 21 -24 28 -40 34c-56 22 -104 52 -104 119c0 110 108 178 209 178
c49 0 90 -14 132 -38zM242 -46l-94 -188h-102l50 188h146z" />
    <glyph glyph-name="Tcommaaccent" unicode="&#x21a;" horiz-adv-x="377" 
d="M427 667l-20 -160h-98l-62 -507h-177l62 507h-98l20 160h373zM227 -45l-94 -188h-102l50 188h146z" />
    <glyph glyph-name="tcommaaccent" unicode="&#x21b;" horiz-adv-x="297" 
d="M319 467l-17 -140h-56l-41 -327h-170l40 327h-49l17 140h49l17 137h171l-17 -137h56zM192 -46l-94 -188h-102l50 188h146z" />
    <glyph glyph-name="uni0228" unicode="&#x228;" horiz-adv-x="405" 
d="M430 667l-20 -157h-152l-12 -97h137l-19 -151h-136l-13 -102h152l-19 -160h-330l82 667h330zM270 -113l-126 -124l-77 53l107 137z" />
    <glyph glyph-name="uni0229" unicode="&#x229;" horiz-adv-x="474" 
d="M266 157h166c-35 -106 -114 -167 -225 -167c-120 0 -184 74 -184 191c0 144 90 295 248 295c120 0 180 -87 180 -200c0 -27 -4 -53 -8 -79h-250c-1 -6 -1 -13 -1 -19c0 -22 3 -53 32 -53c20 0 36 15 42 32zM207 290h79c0 4 1 8 1 12c0 22 -8 47 -34 47
c-30 0 -43 -34 -46 -59zM285 -106l-126 -117l-71 54l102 122z" />
    <glyph glyph-name="uni0237" unicode="&#x237;" horiz-adv-x="251" 
d="M241 467l-84 -682h-170l82 682h172z" />
    <glyph glyph-name="uni0259" unicode="&#x259;" horiz-adv-x="482" 
d="M201 308l-154 38c18 37 46 69 78 91s77 40 138 40c36 0 94 -6 138 -48c51 -48 57 -118 57 -155c0 -86 -29 -173 -84 -226c-50 -48 -106 -58 -161 -58c-48 0 -95 9 -134 51c-38 40 -55 103 -55 164c0 23 4 46 7 64h254c2 15 3 46 -11 61c-9 10 -21 11 -28 11
c-10 0 -18 -2 -27 -8c-7 -5 -14 -13 -18 -25zM272 176h-81c-1 -18 1 -39 11 -50c4 -4 12 -9 24 -9c10 0 17 3 24 10c11 11 19 32 22 49z" />
    <glyph glyph-name="afii57929" unicode="&#x2bc;" horiz-adv-x="246" 
d="M267 667l-100 -221h-104l58 221h146z" />
    <glyph glyph-name="circumflex" unicode="&#x2c6;" 
d="M311 690l116 -117l-64 -63l-65 66l-90 -70l-53 67z" />
    <glyph glyph-name="caron" unicode="&#x2c7;" 
d="M440 623l-159 -112l-118 118l71 61l64 -65l87 65z" />
    <glyph glyph-name="uni02C9" unicode="&#x2c9;" 
d="M469 647l-12 -94h-335l12 94h335z" />
    <glyph glyph-name="breve" unicode="&#x2d8;" 
d="M393 669h69c-19 -89 -83 -148 -176 -148c-79 0 -140 49 -140 131v17h69c12 -45 39 -53 82 -53c47 0 74 10 96 53z" />
    <glyph glyph-name="dotaccent" unicode="&#x2d9;" 
d="M372 606c0 -6 -3 -16 -6 -21c-12 -32 -44 -55 -78 -55c-38 0 -67 29 -67 67c0 45 39 84 84 84c46 0 67 -32 67 -75z" />
    <glyph glyph-name="ring" unicode="&#x2da;" horiz-adv-x="503" 
d="M203 619c0 53 43 96 96 96s96 -43 96 -96s-43 -96 -96 -96s-96 43 -96 96zM262 619c0 -21 16 -37 37 -37s37 16 37 37s-16 37 -37 37s-37 -16 -37 -37z" />
    <glyph glyph-name="ogonek" unicode="&#x2db;" 
d="M378 -92l-16 -70c-13 -6 -27 -9 -44 -9c-27 0 -55 9 -72 24c-13 12 -20 28 -20 49s9 39 19 54c10 14 25 32 37 44h60c-4 -6 -13 -17 -21 -31c-7 -11 -13 -23 -13 -37c0 -10 4 -17 9 -21c6 -5 16 -9 28 -9c10 0 22 2 33 6z" />
    <glyph glyph-name="tilde" unicode="&#x2dc;" 
d="M383 665h88c-6 -68 -44 -133 -120 -133c-47 0 -80 33 -111 33c-21 0 -28 -17 -31 -35h-89c2 19 5 38 12 56c17 42 56 76 103 76c50 0 81 -33 116 -33c22 0 29 17 32 36z" />
    <glyph glyph-name="hungarumlaut" unicode="&#x2dd;" 
d="M516 678l-105 -148h-88l65 148h128zM351 678l-104 -148h-88l65 148h127z" />
    <glyph glyph-name="acutecomb" unicode="&#x301;" horiz-adv-x="2" 
d="M-69 678l-105 -148h-98l65 148h138z" />
    <glyph glyph-name="uni0394" unicode="&#x394;" horiz-adv-x="667" 
d="M622 0h-634l245 667h141zM434 118l-130 390l-130 -390h260z" />
    <glyph glyph-name="uni0394" unicode="&#x2206;" horiz-adv-x="667" 
d="M622 0h-634l245 667h141zM434 118l-130 390l-130 -390h260z" />
    <glyph glyph-name="uni03A9" unicode="&#x3a9;" horiz-adv-x="667" 
d="M633 0h-270v104c98 53 134 140 134 248c0 101 -54 214 -169 214s-169 -113 -169 -214c0 -108 36 -196 135 -248v-104h-271v117h136c-97 60 -136 136 -136 249c0 177 124 317 305 317s305 -140 305 -317c0 -73 -18 -141 -68 -196c-19 -21 -43 -38 -68 -53h136v-117z" />
    <glyph glyph-name="uni03A9" unicode="&#x2126;" horiz-adv-x="667" 
d="M633 0h-270v104c98 53 134 140 134 248c0 101 -54 214 -169 214s-169 -113 -169 -214c0 -108 36 -196 135 -248v-104h-271v117h136c-97 60 -136 136 -136 249c0 177 124 317 305 317s305 -140 305 -317c0 -73 -18 -141 -68 -196c-19 -21 -43 -38 -68 -53h136v-117z" />
    <glyph glyph-name="pi" unicode="&#x3c0;" horiz-adv-x="708" 
d="M672 327h-76v-327h-172v327h-135v-327h-172v327h-77v140h632v-140z" />
    <glyph glyph-name="afii10023" unicode="&#x401;" horiz-adv-x="410" 
d="M430 667l-20 -157h-152l-12 -97h137l-19 -151h-136l-13 -102h152l-19 -160h-330l82 667h330zM439 793c0 -42 -39 -80 -81 -80c-36 0 -63 28 -63 64c0 43 37 80 80 80c37 0 64 -27 64 -64zM254 785c0 -6 -3 -15 -5 -20c-12 -30 -43 -52 -75 -52c-37 0 -64 27 -64 64
c0 43 38 80 81 80s63 -32 63 -72z" />
    <glyph glyph-name="afii10051" unicode="&#x402;" horiz-adv-x="581" 
d="M76 0l63 507h-99l20 160h429l-20 -160h-154l-8 -65c-3 -26 -5 -40 -13 -64c47 28 84 33 109 33c59 0 94 -29 113 -53c24 -30 40 -73 40 -133c0 -81 -28 -158 -71 -198c-41 -39 -91 -43 -123 -43c-26 0 -49 4 -74 14l31 142c7 -6 17 -9 24 -9c10 0 18 6 24 14
c9 12 13 38 13 54c0 13 -1 30 -12 43c-7 9 -17 15 -30 15c-18 0 -37 -8 -56 -17l-29 -240h-177z" />
    <glyph glyph-name="afii10052" unicode="&#x403;" horiz-adv-x="382" 
d="M413 667l-19 -157h-136l-63 -510h-177l82 667h313zM407 868l-105 -148h-98l65 148h138z" />
    <glyph glyph-name="afii10053" unicode="&#x404;" horiz-adv-x="485" 
d="M446 210l-32 -189c-47 -26 -91 -33 -130 -33c-52 0 -117 9 -171 65c-41 42 -75 114 -75 218c0 113 39 248 123 329c59 57 128 79 207 79c65 0 106 -18 132 -32l-23 -189c-11 14 -27 29 -39 37c-19 12 -42 17 -63 17c-36 0 -64 -11 -86 -32c-19 -18 -34 -43 -42 -67h164
l-20 -149h-165c1 -32 15 -60 32 -77c23 -22 53 -27 74 -27c23 0 44 4 64 13c16 7 34 19 50 37z" />
    <glyph glyph-name="afii10054" unicode="&#x405;" horiz-adv-x="398" 
d="M408 645l-25 -204c-18 36 -52 73 -95 73c-24 0 -53 -18 -53 -44c0 -59 140 -87 140 -224s-100 -258 -242 -258c-44 0 -87 11 -127 29l26 209c23 -38 57 -73 104 -73c29 0 58 18 58 50c0 60 -138 87 -138 231c0 123 101 245 228 245c44 0 86 -13 124 -34z" />
    <glyph glyph-name="afii10055" unicode="&#x406;" horiz-adv-x="269" 
d="M277 667l-82 -667h-177l82 667h177z" />
    <glyph glyph-name="afii10056" unicode="&#x407;" horiz-adv-x="269" 
d="M277 667l-82 -667h-177l82 667h177zM317 800c0 -42 -27 -80 -57 -80c-25 0 -44 28 -44 64c0 43 26 80 56 80c26 0 45 -27 45 -64zM184 792c0 -6 -2 -15 -4 -20c-8 -30 -30 -52 -52 -52c-26 0 -45 27 -45 64c0 43 27 80 57 80s44 -32 44 -72z" />
    <glyph glyph-name="afii10057" unicode="&#x408;" horiz-adv-x="349" 
d="M357 667l-57 -463c-6 -45 -12 -86 -37 -125c-40 -64 -103 -91 -177 -91c-40 0 -75 8 -113 22l23 186c15 -23 37 -39 66 -39c48 0 60 42 65 82l52 428h178z" />
    <glyph glyph-name="afii10058" unicode="&#x409;" horiz-adv-x="803" 
d="M527 0h-201l62 503h-80l-27 -221c-13 -106 -33 -190 -82 -240c-46 -47 -102 -53 -147 -53c-28 0 -48 2 -72 8l22 178c7 -7 18 -16 37 -16c16 0 32 6 42 15c20 19 27 54 32 97l49 396h421l-30 -245h9c69 0 131 -13 174 -55c25 -25 52 -66 52 -133c0 -65 -24 -127 -65 -168
c-58 -57 -134 -66 -196 -66zM535 278l-16 -133c28 -4 57 7 73 24c9 9 18 26 18 51s-11 39 -20 46c-13 10 -36 15 -55 12z" />
    <glyph glyph-name="afii10059" unicode="&#x40a;" horiz-adv-x="758" 
d="M482 0h-201l33 278h-86l-33 -278h-177l82 667h177l-30 -245h86l30 245h175l-30 -245h9c69 0 131 -13 174 -55c25 -25 52 -66 52 -133c0 -65 -24 -127 -65 -168c-58 -57 -134 -66 -196 -66zM490 278l-16 -133c28 -4 57 7 73 24c9 9 18 26 18 51s-11 39 -20 46
c-13 10 -36 15 -55 12z" />
    <glyph glyph-name="afii10060" unicode="&#x40b;" horiz-adv-x="569" 
d="M75 0l64 507h-99l20 160h429l-20 -160h-154l-15 -107c30 11 58 15 90 15c34 0 80 -7 114 -40c33 -32 40 -73 40 -106c0 -24 -4 -48 -7 -76l-23 -193h-176l20 158c3 27 5 39 5 50s-2 26 -10 35c-6 7 -17 12 -31 12s-29 -5 -40 -11l-30 -244h-177z" />
    <glyph glyph-name="afii10061" unicode="&#x40c;" horiz-adv-x="533" 
d="M564 667l-181 -322l117 -345h-191l-79 319l-35 -319h-177l82 667h177l-40 -298l140 298h187zM472 868l-105 -148h-98l65 148h138z" />
    <glyph glyph-name="afii10062" unicode="&#x40e;" 
d="M54 667h184l23 -109c11 -50 16 -94 17 -141c14 50 29 96 49 146l41 104h186l-318 -667h-177l108 230zM377 874l125 -37c-14 -56 -48 -85 -72 -99c-38 -23 -85 -27 -121 -27c-38 0 -83 5 -118 26c-25 15 -59 45 -73 99l127 38c2 -14 10 -32 20 -41c8 -7 22 -15 47 -15
s39 9 47 17c9 10 16 27 18 39z" />
    <glyph glyph-name="afii10145" unicode="&#x40f;" horiz-adv-x="530" 
d="M277 667l-62 -504h84l62 504h177l-82 -667h-139l-16 -130h-160l16 130h-139l82 667h177z" />
    <glyph glyph-name="afii10017" unicode="&#x410;" horiz-adv-x="524" 
d="M491 0h-183l-3 85h-119l-25 -85h-184l240 667h217zM300 305v87c0 38 2 77 3 115c-8 -31 -14 -63 -23 -94c-18 -62 -34 -124 -53 -186h75c-1 26 -2 52 -2 78z" />
    <glyph glyph-name="afii10018" unicode="&#x411;" horiz-adv-x="491" 
d="M222 0h-204l82 667h367l-19 -157h-190l-13 -104h10c69 0 133 -12 175 -54c28 -28 46 -67 46 -122c0 -66 -22 -125 -64 -165c-58 -56 -136 -65 -190 -65zM228 272l-15 -127c22 -4 50 3 65 19c13 13 20 37 20 56c0 24 -11 36 -16 40c-17 16 -44 13 -54 12z" />
    <glyph glyph-name="afii10019" unicode="&#x412;" horiz-adv-x="522" 
d="M100 667h206c111 0 206 -38 206 -165c0 -89 -49 -152 -140 -160c78 -11 117 -45 117 -127c0 -127 -99 -215 -223 -215h-248zM259 522l-14 -114c4 -1 8 -1 12 -1c41 0 77 22 77 66c0 36 -23 50 -56 50c-6 0 -13 0 -19 -1zM229 272l-16 -127c5 -1 10 -1 15 -1
c44 0 82 27 82 74c0 40 -32 55 -67 55c-5 0 -9 -1 -14 -1z" />
    <glyph glyph-name="afii10020" unicode="&#x413;" horiz-adv-x="382" 
d="M413 667l-19 -157h-136l-63 -510h-177l82 667h313z" />
    <glyph glyph-name="afii10021" unicode="&#x414;" horiz-adv-x="583" 
d="M152 667h411l-63 -509h56l-35 -288h-152l16 130h-247l-16 -130h-152l36 288c22 5 42 16 56 30c35 35 44 100 49 142zM297 509l-21 -169c-10 -82 -21 -114 -29 -131c-9 -18 -23 -36 -43 -51h123l43 351h-73z" />
    <glyph glyph-name="afii10022" unicode="&#x415;" horiz-adv-x="405" 
d="M430 667l-20 -157h-152l-12 -97h137l-19 -151h-136l-13 -102h152l-19 -160h-330l82 667h330z" />
    <glyph glyph-name="afii10024" unicode="&#x416;" horiz-adv-x="777" 
d="M709 0h-182l-61 321l-34 -321h-170l45 321l-140 -321h-182l177 349l-98 318h180l69 -300l31 300h170l-42 -300l142 300h178l-176 -324z" />
    <glyph glyph-name="afii10025" unicode="&#x417;" horiz-adv-x="452" 
d="M70 453l24 190c52 30 100 36 139 36c76 0 128 -22 163 -58c36 -37 46 -80 46 -123c0 -33 -6 -79 -40 -114c-22 -22 -58 -40 -96 -45c41 0 70 -18 86 -34c29 -29 34 -66 34 -92c0 -58 -25 -122 -69 -163c-45 -42 -111 -62 -180 -62c-47 0 -96 11 -157 43l25 201
c13 -22 32 -44 49 -57c26 -20 52 -23 69 -23c18 0 40 5 53 17c8 7 17 20 17 42c0 20 -9 33 -24 43c-19 12 -42 12 -58 12h-26l17 148h24c19 0 48 2 65 11c24 13 26 34 26 42c0 17 -9 28 -18 35c-14 11 -38 15 -55 15c-19 0 -43 -7 -61 -18c-15 -9 -39 -31 -53 -46z" />
    <glyph glyph-name="afii10026" unicode="&#x418;" horiz-adv-x="557" 
d="M18 0l82 667h170l-23 -185c-14 -115 -36 -189 -47 -225c28 66 63 140 92 195l115 215h158l-82 -667h-170l22 178c6 50 20 137 37 214c-22 -64 -45 -112 -87 -190l-109 -202h-158z" />
    <glyph glyph-name="afii10027" unicode="&#x419;" horiz-adv-x="557" 
d="M18 0l82 667h170l-23 -185c-14 -115 -36 -189 -47 -225c28 66 63 140 92 195l115 215h158l-82 -667h-170l22 178c6 50 20 137 37 214c-22 -64 -45 -112 -87 -190l-109 -202h-158zM417 874l125 -37c-14 -56 -48 -85 -72 -99c-38 -23 -85 -27 -121 -27c-38 0 -83 5 -118 26
c-25 15 -59 45 -73 99l127 38c2 -14 10 -32 20 -41c8 -7 22 -15 47 -15s39 9 47 17c9 10 16 27 18 39z" />
    <glyph glyph-name="afii10028" unicode="&#x41a;" horiz-adv-x="533" 
d="M564 667l-181 -322l117 -345h-191l-79 319l-35 -319h-177l82 667h177l-40 -298l140 298h187z" />
    <glyph glyph-name="afii10029" unicode="&#x41b;" horiz-adv-x="580" 
d="M162 667h426l-82 -667h-180l62 503h-80l-27 -221c-13 -106 -33 -190 -82 -240c-46 -47 -102 -53 -147 -53c-28 0 -48 2 -72 8l22 178c7 -7 18 -16 37 -16c16 0 32 6 42 15c20 19 27 54 32 97z" />
    <glyph glyph-name="afii10030" unicode="&#x41c;" horiz-adv-x="755" 
d="M712 667l-18 -667h-185c11 142 23 283 35 425c-36 -143 -82 -284 -126 -425h-145l-11 321c0 11 -1 23 -1 34c0 23 1 47 2 70c-19 -142 -46 -284 -71 -425h-190l158 667h221l9 -225c1 -17 2 -33 2 -50c0 -27 -2 -53 -3 -80c27 121 67 237 104 355h219z" />
    <glyph glyph-name="afii10031" unicode="&#x41d;" horiz-adv-x="531" 
d="M539 667l-82 -667h-177l33 268h-85l-33 -268h-177l82 667h177l-29 -236h85l29 236h177z" />
    <glyph glyph-name="afii10032" unicode="&#x41e;" horiz-adv-x="558" 
d="M337 679c56 0 103 -18 140 -57c60 -63 69 -153 69 -208c0 -113 -33 -266 -125 -356c-56 -55 -115 -70 -167 -70c-43 0 -99 13 -146 62c-63 65 -70 147 -70 213c0 165 58 279 123 342c63 62 130 74 176 74zM315 511c-9 0 -22 -5 -35 -19s-28 -39 -41 -91
c-12 -47 -17 -90 -17 -139c0 -59 11 -83 22 -94c8 -8 16 -11 26 -11c16 0 25 7 33 16c25 28 40 82 44 99c11 45 15 91 15 134c0 69 -14 89 -22 96s-16 9 -25 9z" />
    <glyph glyph-name="afii10033" unicode="&#x41f;" horiz-adv-x="531" 
d="M539 667l-82 -667h-177l62 504h-85l-62 -504h-177l82 667h439z" />
    <glyph glyph-name="afii10034" unicode="&#x420;" horiz-adv-x="498" 
d="M100 667h172c132 0 238 -43 238 -193c0 -68 -25 -141 -73 -190c-56 -57 -137 -72 -215 -65l-27 -219h-177zM241 368h9c49 0 79 41 79 87c0 36 -18 66 -57 66h-13z" />
    <glyph glyph-name="afii10035" unicode="&#x421;" horiz-adv-x="438" 
d="M461 662l-23 -190c-22 25 -42 40 -77 40c-107 0 -140 -138 -140 -223c0 -63 21 -127 95 -127c38 0 69 19 97 43l-34 -193c-39 -16 -67 -24 -109 -24c-159 0 -232 127 -232 272c0 200 109 419 335 419c36 0 55 -3 88 -17z" />
    <glyph glyph-name="afii10036" unicode="&#x422;" horiz-adv-x="377" 
d="M427 667l-20 -160h-98l-62 -507h-177l62 507h-98l20 160h373z" />
    <glyph glyph-name="afii10037" unicode="&#x423;" 
d="M54 667h184l23 -109c11 -50 16 -94 17 -141c14 50 29 96 49 146l41 104h186l-318 -667h-177l108 230z" />
    <glyph glyph-name="afii10038" unicode="&#x424;" horiz-adv-x="703" 
d="M232 0l11 90c-57 6 -106 31 -140 63c-54 52 -65 114 -65 169c0 112 43 177 75 211c44 46 114 80 195 85l10 86h176l-10 -86c50 -6 105 -28 142 -65c19 -19 65 -72 65 -174c0 -93 -35 -166 -78 -208c-51 -50 -131 -76 -194 -81l-11 -90h-176zM451 463l-26 -217
c30 1 54 14 69 30c19 21 31 54 31 96c0 20 -2 47 -23 68c-12 12 -31 21 -51 23zM276 245l27 218c-30 -1 -51 -14 -63 -25c-23 -22 -36 -58 -36 -98c0 -16 3 -48 24 -70c13 -13 31 -22 48 -25z" />
    <glyph glyph-name="afii10039" unicode="&#x425;" horiz-adv-x="509" 
d="M552 667l-190 -321l119 -346h-197c-10 41 -18 83 -26 124c-4 18 -8 37 -10 55c-25 -61 -54 -120 -83 -179h-193l202 346l-111 321h197c7 -37 15 -73 22 -110c3 -16 5 -32 9 -48c17 54 40 106 62 158h199z" />
    <glyph glyph-name="afii10040" unicode="&#x426;" horiz-adv-x="558" 
d="M277 667l-62 -504h82l62 504h177l-62 -504h70l-37 -293h-160l17 130h-346l82 667h177z" />
    <glyph glyph-name="afii10041" unicode="&#x427;" horiz-adv-x="521" 
d="M270 0l33 269c-28 -8 -53 -11 -79 -11c-32 0 -77 5 -113 33c-27 21 -51 57 -51 112c0 18 4 59 6 74l24 190h176l-22 -178c-2 -18 -3 -25 -3 -30c0 -14 5 -25 13 -32c9 -8 23 -11 35 -11c8 0 20 1 33 7l30 244h177l-82 -667h-177z" />
    <glyph glyph-name="afii10042" unicode="&#x428;" horiz-adv-x="780" 
d="M276 667l-62 -504h80l62 504h176l-62 -504h80l62 504h176l-82 -667h-688l82 667h176z" />
    <glyph glyph-name="afii10043" unicode="&#x429;" horiz-adv-x="820" 
d="M278 667l-62 -504h80l62 504h176l-62 -504h80l62 504h176l-62 -504h78l-37 -293h-160l17 130h-606l82 667h176z" />
    <glyph glyph-name="afii10044" unicode="&#x42a;" horiz-adv-x="555" 
d="M279 0h-203l62 507h-83l20 160h260l-30 -245h9c69 0 131 -13 174 -55c25 -25 52 -66 52 -133c0 -65 -24 -127 -65 -168c-58 -57 -134 -66 -196 -66zM287 278l-16 -133c28 -4 57 7 73 24c9 9 18 26 18 51s-11 39 -20 46c-13 10 -36 15 -55 12z" />
    <glyph glyph-name="afii10045" unicode="&#x42b;" horiz-adv-x="751" 
d="M674 0h-177l79 667h183zM220 0h-202l82 667h177l-30 -245h8c69 0 131 -13 174 -55c25 -24 52 -65 52 -131c0 -67 -25 -130 -65 -170c-58 -57 -134 -66 -196 -66zM229 278l-16 -133c28 -4 57 7 73 24c9 9 18 26 18 51s-11 39 -20 46c-13 10 -36 15 -55 12z" />
    <glyph glyph-name="afii10046" unicode="&#x42c;" horiz-adv-x="497" 
d="M221 0h-203l82 667h177l-30 -245h9c69 0 131 -13 174 -55c25 -25 52 -66 52 -133c0 -65 -24 -127 -65 -168c-58 -57 -134 -66 -196 -66zM229 278l-16 -133c28 -4 57 7 73 24c9 9 18 26 18 51s-11 39 -20 46c-13 10 -36 15 -55 12z" />
    <glyph glyph-name="afii10047" unicode="&#x42d;" horiz-adv-x="496" 
d="M40 29l11 193c10 -16 24 -31 43 -44s39 -20 66 -20c35 0 61 14 77 28c20 18 35 48 40 75h-151l19 151h150c-4 26 -16 56 -36 74c-17 15 -43 26 -76 26c-21 0 -41 -5 -61 -16c-16 -9 -32 -22 -44 -35l24 188c42 23 80 30 117 30c92 0 150 -35 184 -69
c49 -49 81 -133 81 -230c0 -103 -34 -240 -123 -323c-50 -47 -106 -69 -183 -69c-57 0 -90 14 -138 41z" />
    <glyph glyph-name="afii10048" unicode="&#x42e;" horiz-adv-x="810" 
d="M247 425h69c16 73 53 138 97 182c51 50 107 72 174 72c59 0 105 -18 142 -57c60 -63 69 -153 69 -208c0 -115 -33 -266 -125 -357c-49 -49 -101 -69 -172 -69c-46 0 -95 11 -137 53s-70 114 -70 227h-66l-33 -268h-177l82 667h177zM567 511c-9 0 -22 -5 -35 -19
s-28 -39 -41 -91c-12 -47 -17 -90 -17 -139c0 -59 11 -83 22 -94c8 -8 16 -11 26 -11c16 0 25 7 33 16c25 28 40 82 44 99c11 45 15 91 15 134c0 69 -14 89 -22 96s-16 9 -25 9z" />
    <glyph glyph-name="afii10049" unicode="&#x42f;" horiz-adv-x="541" 
d="M0 0l155 269c-11 5 -41 19 -63 50c-23 33 -28 72 -28 102c0 75 27 135 63 172c58 59 149 74 250 74h172l-82 -667h-177l19 147c6 44 7 63 18 120l-128 -267h-199zM334 358l19 159c-17 2 -46 2 -70 -20c-15 -13 -28 -35 -28 -70c0 -12 3 -33 19 -49c14 -13 37 -20 54 -20
h6z" />
    <glyph glyph-name="afii10065" unicode="&#x430;" horiz-adv-x="489" 
d="M479 467l-57 -467h-171c5 26 10 53 15 79c-30 -50 -68 -89 -130 -89c-92 0 -113 104 -113 177c0 43 4 86 14 128c19 80 70 182 165 182c57 0 81 -36 99 -84c1 25 3 49 4 74h174zM282 288c0 19 -3 46 -28 46c-48 0 -59 -111 -59 -146c0 -22 2 -55 31 -55
c47 0 56 121 56 155z" />
    <glyph glyph-name="afii10066" unicode="&#x431;" horiz-adv-x="503" 
d="M376 557l-38 -11c-34 -10 -72 -20 -102 -49c-24 -23 -44 -58 -49 -103c10 21 27 45 47 59c25 18 53 24 81 24c51 0 85 -21 106 -42c34 -35 51 -93 51 -152c0 -63 -17 -173 -84 -237c-52 -49 -109 -56 -159 -56c-42 0 -90 6 -131 48c-51 52 -58 126 -58 186
c0 78 13 146 30 211c14 52 36 121 90 174c49 48 106 65 162 80c20 5 50 12 67 32c9 10 12 21 13 29h131c-3 -43 -20 -95 -50 -131c-31 -37 -71 -52 -107 -62zM270 346c-11 0 -19 -6 -24 -11c-25 -25 -40 -94 -40 -140c0 -7 1 -39 11 -57c8 -14 18 -17 26 -17
c11 0 20 6 25 12c27 28 39 97 39 140c0 14 -2 39 -11 56c-4 8 -12 17 -26 17z" />
    <glyph glyph-name="afii10067" unicode="&#x432;" horiz-adv-x="476" 
d="M68 467h200c47 0 114 -1 153 -40c13 -14 31 -39 31 -83c0 -38 -13 -60 -26 -73c-21 -21 -57 -31 -83 -31v-2c27 1 59 -8 77 -27c11 -12 22 -31 22 -64c0 -37 -10 -69 -35 -96c-41 -44 -100 -51 -145 -51h-251zM216 280h7c16 0 36 0 50 12c9 8 15 21 15 34
c0 11 -6 20 -14 26c-11 7 -28 7 -41 7h-7zM195 108h6c18 0 36 1 48 9s19 22 19 37c0 19 -12 27 -17 30c-5 2 -14 6 -38 6h-8z" />
    <glyph glyph-name="afii10068" unicode="&#x433;" horiz-adv-x="364" 
d="M351 327h-128l-40 -327h-172l57 467h300z" />
    <glyph glyph-name="afii10069" unicode="&#x434;" horiz-adv-x="533" 
d="M122 467h378l-40 -331h53l-32 -251h-138l15 115h-236l-14 -115h-138l31 251c20 4 42 14 55 27c30 28 39 80 45 132zM294 136l24 195h-61l-10 -79c-3 -22 -7 -47 -17 -70c-10 -22 -24 -36 -38 -46h102z" />
    <glyph glyph-name="afii10070" unicode="&#x435;" horiz-adv-x="474" 
d="M266 157h166c-35 -106 -114 -167 -225 -167c-120 0 -184 74 -184 191c0 144 90 295 248 295c120 0 180 -87 180 -200c0 -27 -4 -53 -8 -79h-250c-1 -6 -1 -13 -1 -19c0 -22 3 -53 32 -53c20 0 36 15 42 32zM207 290h79c0 4 1 8 1 12c0 22 -8 47 -34 47
c-30 0 -43 -34 -46 -59z" />
    <glyph glyph-name="afii10072" unicode="&#x436;" horiz-adv-x="723" 
d="M686 0h-187l-26 96c-11 41 -19 75 -25 120l-27 -216h-168l27 216c-18 -44 -36 -84 -55 -120l-50 -96h-192l145 239l-79 228h178l30 -104c5 -18 17 -62 26 -118l27 222h168l-27 -222c22 54 38 83 56 118l54 104h180l-137 -228z" />
    <glyph glyph-name="afii10073" unicode="&#x437;" horiz-adv-x="435" 
d="M108 303l-55 127c21 11 49 24 74 32c35 11 68 15 101 15s103 -4 147 -48c22 -22 34 -49 34 -85c0 -39 -15 -62 -29 -75c-17 -16 -46 -28 -74 -30c24 -2 52 -13 68 -28c12 -11 25 -32 25 -65c0 -35 -12 -68 -41 -99c-46 -48 -102 -57 -157 -57c-33 0 -70 3 -110 18
c-27 10 -58 28 -81 45l82 121c7 -13 19 -27 37 -38c16 -10 31 -14 49 -14c20 0 30 7 32 8c6 4 12 12 12 23c0 9 -4 20 -20 26c-12 4 -34 5 -49 5h-20l13 109h30c10 0 30 1 41 4c20 6 22 19 22 25s-3 14 -13 20c-8 5 -22 7 -33 7c-17 0 -32 -4 -46 -12
c-21 -12 -36 -31 -39 -34z" />
    <glyph glyph-name="afii10074" unicode="&#x438;" horiz-adv-x="504" 
d="M68 467h166l-16 -131c-4 -35 -12 -81 -22 -123c5 11 33 68 46 90l94 164h158l-57 -467h-166l15 125c4 34 18 108 22 129c-11 -26 -32 -70 -46 -94l-93 -160h-158z" />
    <glyph glyph-name="afii10075" unicode="&#x439;" horiz-adv-x="504" 
d="M68 467h166l-16 -131c-4 -35 -12 -81 -22 -123c5 11 33 68 46 90l94 164h158l-57 -467h-166l15 125c4 34 18 108 22 129c-11 -26 -32 -70 -46 -94l-93 -160h-158zM351 677l111 -26c-13 -46 -42 -82 -72 -102c-34 -22 -72 -25 -100 -25c-35 0 -71 4 -103 27
c-29 20 -53 56 -60 100l118 26c-1 -14 3 -32 12 -42c10 -11 23 -13 34 -13c12 0 27 2 38 13c11 10 19 29 22 42z" />
    <glyph glyph-name="afii10076" unicode="&#x43a;" horiz-adv-x="487" 
d="M456 0h-190l-24 80c-8 27 -14 39 -34 123l-25 -203h-172l57 467h172l-27 -221c24 59 54 118 70 147l40 74h182l-139 -234z" />
    <glyph glyph-name="afii10077" unicode="&#x43b;" horiz-adv-x="506" 
d="M496 467l-57 -467h-172l40 327h-60l-13 -104c-8 -64 -23 -150 -72 -196c-37 -34 -82 -38 -115 -38c-27 0 -48 4 -67 10l17 139c7 -5 13 -7 24 -7c13 0 25 4 32 10c16 12 25 39 31 90l29 236h383z" />
    <glyph glyph-name="afii10078" unicode="&#x43c;" horiz-adv-x="636" 
d="M347 0h-118l-17 169c-4 35 -6 66 -5 107c-5 -53 -11 -78 -17 -108l-33 -168h-167l118 467h182l16 -156c4 -36 7 -66 6 -117c3 14 14 62 32 112l56 161h182l4 -467h-167l9 155c2 38 5 81 9 121c-10 -48 -20 -79 -34 -118z" />
    <glyph glyph-name="afii10079" unicode="&#x43d;" horiz-adv-x="486" 
d="M240 467l-19 -159h64l19 159h172l-57 -467h-172l21 168h-64l-21 -168h-172l57 467h172z" />
    <glyph glyph-name="afii10080" unicode="&#x43e;" horiz-adv-x="480" 
d="M270 477c67 0 109 -26 131 -47c48 -46 55 -112 55 -152c0 -86 -29 -173 -84 -226c-29 -28 -81 -62 -164 -62c-42 0 -88 8 -127 44c-50 46 -57 109 -57 156c0 132 66 203 85 222c31 30 83 65 161 65zM254 346c-11 0 -19 -6 -24 -11c-25 -25 -40 -94 -40 -140
c0 -7 1 -39 11 -57c8 -14 18 -17 26 -17c11 0 20 6 25 12c27 28 39 97 39 140c0 14 -2 39 -11 56c-4 8 -12 17 -26 17z" />
    <glyph glyph-name="afii10081" unicode="&#x43f;" horiz-adv-x="484" 
d="M417 0h-172l40 327h-62l-40 -327h-172l57 467h406z" />
    <glyph glyph-name="afii10082" unicode="&#x440;" horiz-adv-x="489" 
d="M241 467l-12 -66c28 43 60 76 115 76c98 0 123 -109 123 -188c0 -41 -4 -82 -15 -122c-20 -78 -73 -177 -165 -177c-51 0 -78 30 -99 73c0 -26 -3 -51 -6 -77l-25 -201h-171l85 682h170zM290 272c0 20 -3 62 -31 62c-44 0 -54 -104 -54 -136c0 -19 2 -62 29 -62
c43 0 56 104 56 136z" />
    <glyph glyph-name="afii10083" unicode="&#x441;" horiz-adv-x="298" 
d="M309 475l-19 -152c-56 -4 -87 -44 -87 -98c0 -33 17 -73 55 -73h11l-19 -159c-15 -2 -31 -3 -46 -3c-123 0 -179 98 -179 210c0 140 102 277 250 277c11 0 23 -1 34 -2z" />
    <glyph glyph-name="afii10084" unicode="&#x442;" horiz-adv-x="376" 
d="M398 467l-17 -140h-94l-41 -327h-170l40 327h-90l17 140h355z" />
    <glyph glyph-name="afii10085" unicode="&#x443;" horiz-adv-x="458" 
d="M487 467l-301 -682h-176l110 234l-82 448h172c9 -78 22 -156 22 -235c0 -10 -1 -20 -1 -30c15 55 28 111 48 164l38 101h170z" />
    <glyph glyph-name="afii10086" unicode="&#x444;" horiz-adv-x="641" 
d="M179 -215l27 208c-64 3 -104 35 -125 56c-25 26 -57 75 -57 162c0 98 39 159 74 193s93 65 167 70l25 193h170l-25 -193c53 -9 96 -35 125 -65c46 -49 57 -108 57 -154c0 -76 -25 -151 -73 -198c-36 -35 -95 -64 -168 -64l-27 -208h-170zM403 334l-25 -201
c24 1 44 10 56 22c22 21 33 57 33 94c0 28 -7 47 -17 60c-9 12 -26 22 -47 25zM238 133l25 201c-21 -1 -41 -10 -54 -22c-21 -19 -34 -55 -34 -96c0 -22 5 -46 18 -62c7 -9 22 -21 45 -21z" />
    <glyph glyph-name="afii10087" unicode="&#x445;" horiz-adv-x="475" 
d="M491 467l-163 -223l119 -244h-198c-10 36 -19 73 -25 110c-17 -38 -39 -75 -61 -110h-191l169 240l-104 227h195c7 -34 15 -67 20 -101c15 35 34 67 50 101h189z" />
    <glyph glyph-name="afii10088" unicode="&#x446;" horiz-adv-x="507" 
d="M304 467h172l-40 -327h61l-31 -255h-142l14 115h-327l57 467h172l-40 -327h64z" />
    <glyph glyph-name="afii10089" unicode="&#x447;" horiz-adv-x="476" 
d="M237 0l20 161c-24 -7 -46 -10 -71 -10c-59 0 -93 19 -112 37c-21 21 -34 53 -34 91c0 13 3 50 5 65l15 123h170l-15 -122c-1 -7 -2 -21 -2 -26c0 -8 1 -17 9 -23c7 -6 16 -7 24 -7c10 0 18 2 27 8l21 170h172l-57 -467h-172z" />
    <glyph glyph-name="afii10090" unicode="&#x448;" horiz-adv-x="714" 
d="M302 467h168l-40 -327h66l40 327h168l-57 -467h-636l57 467h168l-40 -327h66z" />
    <glyph glyph-name="afii10091" unicode="&#x449;" horiz-adv-x="741" 
d="M302 467h168l-40 -327h66l40 327h168l-40 -327h67l-31 -255h-142l14 115h-561l57 467h168l-40 -327h66z" />
    <glyph glyph-name="afii10092" unicode="&#x44a;" horiz-adv-x="526" 
d="M279 301h53c37 0 92 -4 131 -36c23 -19 43 -50 43 -100c0 -44 -15 -90 -45 -119c-27 -26 -71 -46 -139 -46h-252l40 327h-80l17 140h252zM256 110h5c29 0 42 3 50 7c12 6 21 19 21 38c0 6 -2 16 -9 24c-12 13 -31 14 -51 14h-6z" />
    <glyph glyph-name="afii10093" unicode="&#x44b;" horiz-adv-x="694" 
d="M626 0h-172l57 467h172zM219 301h49c37 0 92 -4 131 -36c23 -19 43 -50 43 -100c0 -44 -15 -90 -45 -119c-27 -26 -71 -46 -139 -46h-248l57 467h172zM196 110h5c29 0 42 3 50 7c12 6 21 19 21 38c0 6 -2 16 -9 24c-12 13 -31 14 -51 14h-6z" />
    <glyph glyph-name="afii10094" unicode="&#x44c;" horiz-adv-x="466" 
d="M219 301h53c37 0 92 -4 131 -36c23 -19 43 -50 43 -100c0 -44 -15 -90 -45 -119c-27 -26 -71 -46 -139 -46h-252l57 467h172zM196 110h5c29 0 42 3 50 7c12 6 21 19 21 38c0 6 -2 16 -9 24c-12 13 -31 14 -51 14h-6z" />
    <glyph glyph-name="afii10095" unicode="&#x44d;" horiz-adv-x="389" 
d="M20 22l17 133c24 -27 53 -33 75 -33c16 0 36 2 53 15c10 8 23 23 27 45h-107l13 104h103c-3 17 -12 35 -26 45c-13 10 -32 14 -51 14c-18 0 -42 -4 -68 -23l17 135c37 16 68 20 95 20c34 0 95 -5 142 -54c33 -34 55 -90 55 -162c0 -53 -15 -146 -77 -210
c-45 -47 -94 -61 -152 -61c-53 0 -89 14 -116 32z" />
    <glyph glyph-name="afii10096" unicode="&#x44e;" horiz-adv-x="706" 
d="M217 306h55c13 55 42 94 76 122c44 36 90 49 144 49c34 0 91 -6 135 -48c48 -47 55 -112 55 -153c0 -91 -31 -175 -84 -227c-47 -45 -101 -59 -164 -59c-44 0 -93 10 -130 49c-28 29 -48 78 -49 131h-56l-20 -170h-168l57 467h168zM480 346c-11 0 -19 -6 -24 -11
c-25 -25 -40 -94 -40 -140c0 -7 1 -39 11 -57c8 -14 18 -17 26 -17c11 0 20 6 25 12c27 28 39 97 39 140c0 14 -2 39 -11 56c-4 8 -12 17 -26 17z" />
    <glyph glyph-name="afii10097" unicode="&#x44f;" horiz-adv-x="478" 
d="M0 0l104 162c-20 7 -37 20 -48 35c-18 25 -22 56 -22 76c0 57 19 105 50 137c49 51 113 57 201 57h183l-57 -467h-172l12 102c3 25 5 42 10 73c-12 -31 -18 -40 -25 -56l-55 -119h-181zM270 250l11 95h-9c-14 0 -35 1 -50 -12c-8 -7 -15 -19 -15 -37c0 -13 4 -25 15 -34
c14 -11 34 -12 42 -12h6z" />
    <glyph glyph-name="afii10071" unicode="&#x451;" horiz-adv-x="474" 
d="M266 157h166c-35 -106 -114 -167 -225 -167c-120 0 -184 74 -184 191c0 144 90 295 248 295c120 0 180 -87 180 -200c0 -27 -4 -53 -8 -79h-250c-1 -6 -1 -13 -1 -19c0 -22 3 -53 32 -53c20 0 36 15 42 32zM207 290h79c0 4 1 8 1 12c0 22 -8 47 -34 47
c-30 0 -43 -34 -46 -59zM452 610c0 -42 -39 -80 -81 -80c-36 0 -63 28 -63 64c0 43 37 80 80 80c37 0 64 -27 64 -64zM262 602c0 -6 -3 -15 -5 -20c-12 -30 -43 -52 -75 -52c-37 0 -64 27 -64 64c0 43 38 80 81 80s63 -32 63 -72z" />
    <glyph glyph-name="afii10099" unicode="&#x452;" horiz-adv-x="492" 
d="M20 0l64 499h-54l14 105h53l15 125h173l-16 -125h118l-14 -105h-118l-8 -74c-4 -33 -8 -62 -14 -90c8 17 20 37 40 58c26 26 55 42 94 42c33 0 53 -13 66 -26c22 -23 33 -60 33 -104c0 -26 -6 -78 -9 -98l-27 -200c-8 -62 -20 -134 -69 -179c-23 -21 -63 -43 -127 -43
c-23 0 -49 4 -74 10l18 145c11 -13 24 -15 31 -15c12 0 24 6 31 13c4 5 12 16 16 49l27 202c3 20 4 31 4 40c0 8 -1 19 -7 26c-4 5 -9 7 -15 7c-7 0 -16 -2 -25 -11c-14 -15 -18 -38 -20 -50l-27 -201h-173z" />
    <glyph glyph-name="afii10100" unicode="&#x453;" horiz-adv-x="364" 
d="M351 327h-128l-40 -327h-172l57 467h300zM369 678l-105 -148h-98l65 148h138z" />
    <glyph glyph-name="afii10101" unicode="&#x454;" horiz-adv-x="390" 
d="M343 140l-17 -133c-41 -15 -71 -17 -101 -17c-38 0 -94 4 -140 48c-35 34 -60 91 -60 167c0 77 27 153 78 205c52 53 111 67 171 67c35 0 68 -4 106 -24l-16 -132c-31 23 -58 26 -74 26c-21 0 -39 -5 -53 -15c-12 -8 -25 -22 -32 -44h105l-13 -106h-105
c3 -19 12 -34 23 -44c13 -11 32 -18 58 -18c19 0 45 4 70 20z" />
    <glyph glyph-name="afii10102" unicode="&#x455;" horiz-adv-x="389" 
d="M390 439l-74 -127c-16 19 -38 41 -65 41c-14 0 -30 -9 -30 -25c0 -53 142 -33 142 -157c0 -110 -101 -181 -204 -181c-64 0 -104 17 -159 49l78 129c18 -23 48 -49 79 -49c16 0 36 8 36 27c0 21 -24 28 -40 34c-56 22 -104 52 -104 119c0 110 108 178 209 178
c49 0 90 -14 132 -38z" />
    <glyph glyph-name="afii10103" unicode="&#x456;" horiz-adv-x="249" 
d="M273 624c0 -59 -54 -113 -113 -113c-50 0 -88 39 -88 89c0 60 53 113 113 113c51 0 88 -38 88 -89zM239 467l-57 -467h-171l58 467h170z" />
    <glyph glyph-name="afii10104" unicode="&#x457;" horiz-adv-x="249" 
d="M239 467l-57 -467h-171l58 467h170zM245 693c9 0 19 -5 26 -13c12 -13 17 -33 17 -52c0 -31 -10 -58 -27 -76c-10 -11 -23 -18 -35 -18c-9 0 -19 4 -27 12c-9 10 -17 27 -17 55c0 34 13 60 30 77c13 13 25 15 33 15zM117 693c10 0 20 -5 27 -13c11 -12 16 -32 16 -52
c0 -28 -10 -59 -26 -76c-10 -11 -23 -18 -35 -18c-10 0 -20 4 -28 12c-13 13 -18 36 -18 55c0 26 10 59 30 77c8 7 22 15 34 15z" />
    <glyph glyph-name="afii10105" unicode="&#x458;" horiz-adv-x="252" 
d="M274 624v-10c0 -8 -5 -22 -8 -29c-16 -42 -59 -74 -104 -74c-51 0 -88 38 -88 89c0 60 52 113 112 113c52 0 88 -38 88 -89zM242 467l-85 -682h-170l83 682h172z" />
    <glyph glyph-name="afii10106" unicode="&#x459;" horiz-adv-x="719" 
d="M472 301h53c37 0 92 -4 131 -36c23 -19 43 -50 43 -100c0 -44 -15 -90 -45 -119c-27 -26 -71 -46 -139 -46h-248l40 327h-60l-13 -104c-8 -64 -23 -150 -72 -196c-37 -34 -82 -38 -115 -38c-27 0 -48 4 -67 10l17 139c7 -5 13 -7 24 -7c13 0 25 4 32 10
c16 12 25 39 31 90l29 236h379zM449 110h5c29 0 42 3 50 7c12 6 21 19 21 38c0 6 -2 16 -9 24c-12 13 -31 14 -51 14h-6z" />
    <glyph glyph-name="afii10107" unicode="&#x45a;" horiz-adv-x="704" 
d="M457 301h53c37 0 92 -4 131 -36c23 -19 43 -50 43 -100c0 -44 -15 -90 -45 -119c-27 -26 -71 -46 -139 -46h-252l24 193h-65l-24 -193h-172l57 467h172l-19 -166h64l20 166h172zM434 110h5c29 0 42 3 50 7c12 6 21 19 21 38c0 6 -2 16 -9 24c-12 13 -31 14 -51 14h-6z
" />
    <glyph glyph-name="afii10108" unicode="&#x45b;" horiz-adv-x="489" 
d="M20 0l61 499h-54l14 105h53l15 125h173l-15 -125h118l-14 -105h-118l-8 -73c-4 -30 -9 -60 -16 -90c28 52 70 99 134 99c66 0 100 -55 100 -116c0 -14 -1 -29 -3 -43l-35 -276h-171l27 207c1 8 2 16 2 24c0 15 -5 31 -23 31c-33 0 -41 -44 -44 -69l-25 -193h-171z" />
    <glyph glyph-name="afii10109" unicode="&#x45c;" horiz-adv-x="487" 
d="M456 0h-190l-24 80c-8 27 -14 39 -34 123l-25 -203h-172l57 467h172l-27 -221c24 59 54 118 70 147l40 74h182l-139 -234zM437 678l-105 -148h-98l65 148h138z" />
    <glyph glyph-name="afii10110" unicode="&#x45e;" horiz-adv-x="458" 
d="M487 467l-301 -682h-176l110 234l-82 448h172c9 -78 22 -156 22 -235c0 -10 -1 -20 -1 -30c15 55 28 111 48 164l38 101h170zM332 677l111 -26c-13 -46 -42 -82 -72 -102c-34 -22 -72 -25 -100 -25c-35 0 -71 4 -103 27c-29 20 -53 56 -60 100l118 26
c-1 -14 3 -32 12 -42c10 -11 23 -13 34 -13c12 0 27 2 38 13c11 10 19 29 22 42z" />
    <glyph glyph-name="afii10193" unicode="&#x45f;" horiz-adv-x="486" 
d="M304 467h172l-57 -467h-133l-14 -115h-142l14 115h-133l57 467h172l-40 -327h64z" />
    <glyph glyph-name="afii10146" unicode="&#x462;" horiz-adv-x="538" 
d="M262 0h-203l61 489h-85l17 130h84l10 85h177l-11 -85h104l-16 -130h-104l-8 -73h9c68 0 128 -8 174 -53c27 -27 52 -68 52 -129c0 -67 -26 -133 -70 -174c-62 -57 -141 -60 -191 -60zM270 278l-16 -133c4 -1 8 -1 12 -1c24 0 47 10 61 25c9 9 18 26 18 51s-11 39 -20 46
c-13 10 -36 12 -55 12z" />
    <glyph glyph-name="afii10194" unicode="&#x463;" horiz-adv-x="498" 
d="M257 343l-5 -46h52c37 0 92 -4 131 -36c23 -19 43 -50 43 -100s-19 -90 -44 -115c-27 -26 -71 -46 -139 -46h-252l42 343h-60l15 124h60l25 200h172l-25 -200h97l-15 -124h-97zM229 110h5c29 0 42 3 50 7c12 6 21 19 21 38c0 6 -2 16 -9 24c-12 13 -31 14 -51 14h-6z" />
    <glyph glyph-name="afii10147" unicode="&#x472;" horiz-adv-x="558" 
d="M337 679c56 0 103 -18 140 -57c60 -63 69 -153 69 -208c0 -113 -33 -266 -125 -356c-56 -55 -115 -70 -167 -70c-43 0 -99 13 -146 62c-63 65 -70 147 -70 213c0 165 58 279 123 342c63 62 130 74 176 74zM240 407h122c3 28 -1 80 -22 99c-6 6 -15 9 -25 9
c-9 0 -22 -5 -35 -19c-20 -22 -35 -63 -40 -89zM348 276h-126c0 -42 4 -94 23 -113c7 -7 15 -10 25 -10c13 0 23 6 32 14c22 21 41 68 46 109z" />
    <glyph glyph-name="afii10195" unicode="&#x473;" horiz-adv-x="480" 
d="M270 477c67 0 109 -26 131 -47c48 -46 55 -112 55 -152c0 -86 -29 -173 -84 -226c-29 -28 -81 -62 -164 -62c-42 0 -88 8 -127 44c-50 46 -57 109 -57 156c0 132 66 203 85 222c31 30 83 65 161 65zM201 291h92c-1 14 -4 34 -10 45c-7 13 -17 18 -30 18
c-8 0 -17 -3 -25 -10c-12 -10 -23 -34 -27 -53zM282 185h-94c0 -16 3 -42 11 -55c7 -12 16 -17 28 -17s20 4 28 11c12 12 24 39 27 61z" />
    <glyph glyph-name="afii10148" unicode="&#x474;" horiz-adv-x="510" 
d="M564 667l-261 -667h-181l-68 667h186c5 -104 12 -208 12 -312c0 -41 -2 -82 -4 -123c30 148 78 291 123 435h193z" />
    <glyph glyph-name="afii10196" unicode="&#x475;" horiz-adv-x="439" 
d="M468 467l-191 -467h-178l-70 467h173c5 -67 12 -134 12 -202c0 -31 -1 -62 -2 -93c24 100 57 197 88 295h168z" />
    <glyph glyph-name="afii10050" unicode="&#x490;" horiz-adv-x="451" 
d="M100 667h216l17 142h156l-36 -299h-195l-63 -510h-177z" />
    <glyph glyph-name="afii10098" unicode="&#x491;" horiz-adv-x="403" 
d="M68 467h200l18 140h142l-35 -280h-170l-40 -327h-172z" />
    <glyph glyph-name="uni0492" unicode="&#x492;" horiz-adv-x="405" 
d="M417 510h-138l-12 -97h128l-19 -151h-128l-32 -262h-177l32 262h-66l19 151h66l31 254h315z" />
    <glyph glyph-name="uni0493" unicode="&#x493;" horiz-adv-x="388" 
d="M392 467l-17 -140h-128l-7 -62h100l-18 -140h-100l-15 -125h-172l15 125h-50l18 140h50l24 202h300z" />
    <glyph glyph-name="uni0494" unicode="&#x494;" horiz-adv-x="523" 
d="M426 667l-19 -157h-149l-9 -68c-4 -27 -5 -40 -13 -64c47 28 84 33 109 33c59 0 94 -29 113 -53c24 -30 40 -73 40 -133c0 -81 -28 -158 -71 -198c-41 -39 -91 -43 -123 -43c-26 0 -49 4 -74 14l31 142c7 -6 17 -9 24 -9c10 0 18 6 24 14c9 12 13 38 13 54
c0 13 -1 30 -12 43c-7 9 -17 15 -30 15c-18 0 -37 -8 -56 -17l-29 -240h-177l82 667h326z" />
    <glyph glyph-name="uni0495" unicode="&#x495;" horiz-adv-x="464" 
d="M359 327h-136l-9 -72h15c47 0 106 -5 152 -52c48 -49 53 -118 53 -152c0 -56 -11 -132 -74 -193c-60 -58 -144 -71 -200 -73l16 136c20 1 39 8 53 20c20 17 38 50 38 105c0 37 -9 61 -22 73c-12 11 -31 16 -45 16l-17 -135h-172l57 467h308z" />
    <glyph glyph-name="uni0496" unicode="&#x496;" horiz-adv-x="777" 
d="M64 667h180l69 -300l31 300h170l-42 -300l142 300h178l-176 -324l49 -180h72l-37 -292h-156l17 129h-34l-61 321l-34 -321h-170l45 321l-140 -321h-182l177 349z" />
    <glyph glyph-name="uni0497" unicode="&#x497;" horiz-adv-x="723" 
d="M49 467h178l30 -104c5 -18 17 -62 26 -118l27 222h168l-27 -222c22 54 38 83 56 118l54 104h180l-137 -228l30 -99h63l-31 -255h-142l14 115h-36l-27 96c-12 42 -20 63 -27 120l-27 -216h-168l27 216c-18 -44 -36 -84 -55 -120l-50 -96h-192l145 239z" />
    <glyph glyph-name="uni0498" unicode="&#x498;" horiz-adv-x="452" 
d="M70 453l24 190c52 30 100 36 139 36c76 0 128 -22 163 -58c36 -37 46 -80 46 -123c0 -33 -6 -79 -40 -114c-22 -22 -58 -40 -96 -45c41 0 70 -18 86 -34c30 -30 34 -68 34 -98c0 -56 -16 -102 -47 -141c-38 -47 -80 -61 -111 -66l-16 -130h-160l16 128
c-33 7 -63 19 -88 33l25 201c13 -22 32 -44 49 -57c26 -20 52 -23 69 -23c18 0 40 5 53 17c8 7 17 20 17 42c0 20 -9 33 -24 43c-19 12 -42 12 -58 12h-26l17 148h24c19 0 48 2 65 11c24 13 26 34 26 42c0 17 -9 28 -18 35c-14 11 -38 15 -55 15c-19 0 -43 -7 -61 -18
c-15 -9 -39 -31 -53 -46z" />
    <glyph glyph-name="uni0499" unicode="&#x499;" horiz-adv-x="435" 
d="M108 303l-55 127c21 11 49 24 74 32c35 11 68 15 101 15s103 -4 147 -48c22 -22 34 -49 34 -85c0 -39 -15 -62 -29 -75c-17 -16 -46 -28 -74 -30c26 -2 51 -13 67 -28c22 -20 26 -45 26 -66c0 -51 -22 -85 -43 -105c-20 -19 -51 -37 -92 -41l-14 -114h-142l14 112
c-29 7 -60 19 -112 56l82 121c7 -13 19 -27 37 -38c16 -10 31 -14 49 -14c20 0 30 7 32 8c6 4 12 12 12 23c0 9 -4 20 -20 26c-12 4 -34 5 -49 5h-20l13 109h30c10 0 30 1 41 4c20 6 22 19 22 25s-3 14 -13 20c-8 5 -22 7 -33 7c-17 0 -32 -4 -46 -12
c-21 -12 -36 -31 -39 -34z" />
    <glyph glyph-name="uni049A" unicode="&#x49a;" horiz-adv-x="533" 
d="M564 667l-181 -322l62 -182h77l-37 -292h-156l17 129h-37l-79 319l-35 -319h-177l82 667h177l-40 -298l140 298h187z" />
    <glyph glyph-name="uni049B" unicode="&#x49b;" horiz-adv-x="492" 
d="M68 467h172l-27 -221c24 59 54 118 70 147l40 74h187l-141 -229l35 -98h65l-31 -255h-142l14 115h-42l-26 80c-11 33 -19 60 -34 123l-25 -203h-172z" />
    <glyph glyph-name="uni049C" unicode="&#x49c;" horiz-adv-x="663" 
d="M231 293l-36 -293h-177l82 667h177l-34 -274h43l19 150h87l-21 -168l137 292h186l-175 -322l95 -345h-190l-60 317l-19 -158h-87l16 134h-43z" />
    <glyph glyph-name="uni049D" unicode="&#x49d;" horiz-adv-x="581" 
d="M205 181l-22 -181h-172l57 467h172l-22 -186h33l11 95h72l-15 -123c16 47 36 92 62 140l40 74h178l-137 -231l86 -236h-184l-24 80c-7 22 -20 69 -28 116l-14 -118h-72l12 103h-33z" />
    <glyph glyph-name="uni04A0" unicode="&#x4a0;" horiz-adv-x="623" 
d="M654 667l-181 -322l117 -345h-191l-79 319l-35 -319h-177l62 510h-130l19 157h308l-40 -298l140 298h187z" />
    <glyph glyph-name="uni04A1" unicode="&#x4a1;" horiz-adv-x="571" 
d="M544 0h-199l-24 80c-8 27 -14 39 -34 123l-25 -203h-172l40 327h-110l17 140h282l-27 -221c24 59 54 118 70 147l40 74h187l-141 -231z" />
    <glyph glyph-name="uni04A2" unicode="&#x4a2;" horiz-adv-x="560" 
d="M539 667l-63 -504h70l-38 -292h-160l18 129h-86l33 268h-85l-33 -268h-177l82 667h177l-29 -236h85l29 236h177z" />
    <glyph glyph-name="uni04A3" unicode="&#x4a3;" horiz-adv-x="507" 
d="M240 467l-19 -159h64l19 159h172l-40 -327h61l-31 -255h-142l14 115h-91l21 168h-64l-21 -168h-172l57 467h172z" />
    <glyph glyph-name="uni04A4" unicode="&#x4a4;" horiz-adv-x="629" 
d="M100 667h177l-29 -236h85l29 236h298l-19 -157h-121l-63 -510h-177l33 268h-85l-33 -268h-177z" />
    <glyph glyph-name="uni04A5" unicode="&#x4a5;" horiz-adv-x="576" 
d="M240 467l-19 -159h64l19 159h276l-17 -140h-104l-40 -327h-172l21 168h-64l-21 -168h-172l57 467h172z" />
    <glyph glyph-name="uni04AA" unicode="&#x4aa;" horiz-adv-x="438" 
d="M461 662l-23 -190c-22 25 -42 40 -77 40c-107 0 -140 -138 -140 -223c0 -63 21 -127 95 -127c38 0 69 19 97 43l-34 -193c-12 -5 -25 -11 -38 -14l-29 -137h-160l30 142c-98 38 -144 142 -144 257c0 200 109 419 335 419c36 0 55 -3 88 -17z" />
    <glyph glyph-name="uni04AB" unicode="&#x4ab;" horiz-adv-x="307" 
d="M279 152l-20 -159l-20 -3l-13 -105h-136l16 127c-15 11 -40 31 -58 67c-9 19 -23 54 -23 112c0 95 34 167 79 214c37 39 94 72 172 72c12 0 36 -2 42 -2l-18 -152c-21 0 -48 -8 -64 -23c-18 -16 -29 -49 -29 -72c0 -20 5 -44 20 -59c16 -16 34 -17 47 -17h5z" />
    <glyph glyph-name="uni04AE" unicode="&#x4ae;" horiz-adv-x="493" 
d="M547 667l-200 -385l-35 -282h-177l35 282l-116 385h185c14 -68 29 -137 37 -206c26 70 57 138 87 206h184z" />
    <glyph glyph-name="uni04AF" unicode="&#x4af;" horiz-adv-x="458" 
d="M25 467h176l12 -115c5 -44 10 -81 10 -158c14 51 34 120 48 160l39 113h183l-204 -448l-28 -234h-171l27 234z" />
    <glyph glyph-name="uni04B0" unicode="&#x4b0;" horiz-adv-x="493" 
d="M547 667l-197 -367l-3 -26h118l-18 -143h-118l-17 -131h-177l17 131h-118l18 143h118l3 26l-119 367h185c14 -68 29 -137 37 -206c26 70 57 138 87 206h184z" />
    <glyph glyph-name="uni04B1" unicode="&#x4b1;" horiz-adv-x="465" 
d="M32 467h176l13 -110c5 -45 10 -88 11 -155c16 69 28 103 47 157l38 108h183l-197 -397l-3 -18h106l-13 -105h-106l-19 -162h-172l19 162h-105l13 105h105l3 18z" />
    <glyph glyph-name="uni04B2" unicode="&#x4b2;" horiz-adv-x="509" 
d="M552 667l-190 -321l61 -183h70l-36 -292h-156l16 129h-33c-10 41 -17 83 -26 124c-4 18 -8 37 -10 55c-25 -61 -54 -120 -83 -179h-193l202 346l-111 321h197c7 -37 14 -73 22 -110c3 -16 5 -32 9 -48c17 54 40 106 62 158h199z" />
    <glyph glyph-name="uni04B3" unicode="&#x4b3;" horiz-adv-x="475" 
d="M491 467l-163 -223l50 -104h65l-31 -255h-142l14 115h-31c-14 36 -23 73 -29 110c-17 -38 -39 -75 -61 -110h-191l169 240l-104 227h195c7 -34 15 -67 20 -101c15 35 34 67 50 101h189z" />
    <glyph glyph-name="uni04B6" unicode="&#x4b6;" horiz-adv-x="550" 
d="M356 0h-86l33 269c-28 -8 -53 -11 -79 -11c-32 0 -77 5 -113 33c-27 21 -51 57 -51 112c0 18 4 59 6 74l24 190h176l-22 -178c-2 -14 -3 -25 -3 -30c0 -14 5 -25 13 -32c9 -8 23 -11 35 -11c8 0 20 1 33 7l30 244h177l-63 -504h70l-36 -292h-160z" />
    <glyph glyph-name="uni04B7" unicode="&#x4b7;" horiz-adv-x="495" 
d="M326 0h-89l20 161c-24 -7 -46 -10 -71 -10c-59 0 -93 19 -112 37c-21 21 -34 53 -34 91c0 13 3 50 5 65l15 123h170l-15 -122c-1 -7 -2 -21 -2 -26c0 -8 1 -17 9 -23c7 -6 16 -7 24 -7c10 0 18 2 27 8l21 170h172l-41 -327h60l-31 -255h-142z" />
    <glyph glyph-name="uni04B8" unicode="&#x4b8;" horiz-adv-x="595" 
d="M344 0l33 267c-12 -4 -26 -7 -40 -9l-14 -119h-83l15 119c-50 -2 -116 11 -153 46c-22 21 -42 56 -42 103c0 8 0 25 6 70l24 190h172l-22 -178c-2 -15 -3 -26 -3 -38c0 -7 1 -21 12 -29c6 -4 17 -7 25 -7l17 136h83l-17 -138c13 1 26 4 39 9l30 245h177l-82 -667h-177z
" />
    <glyph glyph-name="uni04B9" unicode="&#x4b9;" horiz-adv-x="543" 
d="M304 0l20 165c-11 -5 -23 -8 -34 -9l-10 -86h-72l9 80h-7c-36 0 -95 3 -134 38c-28 25 -36 57 -36 89c0 14 3 52 5 67l15 123h161l-14 -117c-1 -9 -3 -21 -3 -31c0 -18 6 -26 10 -29c5 -4 14 -7 20 -7l12 103h72l-12 -102c13 1 24 4 34 10l21 173h172l-57 -467h-172z" />
    <glyph glyph-name="uni04BA" unicode="&#x4ba;" horiz-adv-x="515" 
d="M277 667l-31 -251c30 11 58 15 90 15c34 0 80 -7 114 -40c33 -32 40 -73 40 -106c0 -21 -3 -42 -7 -76l-26 -209h-176l22 174c3 27 5 38 5 50c0 11 -2 26 -10 35c-6 7 -17 12 -31 12s-29 -5 -40 -11l-32 -260h-177l82 667h177z" />
    <glyph glyph-name="uni04BB" unicode="&#x4bb;" horiz-adv-x="483" 
d="M272 729l-32 -261c-4 -30 -9 -60 -16 -90c28 52 70 99 134 99c66 0 100 -55 100 -116c0 -14 -1 -29 -3 -43l-39 -318h-171l31 247c1 9 2 17 2 26c0 15 -5 31 -23 31c-33 0 -41 -44 -44 -69l-29 -235h-171l90 729h171z" />
    <glyph glyph-name="uni04C0" unicode="&#x4c0;" horiz-adv-x="250" 
d="M265 667l-83 -667h-171l83 667h171z" />
    <glyph glyph-name="uni04C1" unicode="&#x4c1;" horiz-adv-x="777" 
d="M709 0h-182l-61 321l-34 -321h-170l45 321l-140 -321h-182l177 349l-98 318h180l69 -300l31 300h170l-42 -300l142 300h178l-176 -324zM502 874l125 -37c-14 -56 -48 -85 -72 -99c-38 -23 -85 -27 -121 -27c-38 0 -83 5 -118 26c-25 15 -59 45 -73 99l127 38
c2 -14 10 -32 20 -41c8 -7 22 -15 47 -15s39 9 47 17c9 10 16 27 18 39z" />
    <glyph glyph-name="uni04C2" unicode="&#x4c2;" horiz-adv-x="723" 
d="M686 0h-187l-26 96c-11 41 -19 75 -25 120l-27 -216h-168l27 216c-18 -44 -36 -84 -55 -120l-50 -96h-192l145 239l-79 228h178l30 -104c5 -18 17 -62 26 -118l27 222h168l-27 -222c22 54 38 83 56 118l54 104h180l-137 -228zM451 677l111 -26c-13 -46 -42 -82 -72 -102
c-34 -22 -72 -25 -100 -25c-35 0 -71 4 -103 27c-29 20 -53 56 -60 100l118 26c-1 -14 3 -32 12 -42c10 -11 23 -13 34 -13c12 0 27 2 38 13c11 10 19 29 22 42z" />
    <glyph glyph-name="uni04C3" unicode="&#x4c3;" horiz-adv-x="558" 
d="M100 667h177l-40 -286l141 286h190l-161 -278c43 -10 68 -36 82 -57s31 -60 31 -136c0 -38 -4 -87 -11 -129c-10 -66 -29 -139 -72 -182c-40 -40 -87 -45 -134 -45c-36 0 -58 3 -86 14l29 142c8 -6 18 -10 31 -10c8 0 18 1 26 9c17 15 27 71 30 110c2 23 7 75 7 93
c0 14 -1 37 -17 52c-12 12 -27 14 -37 14c-25 0 -47 -10 -64 -20l-27 -244h-177z" />
    <glyph glyph-name="uni04C4" unicode="&#x4c4;" horiz-adv-x="492" 
d="M68 467h172l-27 -221c24 59 54 118 70 147l40 74h187l-145 -237c35 -12 56 -35 67 -53c23 -37 25 -87 25 -106c0 -67 -22 -158 -76 -212c-55 -56 -142 -72 -211 -74l17 136c12 0 33 1 53 20c28 27 38 78 38 115c0 20 -2 46 -20 63c-15 14 -38 15 -59 15l-16 -134h-172z
" />
    <glyph glyph-name="uni04C7" unicode="&#x4c7;" horiz-adv-x="532" 
d="M363 667h177l-87 -710c-6 -48 -17 -100 -57 -135c-40 -36 -93 -37 -126 -37c-28 0 -52 3 -81 12l17 139c12 -11 25 -12 30 -12c12 0 22 5 28 12c12 13 13 35 16 58l34 274h-86l-33 -268h-177l82 667h177l-29 -236h86z" />
    <glyph glyph-name="uni04C8" unicode="&#x4c8;" horiz-adv-x="486" 
d="M240 467l-19 -159h64l19 159h172l-55 -460c-7 -60 -21 -135 -69 -179c-23 -21 -63 -43 -127 -43c-23 0 -49 4 -74 10l18 145c11 -13 24 -15 31 -15c12 0 24 6 31 13c10 12 13 31 15 50l22 180h-64l-21 -168h-172l57 467h172z" />
    <glyph glyph-name="uni04D0" unicode="&#x4d0;" horiz-adv-x="524" 
d="M491 0h-183l-3 85h-119l-25 -85h-184l240 667h217zM300 305v87c0 38 2 77 3 115c-8 -31 -14 -63 -23 -94c-18 -62 -34 -124 -53 -186h75c-1 26 -2 52 -2 78zM397 874l125 -37c-14 -56 -48 -85 -72 -99c-38 -23 -85 -27 -121 -27c-38 0 -83 5 -118 26
c-25 15 -59 45 -73 99l127 38c2 -14 10 -32 20 -41c8 -7 22 -15 47 -15s39 9 47 17c9 10 16 27 18 39z" />
    <glyph glyph-name="uni04D1" unicode="&#x4d1;" horiz-adv-x="489" 
d="M479 467l-57 -467h-171c5 26 10 53 15 79c-30 -50 -68 -89 -130 -89c-92 0 -113 104 -113 177c0 43 4 86 14 128c19 80 70 182 165 182c57 0 81 -36 99 -84c1 25 3 49 4 74h174zM282 288c0 19 -3 46 -28 46c-48 0 -59 -111 -59 -146c0 -22 2 -55 31 -55
c47 0 56 121 56 155zM355 677l111 -26c-13 -46 -42 -82 -72 -102c-34 -22 -72 -25 -100 -25c-35 0 -71 4 -103 27c-29 20 -53 56 -60 100l118 26c-1 -14 3 -32 12 -42c10 -11 23 -13 34 -13c12 0 27 2 38 13c11 10 19 29 22 42z" />
    <glyph glyph-name="uni04D2" unicode="&#x4d2;" horiz-adv-x="524" 
d="M491 0h-183l-3 85h-119l-25 -85h-184l240 667h217zM300 305v87c0 38 2 77 3 115c-8 -31 -14 -63 -23 -94c-18 -62 -34 -124 -53 -186h75c-1 26 -2 52 -2 78zM493 800c0 -42 -39 -80 -81 -80c-36 0 -63 28 -63 64c0 43 37 80 80 80c37 0 64 -27 64 -64zM303 792
c0 -6 -3 -15 -5 -20c-12 -30 -43 -52 -75 -52c-37 0 -64 27 -64 64c0 43 38 80 81 80s63 -32 63 -72z" />
    <glyph glyph-name="uni04D3" unicode="&#x4d3;" horiz-adv-x="489" 
d="M479 467l-57 -467h-171c5 26 10 53 15 79c-30 -50 -68 -89 -130 -89c-92 0 -113 104 -113 177c0 43 4 86 14 128c19 80 70 182 165 182c57 0 81 -36 99 -84c1 25 3 49 4 74h174zM282 288c0 19 -3 46 -28 46c-48 0 -59 -111 -59 -146c0 -22 2 -55 31 -55
c47 0 56 121 56 155zM473 610c0 -42 -39 -80 -81 -80c-36 0 -63 28 -63 64c0 43 37 80 80 80c37 0 64 -27 64 -64zM283 602c0 -6 -3 -15 -5 -20c-12 -30 -43 -52 -75 -52c-37 0 -64 27 -64 64c0 43 38 80 81 80s63 -32 63 -72z" />
    <glyph glyph-name="uni04D4" unicode="&#x4d4;" horiz-adv-x="606" 
d="M630 667l-19 -157h-177l3 -97h148l-18 -151h-122l4 -102h119l-20 -160h-252l-2 85h-114l-24 -85h-184l234 667h424zM219 223h74c-1 61 -2 122 -2 184c0 33 1 66 2 99c-21 -95 -48 -189 -74 -283z" />
    <glyph glyph-name="uni04D5" unicode="&#x4d5;" horiz-adv-x="724" 
d="M88 321l17 135c46 12 93 21 140 21c53 0 95 -8 135 -46c43 29 85 46 138 46c121 0 183 -87 183 -201c0 -26 -4 -52 -8 -78h-252c0 -6 -1 -12 -1 -18c0 -24 5 -62 37 -62c21 0 35 18 43 35l161 -3c-20 -53 -41 -92 -90 -124c-42 -27 -86 -36 -135 -36
c-52 0 -91 13 -130 48c-45 -29 -100 -48 -154 -48c-85 0 -156 51 -156 141c0 108 83 170 186 170c29 0 58 -4 86 -10c-1 48 -44 57 -83 57c-42 0 -79 -9 -117 -27zM453 291h86c0 24 -3 65 -36 65c-34 0 -44 -38 -50 -65zM273 156c0 24 -19 35 -41 35c-26 0 -50 -20 -50 -47
c0 -25 18 -35 41 -35c28 0 50 18 50 47z" />
    <glyph glyph-name="uni04D6" unicode="&#x4d6;" horiz-adv-x="405" 
d="M430 667l-20 -157h-152l-12 -97h137l-19 -151h-136l-13 -102h152l-19 -160h-330l82 667h330zM342 874l125 -37c-14 -56 -48 -85 -72 -99c-38 -23 -85 -27 -121 -27c-38 0 -83 5 -118 26c-25 15 -59 45 -73 99l127 38c2 -14 10 -32 20 -41c8 -7 22 -15 47 -15s39 9 47 17
c9 10 16 27 18 39z" />
    <glyph glyph-name="uni04D7" unicode="&#x4d7;" horiz-adv-x="474" 
d="M266 157h166c-35 -106 -114 -167 -225 -167c-120 0 -184 74 -184 191c0 144 90 295 248 295c120 0 180 -87 180 -200c0 -27 -4 -53 -8 -79h-250c-1 -6 -1 -13 -1 -19c0 -22 3 -53 32 -53c20 0 36 15 42 32zM207 290h79c0 4 1 8 1 12c0 22 -8 47 -34 47
c-30 0 -43 -34 -46 -59zM335 677l111 -26c-13 -46 -42 -82 -72 -102c-34 -22 -72 -25 -100 -25c-35 0 -71 4 -103 27c-29 20 -53 56 -60 100l118 26c-1 -14 3 -32 12 -42c10 -11 23 -13 34 -13c12 0 27 2 38 13c11 10 19 29 22 42z" />
    <glyph glyph-name="uni04D8" unicode="&#x4d8;" horiz-adv-x="554" 
d="M47 385h310c2 75 -9 103 -18 115c-7 9 -19 18 -38 18c-18 0 -31 -7 -38 -14c-12 -11 -24 -34 -30 -54l-168 55c24 52 61 98 99 126c47 34 98 48 151 48c86 0 135 -38 158 -61c28 -29 69 -89 69 -208c0 -115 -33 -265 -125 -356c-53 -53 -101 -66 -169 -66
c-53 0 -99 9 -140 52c-56 58 -70 149 -70 226c0 35 3 67 6 92zM341 253h-129c-6 -66 12 -87 16 -91c7 -8 19 -13 34 -13c16 0 28 6 38 15c23 21 36 63 41 89z" />
    <glyph glyph-name="afii10846" unicode="&#x4d9;" horiz-adv-x="482" 
d="M201 308l-154 38c18 37 46 69 78 91s77 40 138 40c36 0 94 -6 138 -48c51 -48 57 -118 57 -155c0 -86 -29 -173 -84 -226c-50 -48 -106 -58 -161 -58c-48 0 -95 9 -134 51c-38 40 -55 103 -55 164c0 23 4 46 7 64h254c2 15 3 46 -11 61c-9 10 -21 11 -28 11
c-10 0 -18 -2 -27 -8c-7 -5 -14 -13 -18 -25zM272 176h-81c-1 -18 1 -39 11 -50c4 -4 12 -9 24 -9c10 0 17 3 24 10c11 11 19 32 22 49z" />
    <glyph glyph-name="uni04DA" unicode="&#x4da;" horiz-adv-x="554" 
d="M47 385h310c2 75 -9 103 -18 115c-7 9 -19 18 -38 18c-18 0 -31 -7 -38 -14c-12 -11 -24 -34 -30 -54l-168 55c24 52 61 98 99 126c47 34 98 48 151 48c86 0 135 -38 158 -61c28 -29 69 -89 69 -208c0 -115 -33 -265 -125 -356c-53 -53 -101 -66 -169 -66
c-53 0 -99 9 -140 52c-56 58 -70 149 -70 226c0 35 3 67 6 92zM341 253h-129c-6 -66 12 -87 16 -91c7 -8 19 -13 34 -13c16 0 28 6 38 15c23 21 36 63 41 89zM490 800c0 -42 -39 -80 -81 -80c-36 0 -63 28 -63 64c0 43 37 80 80 80c37 0 64 -27 64 -64zM300 792
c0 -6 -3 -15 -5 -20c-12 -30 -43 -52 -75 -52c-37 0 -64 27 -64 64c0 43 38 80 81 80s63 -32 63 -72z" />
    <glyph glyph-name="uni04DB" unicode="&#x4db;" horiz-adv-x="482" 
d="M201 308l-154 38c18 37 46 69 78 91s77 40 138 40c36 0 94 -6 138 -48c51 -48 57 -118 57 -155c0 -86 -29 -173 -84 -226c-50 -48 -106 -58 -161 -58c-48 0 -95 9 -134 51c-38 40 -55 103 -55 164c0 23 4 46 7 64h254c2 15 3 46 -11 61c-9 10 -21 11 -28 11
c-10 0 -18 -2 -27 -8c-7 -5 -14 -13 -18 -25zM272 176h-81c-1 -18 1 -39 11 -50c4 -4 12 -9 24 -9c10 0 17 3 24 10c11 11 19 32 22 49zM438 610c0 -42 -39 -80 -81 -80c-36 0 -63 28 -63 64c0 43 37 80 80 80c37 0 64 -27 64 -64zM248 602c0 -6 -3 -15 -5 -20
c-12 -30 -43 -52 -75 -52c-37 0 -64 27 -64 64c0 43 38 80 81 80s63 -32 63 -72z" />
    <glyph glyph-name="uni04DC" unicode="&#x4dc;" horiz-adv-x="777" 
d="M709 0h-182l-61 321l-34 -321h-170l45 321l-140 -321h-182l177 349l-98 318h180l69 -300l31 300h170l-42 -300l142 300h178l-176 -324zM601 800c0 -42 -39 -80 -81 -80c-36 0 -63 28 -63 64c0 43 37 80 80 80c37 0 64 -27 64 -64zM411 792c0 -6 -3 -15 -5 -20
c-12 -30 -43 -52 -75 -52c-37 0 -64 27 -64 64c0 43 38 80 81 80s63 -32 63 -72z" />
    <glyph glyph-name="uni04DD" unicode="&#x4dd;" horiz-adv-x="723" 
d="M686 0h-187l-26 96c-11 41 -19 75 -25 120l-27 -216h-168l27 216c-18 -44 -36 -84 -55 -120l-50 -96h-192l145 239l-79 228h178l30 -104c5 -18 17 -62 26 -118l27 222h168l-27 -222c22 54 38 83 56 118l54 104h180l-137 -228zM568 610c0 -42 -39 -80 -81 -80
c-36 0 -63 28 -63 64c0 43 37 80 80 80c37 0 64 -27 64 -64zM378 602c0 -6 -3 -15 -5 -20c-12 -30 -43 -52 -75 -52c-37 0 -64 27 -64 64c0 43 38 80 81 80s63 -32 63 -72z" />
    <glyph glyph-name="uni04DE" unicode="&#x4de;" horiz-adv-x="452" 
d="M70 453l24 190c52 30 100 36 139 36c76 0 128 -22 163 -58c36 -37 46 -80 46 -123c0 -33 -6 -79 -40 -114c-22 -22 -58 -40 -96 -45c41 0 70 -18 86 -34c29 -29 34 -66 34 -92c0 -58 -25 -122 -69 -163c-45 -42 -111 -62 -180 -62c-47 0 -96 11 -157 43l25 201
c13 -22 32 -44 49 -57c26 -20 52 -23 69 -23c18 0 40 5 53 17c8 7 17 20 17 42c0 20 -9 33 -24 43c-19 12 -42 12 -58 12h-26l17 148h24c19 0 48 2 65 11c24 13 26 34 26 42c0 17 -9 28 -18 35c-14 11 -38 15 -55 15c-19 0 -43 -7 -61 -18c-15 -9 -39 -31 -53 -46zM423 800
c0 -42 -39 -80 -81 -80c-36 0 -63 28 -63 64c0 43 37 80 80 80c37 0 64 -27 64 -64zM233 792c0 -6 -3 -15 -5 -20c-12 -30 -43 -52 -75 -52c-37 0 -64 27 -64 64c0 43 38 80 81 80s63 -32 63 -72z" />
    <glyph glyph-name="uni04DF" unicode="&#x4df;" horiz-adv-x="435" 
d="M108 303l-55 127c21 11 49 24 74 32c35 11 68 15 101 15s103 -4 147 -48c22 -22 34 -49 34 -85c0 -39 -15 -62 -29 -75c-17 -16 -46 -28 -74 -30c24 -2 52 -13 68 -28c12 -11 25 -32 25 -65c0 -35 -12 -68 -41 -99c-46 -48 -102 -57 -157 -57c-33 0 -70 3 -110 18
c-27 10 -58 28 -81 45l82 121c7 -13 19 -27 37 -38c16 -10 31 -14 49 -14c20 0 30 7 32 8c6 4 12 12 12 23c0 9 -4 20 -20 26c-12 4 -34 5 -49 5h-20l13 109h30c10 0 30 1 41 4c20 6 22 19 22 25s-3 14 -13 20c-8 5 -22 7 -33 7c-17 0 -32 -4 -46 -12
c-21 -12 -36 -31 -39 -34zM413 610c0 -42 -39 -80 -81 -80c-36 0 -63 28 -63 64c0 43 37 80 80 80c37 0 64 -27 64 -64zM223 602c0 -6 -3 -15 -5 -20c-12 -30 -43 -52 -75 -52c-37 0 -64 27 -64 64c0 43 38 80 81 80s63 -32 63 -72z" />
    <glyph glyph-name="uni04E2" unicode="&#x4e2;" horiz-adv-x="557" 
d="M18 0l82 667h170l-23 -185c-14 -115 -36 -189 -47 -225c28 66 63 140 92 195l115 215h158l-82 -667h-170l22 178c6 50 20 137 37 214c-22 -64 -45 -112 -87 -190l-109 -202h-158zM519 837l-12 -94h-335l12 94h335z" />
    <glyph glyph-name="uni04E3" unicode="&#x4e3;" horiz-adv-x="504" 
d="M68 467h166l-16 -131c-4 -35 -12 -81 -22 -123c5 11 33 68 46 90l94 164h158l-57 -467h-166l15 125c4 34 18 108 22 129c-11 -26 -32 -70 -46 -94l-93 -160h-158zM464 647l-12 -94h-335l12 94h335z" />
    <glyph glyph-name="uni04E4" unicode="&#x4e4;" horiz-adv-x="557" 
d="M18 0l82 667h170l-23 -185c-14 -115 -36 -189 -47 -225c28 66 63 140 92 195l115 215h158l-82 -667h-170l22 178c6 50 20 137 37 214c-22 -64 -45 -112 -87 -190l-109 -202h-158zM513 800c0 -42 -39 -80 -81 -80c-36 0 -63 28 -63 64c0 43 37 80 80 80
c37 0 64 -27 64 -64zM323 792c0 -6 -3 -15 -5 -20c-12 -30 -43 -52 -75 -52c-37 0 -64 27 -64 64c0 43 38 80 81 80s63 -32 63 -72z" />
    <glyph glyph-name="uni04E5" unicode="&#x4e5;" horiz-adv-x="504" 
d="M68 467h166l-16 -131c-4 -35 -12 -81 -22 -123c5 11 33 68 46 90l94 164h158l-57 -467h-166l15 125c4 34 18 108 22 129c-11 -26 -32 -70 -46 -94l-93 -160h-158zM465 610c0 -42 -39 -80 -81 -80c-36 0 -63 28 -63 64c0 43 37 80 80 80c37 0 64 -27 64 -64zM275 602
c0 -6 -3 -15 -5 -20c-12 -30 -43 -52 -75 -52c-37 0 -64 27 -64 64c0 43 38 80 81 80s63 -32 63 -72z" />
    <glyph glyph-name="uni04E6" unicode="&#x4e6;" horiz-adv-x="558" 
d="M337 679c56 0 103 -18 140 -57c60 -63 69 -153 69 -208c0 -113 -33 -266 -125 -356c-56 -55 -115 -70 -167 -70c-43 0 -99 13 -146 62c-63 65 -70 147 -70 213c0 165 58 279 123 342c63 62 130 74 176 74zM315 511c-9 0 -22 -5 -35 -19s-28 -39 -41 -91
c-12 -47 -17 -90 -17 -139c0 -59 11 -83 22 -94c8 -8 16 -11 26 -11c16 0 25 7 33 16c25 28 40 82 44 99c11 45 15 91 15 134c0 69 -14 89 -22 96s-16 9 -25 9zM518 800c0 -42 -39 -80 -81 -80c-36 0 -63 28 -63 64c0 43 37 80 80 80c37 0 64 -27 64 -64zM328 792
c0 -6 -3 -15 -5 -20c-12 -30 -43 -52 -75 -52c-37 0 -64 27 -64 64c0 43 38 80 81 80s63 -32 63 -72z" />
    <glyph glyph-name="uni04E7" unicode="&#x4e7;" horiz-adv-x="480" 
d="M270 477c67 0 109 -26 131 -47c48 -46 55 -112 55 -152c0 -86 -29 -173 -84 -226c-29 -28 -81 -62 -164 -62c-42 0 -88 8 -127 44c-50 46 -57 109 -57 156c0 132 66 203 85 222c31 30 83 65 161 65zM254 346c-11 0 -19 -6 -24 -11c-25 -25 -40 -94 -40 -140
c0 -7 1 -39 11 -57c8 -14 18 -17 26 -17c11 0 20 6 25 12c27 28 39 97 39 140c0 14 -2 39 -11 56c-4 8 -12 17 -26 17zM453 610c0 -42 -39 -80 -81 -80c-36 0 -63 28 -63 64c0 43 37 80 80 80c37 0 64 -27 64 -64zM263 602c0 -6 -3 -15 -5 -20c-12 -30 -43 -52 -75 -52
c-37 0 -64 27 -64 64c0 43 38 80 81 80s63 -32 63 -72z" />
    <glyph glyph-name="uni04E8" unicode="&#x4e8;" horiz-adv-x="558" 
d="M337 679c56 0 103 -18 140 -57c60 -63 69 -153 69 -208c0 -113 -33 -266 -125 -356c-56 -55 -115 -70 -167 -70c-43 0 -99 13 -146 62c-63 65 -70 147 -70 213c0 165 58 279 123 342c63 62 130 74 176 74zM240 407h122c3 28 -1 80 -22 99c-6 6 -15 9 -25 9
c-9 0 -22 -5 -35 -19c-20 -22 -35 -63 -40 -89zM348 276h-126c0 -42 4 -94 23 -113c7 -7 15 -10 25 -10c13 0 23 6 32 14c22 21 41 68 46 109z" />
    <glyph glyph-name="uni04E9" unicode="&#x4e9;" horiz-adv-x="480" 
d="M270 477c67 0 109 -26 131 -47c48 -46 55 -112 55 -152c0 -86 -29 -173 -84 -226c-29 -28 -81 -62 -164 -62c-42 0 -88 8 -127 44c-50 46 -57 109 -57 156c0 132 66 203 85 222c31 30 83 65 161 65zM201 291h92c-1 14 -4 34 -10 45c-7 13 -17 18 -30 18
c-8 0 -17 -3 -25 -10c-12 -10 -23 -34 -27 -53zM282 185h-94c0 -16 3 -42 11 -55c7 -12 16 -17 28 -17s20 4 28 11c12 12 24 39 27 61z" />
    <glyph glyph-name="uni04EA" unicode="&#x4ea;" horiz-adv-x="558" 
d="M337 679c56 0 103 -18 140 -57c60 -63 69 -153 69 -208c0 -113 -33 -266 -125 -356c-56 -55 -115 -70 -167 -70c-43 0 -99 13 -146 62c-63 65 -70 147 -70 213c0 165 58 279 123 342c63 62 130 74 176 74zM240 407h122c3 28 -1 80 -22 99c-6 6 -15 9 -25 9
c-9 0 -22 -5 -35 -19c-20 -22 -35 -63 -40 -89zM348 276h-126c0 -42 4 -94 23 -113c7 -7 15 -10 25 -10c13 0 23 6 32 14c22 21 41 68 46 109zM518 800c0 -42 -39 -80 -81 -80c-36 0 -63 28 -63 64c0 43 37 80 80 80c37 0 64 -27 64 -64zM328 792c0 -6 -3 -15 -5 -20
c-12 -30 -43 -52 -75 -52c-37 0 -64 27 -64 64c0 43 38 80 81 80s63 -32 63 -72z" />
    <glyph glyph-name="uni04EB" unicode="&#x4eb;" horiz-adv-x="480" 
d="M270 477c67 0 109 -26 131 -47c48 -46 55 -112 55 -152c0 -86 -29 -173 -84 -226c-29 -28 -81 -62 -164 -62c-42 0 -88 8 -127 44c-50 46 -57 109 -57 156c0 132 66 203 85 222c31 30 83 65 161 65zM201 291h92c-1 14 -4 34 -10 45c-7 13 -17 18 -30 18
c-8 0 -17 -3 -25 -10c-12 -10 -23 -34 -27 -53zM282 185h-94c0 -16 3 -42 11 -55c7 -12 16 -17 28 -17s20 4 28 11c12 12 24 39 27 61zM453 610c0 -42 -39 -80 -81 -80c-36 0 -63 28 -63 64c0 43 37 80 80 80c37 0 64 -27 64 -64zM263 602c0 -6 -3 -15 -5 -20
c-12 -30 -43 -52 -75 -52c-37 0 -64 27 -64 64c0 43 38 80 81 80s63 -32 63 -72z" />
    <glyph glyph-name="uni04EE" unicode="&#x4ee;" 
d="M54 667h184l23 -109c11 -50 16 -94 17 -141c14 50 29 96 49 146l41 104h186l-318 -667h-177l108 230zM484 837l-12 -94h-335l12 94h335z" />
    <glyph glyph-name="uni04EF" unicode="&#x4ef;" horiz-adv-x="458" 
d="M487 467l-301 -682h-176l110 234l-82 448h172c9 -78 22 -156 22 -235c0 -10 -1 -20 -1 -30c15 55 28 111 48 164l38 101h170zM434 647l-12 -94h-335l12 94h335z" />
    <glyph glyph-name="uni04F0" unicode="&#x4f0;" 
d="M54 667h184l23 -109c11 -50 16 -94 17 -141c14 50 29 96 49 146l41 104h186l-318 -667h-177l108 230zM483 800c0 -42 -39 -80 -81 -80c-36 0 -63 28 -63 64c0 43 37 80 80 80c37 0 64 -27 64 -64zM293 792c0 -6 -3 -15 -5 -20c-12 -30 -43 -52 -75 -52
c-37 0 -64 27 -64 64c0 43 38 80 81 80s63 -32 63 -72z" />
    <glyph glyph-name="uni04F1" unicode="&#x4f1;" horiz-adv-x="458" 
d="M487 467l-301 -682h-176l110 234l-82 448h172c9 -78 22 -156 22 -235c0 -10 -1 -20 -1 -30c15 55 28 111 48 164l38 101h170zM438 610c0 -42 -39 -80 -81 -80c-36 0 -63 28 -63 64c0 43 37 80 80 80c37 0 64 -27 64 -64zM248 602c0 -6 -3 -15 -5 -20
c-12 -30 -43 -52 -75 -52c-37 0 -64 27 -64 64c0 43 38 80 81 80s63 -32 63 -72z" />
    <glyph glyph-name="uni04F2" unicode="&#x4f2;" 
d="M54 667h184l23 -109c11 -50 16 -94 17 -141c14 50 29 96 49 146l41 104h186l-318 -667h-177l108 230zM516 868l-105 -148h-88l65 148h128zM351 868l-104 -148h-88l65 148h127z" />
    <glyph glyph-name="uni04F3" unicode="&#x4f3;" horiz-adv-x="458" 
d="M487 467l-301 -682h-176l110 234l-82 448h172c9 -78 22 -156 22 -235c0 -10 -1 -20 -1 -30c15 55 28 111 48 164l38 101h170zM471 678l-105 -148h-88l65 148h128zM306 678l-104 -148h-88l65 148h127z" />
    <glyph glyph-name="uni04F4" unicode="&#x4f4;" horiz-adv-x="521" 
d="M270 0l33 269c-28 -8 -53 -11 -79 -11c-32 0 -77 5 -113 33c-27 21 -51 57 -51 112c0 18 4 59 6 74l24 190h176l-22 -178c-2 -18 -3 -25 -3 -30c0 -14 5 -25 13 -32c9 -8 23 -11 35 -11c8 0 20 1 33 7l30 244h177l-82 -667h-177zM493 800c0 -42 -39 -80 -81 -80
c-36 0 -63 28 -63 64c0 43 37 80 80 80c37 0 64 -27 64 -64zM303 792c0 -6 -3 -15 -5 -20c-12 -30 -43 -52 -75 -52c-37 0 -64 27 -64 64c0 43 38 80 81 80s63 -32 63 -72z" />
    <glyph glyph-name="uni04F5" unicode="&#x4f5;" horiz-adv-x="476" 
d="M237 0l20 161c-24 -7 -46 -10 -71 -10c-59 0 -93 19 -112 37c-21 21 -34 53 -34 91c0 13 3 50 5 65l15 123h170l-15 -122c-1 -7 -2 -21 -2 -26c0 -8 1 -17 9 -23c7 -6 16 -7 24 -7c10 0 18 2 27 8l21 170h172l-57 -467h-172zM443 610c0 -42 -39 -80 -81 -80
c-36 0 -63 28 -63 64c0 43 37 80 80 80c37 0 64 -27 64 -64zM253 602c0 -6 -3 -15 -5 -20c-12 -30 -43 -52 -75 -52c-37 0 -64 27 -64 64c0 43 38 80 81 80s63 -32 63 -72z" />
    <glyph glyph-name="uni04F8" unicode="&#x4f8;" horiz-adv-x="751" 
d="M674 0h-177l79 667h183zM220 0h-202l82 667h177l-30 -245h8c69 0 131 -13 174 -55c25 -24 52 -65 52 -131c0 -67 -25 -130 -65 -170c-58 -57 -134 -66 -196 -66zM229 278l-16 -133c28 -4 57 7 73 24c9 9 18 26 18 51s-11 39 -20 46c-13 10 -36 15 -55 12zM598 800
c0 -42 -39 -80 -81 -80c-36 0 -63 28 -63 64c0 43 37 80 80 80c37 0 64 -27 64 -64zM408 792c0 -6 -3 -15 -5 -20c-12 -30 -43 -52 -75 -52c-37 0 -64 27 -64 64c0 43 38 80 81 80s63 -32 63 -72z" />
    <glyph glyph-name="uni04F9" unicode="&#x4f9;" horiz-adv-x="694" 
d="M626 0h-172l57 467h172zM219 301h49c37 0 92 -4 131 -36c23 -19 43 -50 43 -100c0 -44 -15 -90 -45 -119c-27 -26 -71 -46 -139 -46h-248l57 467h172zM196 110h5c29 0 42 3 50 7c12 6 21 19 21 38c0 6 -2 16 -9 24c-12 13 -31 14 -51 14h-6zM558 610
c0 -42 -39 -80 -81 -80c-36 0 -63 28 -63 64c0 43 37 80 80 80c37 0 64 -27 64 -64zM368 602c0 -6 -3 -15 -5 -20c-12 -30 -43 -52 -75 -52c-37 0 -64 27 -64 64c0 43 38 80 81 80s63 -32 63 -72z" />
    <glyph glyph-name="uni1E9E" unicode="&#x1e9e;" horiz-adv-x="521" 
d="M290 418l45 59c1 5 2 13 2 20c0 8 -2 20 -10 28c-7 7 -16 10 -25 10s-23 -2 -33 -15c-9 -10 -14 -26 -16 -46l-58 -474h-177l54 439c9 71 30 134 80 179c46 42 96 61 165 61c44 0 92 -5 135 -41c42 -35 62 -90 58 -148l-91 -99c13 -3 39 -15 56 -40s22 -59 22 -97
c0 -71 -28 -147 -91 -199c-46 -38 -95 -55 -167 -55l18 145c15 1 27 10 35 21c15 20 20 51 20 78c0 16 -3 31 -10 41c-6 8 -14 14 -26 15z" />
    <glyph glyph-name="uni2010" unicode="&#x2010;" horiz-adv-x="317" 
d="M262 186h-217l16 134h217z" />
    <glyph glyph-name="uni2011" unicode="&#x2011;" horiz-adv-x="317" 
d="M262 186h-217l16 134h217z" />
    <glyph glyph-name="figuredash" unicode="&#x2012;" horiz-adv-x="574" 
d="M500 279h-434l14 120h434z" />
    <glyph glyph-name="endash" unicode="&#x2013;" horiz-adv-x="574" 
d="M500 193h-434l14 120h434z" />
    <glyph glyph-name="emdash" unicode="&#x2014;" horiz-adv-x="820" 
d="M746 193h-680l14 120h680z" />
    <glyph glyph-name="afii00208" unicode="&#x2015;" horiz-adv-x="820" 
d="M746 193h-680l14 120h680z" />
    <glyph glyph-name="quoteleft" unicode="&#x2018;" horiz-adv-x="320" 
d="M341 721l-120 -321h-174l154 321h140z" />
    <glyph glyph-name="quoteright" unicode="&#x2019;" horiz-adv-x="320" 
d="M341 721l-154 -321h-140l120 321h174z" />
    <glyph glyph-name="quotesinglbase" unicode="&#x201a;" horiz-adv-x="320" 
d="M279 159l-154 -320h-140l120 320h174z" />
    <glyph glyph-name="quotedblleft" unicode="&#x201c;" horiz-adv-x="560" 
d="M581 721l-120 -321h-174l154 321h140zM348 721l-120 -321h-174l154 321h140z" />
    <glyph glyph-name="quotedblright" unicode="&#x201d;" horiz-adv-x="560" 
d="M581 721l-154 -321h-140l120 321h174zM348 721l-154 -321h-140l120 321h174z" />
    <glyph glyph-name="quotedblbase" unicode="&#x201e;" horiz-adv-x="553" 
d="M512 159l-154 -320h-140l120 320h174zM279 159l-154 -320h-140l120 320h174z" />
    <glyph glyph-name="dagger" unicode="&#x2020;" horiz-adv-x="525" 
d="M541 566l-18 -140h-157l-78 -635h-158l78 635h-157l17 140h157l21 163h157l-20 -163h158z" />
    <glyph glyph-name="daggerdbl" unicode="&#x2021;" horiz-adv-x="525" 
d="M540 565l-16 -138h-158l-24 -199h157l-17 -137h-157l-37 -300h-158l37 300h-158l17 137h158l24 199h-157l17 138h157l20 164h158l-20 -164h157z" />
    <glyph glyph-name="bullet" unicode="&#x2022;" horiz-adv-x="1000" 
d="M652 340c0 -76 -61 -140 -138 -140c-76 0 -137 65 -137 140c0 76 61 140 138 140c76 0 137 -65 137 -140z" />
    <glyph glyph-name="ellipsis" unicode="&#x2026;" horiz-adv-x="985" 
d="M905 102c0 -59 -54 -112 -113 -112c-51 0 -88 40 -88 90c0 59 52 112 111 112c52 0 90 -38 90 -90zM576 102c0 -59 -53 -112 -112 -112c-51 0 -89 39 -89 90c0 59 53 112 112 112c51 0 89 -39 89 -90zM248 102c0 -59 -54 -112 -113 -112c-51 0 -88 40 -88 90
c0 59 53 112 112 112c51 0 89 -39 89 -90z" />
    <glyph glyph-name="perthousand" unicode="&#x2030;" horiz-adv-x="1057" 
d="M335 531c0 -99 -62 -194 -160 -194c-83 0 -128 55 -128 143c0 108 58 199 166 199c85 0 122 -62 122 -148zM219 533c0 22 -1 48 -20 48c-30 0 -36 -68 -36 -98c0 -23 1 -49 21 -49c29 0 35 70 35 99zM599 667l-370 -667h-92l372 667h90zM692 189
c0 -99 -62 -194 -160 -194c-83 0 -128 55 -128 143c0 108 58 199 166 199c85 0 122 -62 122 -148zM576 191c0 22 -1 48 -20 48c-30 0 -36 -68 -36 -98c0 -23 1 -49 21 -49c29 0 35 70 35 99zM1024 189c0 -99 -62 -194 -160 -194c-83 0 -128 55 -128 143
c0 108 58 199 166 199c85 0 122 -62 122 -148zM908 191c0 22 -1 48 -20 48c-30 0 -36 -68 -36 -98c0 -23 1 -49 21 -49c29 0 35 70 35 99z" />
    <glyph glyph-name="guilsinglleft" unicode="&#x2039;" horiz-adv-x="285" 
d="M237 63l-85 -50l-124 226l179 226l71 -66l-134 -168z" />
    <glyph glyph-name="guilsinglright" unicode="&#x203a;" horiz-adv-x="285" 
d="M11 79l133 168l-92 168l85 50l123 -226l-178 -226z" />
    <glyph glyph-name="fraction" unicode="&#x2044;" horiz-adv-x="64" 
d="M276 667l-370 -667h-92l372 667h90z" />
    <glyph glyph-name="Euro" unicode="&#x20ac;" horiz-adv-x="532" 
d="M498 205l-35 -193c-42 -17 -67 -24 -110 -24c-146 0 -220 100 -234 235h-105l41 78h63c1 19 4 39 7 58h-94l43 78h71c50 145 160 242 314 242c36 0 55 -3 87 -17l-24 -190c-21 25 -42 40 -78 40c-50 0 -86 -30 -109 -75h173l-49 -78h-150l-4 -25c-1 -11 -2 -22 -2 -33
h132l-41 -78h-81c14 -38 42 -61 85 -61c39 0 68 18 100 43z" />
    <glyph glyph-name="uni20B4" unicode="&#x20b4;" horiz-adv-x="532" 
d="M142 505l17 140c65 26 114 34 153 34c55 0 97 -17 122 -41c23 -22 40 -57 40 -98c0 -23 -6 -55 -31 -85h72l-12 -94h-121l-56 -66h169l-11 -93h-220c-6 -9 -10 -20 -10 -36c0 -9 1 -20 13 -29s31 -11 49 -11c27 0 67 3 112 30l-17 -140c-52 -20 -103 -28 -156 -28
c-40 0 -90 4 -131 40c-31 27 -44 64 -44 97c0 24 9 52 26 77h-62l11 93h113l56 66h-161l12 94h214c8 9 15 20 15 37c0 9 0 27 -15 40c-8 6 -20 12 -40 12c-34 0 -76 -17 -107 -39z" />
    <glyph glyph-name="uni20B6" unicode="&#x20b6;" horiz-adv-x="532" 
d="M106 352l39 315h172c132 0 238 -43 240 -183c0 -68 -25 -141 -73 -180c-64 -55 -131 -62 -215 -62l-8 -66h140l-11 -93h-140l-10 -83h-177l12 83h-71l11 93h71l7 66h-71l13 110h71zM286 352h21c43 0 69 45 69 95c0 40 -15 74 -47 74h-23z" />
    <glyph glyph-name="uni20B6" unicode="&#x20cf;" horiz-adv-x="532" 
d="M106 352l39 315h172c132 0 238 -43 240 -183c0 -68 -25 -141 -73 -180c-64 -55 -131 -62 -215 -62l-8 -66h140l-11 -93h-140l-10 -83h-177l12 83h-71l11 93h71l7 66h-71l13 110h71zM286 352h21c43 0 69 45 69 95c0 40 -15 74 -47 74h-23z" />
    <glyph glyph-name="uni20B6" unicode="&#x20ce;" horiz-adv-x="532" 
d="M106 352l39 315h172c132 0 238 -43 240 -183c0 -68 -25 -141 -73 -180c-64 -55 -131 -62 -215 -62l-8 -66h140l-11 -93h-140l-10 -83h-177l12 83h-71l11 93h71l7 66h-71l13 110h71zM286 352h21c43 0 69 45 69 95c0 40 -15 74 -47 74h-23z" />
    <glyph glyph-name="uni20B6" unicode="&#x20cd;" horiz-adv-x="532" 
d="M106 352l39 315h172c132 0 238 -43 240 -183c0 -68 -25 -141 -73 -180c-64 -55 -131 -62 -215 -62l-8 -66h140l-11 -93h-140l-10 -83h-177l12 83h-71l11 93h71l7 66h-71l13 110h71zM286 352h21c43 0 69 45 69 95c0 40 -15 74 -47 74h-23z" />
    <glyph glyph-name="uni20B6" unicode="&#x20cc;" horiz-adv-x="532" 
d="M106 352l39 315h172c132 0 238 -43 240 -183c0 -68 -25 -141 -73 -180c-64 -55 -131 -62 -215 -62l-8 -66h140l-11 -93h-140l-10 -83h-177l12 83h-71l11 93h71l7 66h-71l13 110h71zM286 352h21c43 0 69 45 69 95c0 40 -15 74 -47 74h-23z" />
    <glyph glyph-name="uni20B6" unicode="&#x20cb;" horiz-adv-x="532" 
d="M106 352l39 315h172c132 0 238 -43 240 -183c0 -68 -25 -141 -73 -180c-64 -55 -131 -62 -215 -62l-8 -66h140l-11 -93h-140l-10 -83h-177l12 83h-71l11 93h71l7 66h-71l13 110h71zM286 352h21c43 0 69 45 69 95c0 40 -15 74 -47 74h-23z" />
    <glyph glyph-name="uni20B6" unicode="&#x20ca;" horiz-adv-x="532" 
d="M106 352l39 315h172c132 0 238 -43 240 -183c0 -68 -25 -141 -73 -180c-64 -55 -131 -62 -215 -62l-8 -66h140l-11 -93h-140l-10 -83h-177l12 83h-71l11 93h71l7 66h-71l13 110h71zM286 352h21c43 0 69 45 69 95c0 40 -15 74 -47 74h-23z" />
    <glyph glyph-name="uni20B6" unicode="&#x20c9;" horiz-adv-x="532" 
d="M106 352l39 315h172c132 0 238 -43 240 -183c0 -68 -25 -141 -73 -180c-64 -55 -131 -62 -215 -62l-8 -66h140l-11 -93h-140l-10 -83h-177l12 83h-71l11 93h71l7 66h-71l13 110h71zM286 352h21c43 0 69 45 69 95c0 40 -15 74 -47 74h-23z" />
    <glyph glyph-name="uni20B6" unicode="&#x20c8;" horiz-adv-x="532" 
d="M106 352l39 315h172c132 0 238 -43 240 -183c0 -68 -25 -141 -73 -180c-64 -55 -131 -62 -215 -62l-8 -66h140l-11 -93h-140l-10 -83h-177l12 83h-71l11 93h71l7 66h-71l13 110h71zM286 352h21c43 0 69 45 69 95c0 40 -15 74 -47 74h-23z" />
    <glyph glyph-name="uni20B6" unicode="&#x20c7;" horiz-adv-x="532" 
d="M106 352l39 315h172c132 0 238 -43 240 -183c0 -68 -25 -141 -73 -180c-64 -55 -131 -62 -215 -62l-8 -66h140l-11 -93h-140l-10 -83h-177l12 83h-71l11 93h71l7 66h-71l13 110h71zM286 352h21c43 0 69 45 69 95c0 40 -15 74 -47 74h-23z" />
    <glyph glyph-name="uni20B6" unicode="&#x20c6;" horiz-adv-x="532" 
d="M106 352l39 315h172c132 0 238 -43 240 -183c0 -68 -25 -141 -73 -180c-64 -55 -131 -62 -215 -62l-8 -66h140l-11 -93h-140l-10 -83h-177l12 83h-71l11 93h71l7 66h-71l13 110h71zM286 352h21c43 0 69 45 69 95c0 40 -15 74 -47 74h-23z" />
    <glyph glyph-name="uni20B6" unicode="&#x20c5;" horiz-adv-x="532" 
d="M106 352l39 315h172c132 0 238 -43 240 -183c0 -68 -25 -141 -73 -180c-64 -55 -131 -62 -215 -62l-8 -66h140l-11 -93h-140l-10 -83h-177l12 83h-71l11 93h71l7 66h-71l13 110h71zM286 352h21c43 0 69 45 69 95c0 40 -15 74 -47 74h-23z" />
    <glyph glyph-name="uni20B6" unicode="&#x20c4;" horiz-adv-x="532" 
d="M106 352l39 315h172c132 0 238 -43 240 -183c0 -68 -25 -141 -73 -180c-64 -55 -131 -62 -215 -62l-8 -66h140l-11 -93h-140l-10 -83h-177l12 83h-71l11 93h71l7 66h-71l13 110h71zM286 352h21c43 0 69 45 69 95c0 40 -15 74 -47 74h-23z" />
    <glyph glyph-name="uni20B6" unicode="&#x20c3;" horiz-adv-x="532" 
d="M106 352l39 315h172c132 0 238 -43 240 -183c0 -68 -25 -141 -73 -180c-64 -55 -131 -62 -215 -62l-8 -66h140l-11 -93h-140l-10 -83h-177l12 83h-71l11 93h71l7 66h-71l13 110h71zM286 352h21c43 0 69 45 69 95c0 40 -15 74 -47 74h-23z" />
    <glyph glyph-name="uni20B6" unicode="&#x20c2;" horiz-adv-x="532" 
d="M106 352l39 315h172c132 0 238 -43 240 -183c0 -68 -25 -141 -73 -180c-64 -55 -131 -62 -215 -62l-8 -66h140l-11 -93h-140l-10 -83h-177l12 83h-71l11 93h71l7 66h-71l13 110h71zM286 352h21c43 0 69 45 69 95c0 40 -15 74 -47 74h-23z" />
    <glyph glyph-name="uni20B6" unicode="&#x20c1;" horiz-adv-x="532" 
d="M106 352l39 315h172c132 0 238 -43 240 -183c0 -68 -25 -141 -73 -180c-64 -55 -131 -62 -215 -62l-8 -66h140l-11 -93h-140l-10 -83h-177l12 83h-71l11 93h71l7 66h-71l13 110h71zM286 352h21c43 0 69 45 69 95c0 40 -15 74 -47 74h-23z" />
    <glyph glyph-name="uni20B6" unicode="&#x20c0;" horiz-adv-x="532" 
d="M106 352l39 315h172c132 0 238 -43 240 -183c0 -68 -25 -141 -73 -180c-64 -55 -131 -62 -215 -62l-8 -66h140l-11 -93h-140l-10 -83h-177l12 83h-71l11 93h71l7 66h-71l13 110h71zM286 352h21c43 0 69 45 69 95c0 40 -15 74 -47 74h-23z" />
    <glyph glyph-name="uni20B6" unicode="&#x20bf;" horiz-adv-x="532" 
d="M106 352l39 315h172c132 0 238 -43 240 -183c0 -68 -25 -141 -73 -180c-64 -55 -131 -62 -215 -62l-8 -66h140l-11 -93h-140l-10 -83h-177l12 83h-71l11 93h71l7 66h-71l13 110h71zM286 352h21c43 0 69 45 69 95c0 40 -15 74 -47 74h-23z" />
    <glyph glyph-name="uni20B6" unicode="&#x20be;" horiz-adv-x="532" 
d="M106 352l39 315h172c132 0 238 -43 240 -183c0 -68 -25 -141 -73 -180c-64 -55 -131 -62 -215 -62l-8 -66h140l-11 -93h-140l-10 -83h-177l12 83h-71l11 93h71l7 66h-71l13 110h71zM286 352h21c43 0 69 45 69 95c0 40 -15 74 -47 74h-23z" />
    <glyph glyph-name="uni20B6" unicode="&#x20bd;" horiz-adv-x="532" 
d="M106 352l39 315h172c132 0 238 -43 240 -183c0 -68 -25 -141 -73 -180c-64 -55 -131 -62 -215 -62l-8 -66h140l-11 -93h-140l-10 -83h-177l12 83h-71l11 93h71l7 66h-71l13 110h71zM286 352h21c43 0 69 45 69 95c0 40 -15 74 -47 74h-23z" />
    <glyph glyph-name="uni20B6" unicode="&#x20bc;" horiz-adv-x="532" 
d="M106 352l39 315h172c132 0 238 -43 240 -183c0 -68 -25 -141 -73 -180c-64 -55 -131 -62 -215 -62l-8 -66h140l-11 -93h-140l-10 -83h-177l12 83h-71l11 93h71l7 66h-71l13 110h71zM286 352h21c43 0 69 45 69 95c0 40 -15 74 -47 74h-23z" />
    <glyph glyph-name="uni20B6" unicode="&#x20bb;" horiz-adv-x="532" 
d="M106 352l39 315h172c132 0 238 -43 240 -183c0 -68 -25 -141 -73 -180c-64 -55 -131 -62 -215 -62l-8 -66h140l-11 -93h-140l-10 -83h-177l12 83h-71l11 93h71l7 66h-71l13 110h71zM286 352h21c43 0 69 45 69 95c0 40 -15 74 -47 74h-23z" />
    <glyph glyph-name="uni20B6" unicode="&#x20ba;" horiz-adv-x="532" 
d="M106 352l39 315h172c132 0 238 -43 240 -183c0 -68 -25 -141 -73 -180c-64 -55 -131 -62 -215 -62l-8 -66h140l-11 -93h-140l-10 -83h-177l12 83h-71l11 93h71l7 66h-71l13 110h71zM286 352h21c43 0 69 45 69 95c0 40 -15 74 -47 74h-23z" />
    <glyph glyph-name="uni20B6" unicode="&#x20b9;" horiz-adv-x="532" 
d="M106 352l39 315h172c132 0 238 -43 240 -183c0 -68 -25 -141 -73 -180c-64 -55 -131 -62 -215 -62l-8 -66h140l-11 -93h-140l-10 -83h-177l12 83h-71l11 93h71l7 66h-71l13 110h71zM286 352h21c43 0 69 45 69 95c0 40 -15 74 -47 74h-23z" />
    <glyph glyph-name="uni20B6" unicode="&#x20b7;" horiz-adv-x="532" 
d="M106 352l39 315h172c132 0 238 -43 240 -183c0 -68 -25 -141 -73 -180c-64 -55 -131 -62 -215 -62l-8 -66h140l-11 -93h-140l-10 -83h-177l12 83h-71l11 93h71l7 66h-71l13 110h71zM286 352h21c43 0 69 45 69 95c0 40 -15 74 -47 74h-23z" />
    <glyph glyph-name="uni20B8" unicode="&#x20b8;" horiz-adv-x="532" 
d="M494 507l-19 -150h-102l-44 -357h-177l44 357h-98l19 150h377zM499 557h-377l15 110h377z" />
    <glyph glyph-name="afii61352" unicode="&#x2116;" horiz-adv-x="871" 
d="M562 667l-82 -667h-169l-59 245c-11 46 -21 92 -28 139c-3 -35 -4 -71 -6 -106c-5 -93 -20 -185 -31 -278h-169l82 667h169l60 -234c14 -55 23 -112 35 -168c1 84 -1 168 10 252l19 150h169zM881 547c0 -102 -53 -194 -167 -194c-82 0 -122 54 -122 134
c0 98 58 192 165 192c80 0 124 -54 124 -132zM828 296l-12 -100h-249l12 100h249zM771 540c0 17 -2 52 -26 52c-32 0 -42 -75 -42 -99c0 -17 2 -52 25 -52c33 0 43 76 43 99z" />
    <glyph glyph-name="uni2117" unicode="&#x2117;" horiz-adv-x="760" 
d="M287 529h108c60 0 97 -18 119 -39c15 -15 36 -44 36 -95c0 -44 -16 -72 -30 -87c-27 -29 -68 -37 -114 -37h-10v-117h-109v375zM396 357h2c16 0 26 6 31 11c12 12 12 31 12 33c0 15 -5 24 -12 30c-10 9 -21 10 -30 10h-3v-84zM740 333c0 -100 -42 -184 -100 -244
c-42 -43 -123 -104 -247 -104s-205 61 -247 104c-58 59 -100 143 -100 245c0 100 42 184 100 244c42 43 123 104 247 104s205 -61 247 -104c58 -59 100 -143 100 -245zM393 609c-89 0 -148 -41 -183 -75c-38 -37 -84 -103 -84 -201s46 -164 84 -201c35 -34 94 -75 183 -75
s148 41 183 75c38 37 84 103 84 201s-46 164 -84 201c-35 34 -94 75 -183 75z" />
    <glyph glyph-name="trademark" unicode="&#x2122;" horiz-adv-x="657" 
d="M660 667l-9 -380h-114l15 195l-62 -195h-89l-8 185l-34 -185h-117l92 380h134l8 -164l51 164h133zM279 667l-12 -96h-59l-35 -284h-110l35 284h-57l12 96h226z" />
    <glyph glyph-name="partialdiff" unicode="&#x2202;" 
d="M56 557l17 112c105 -11 206 -35 288 -106c86 -74 127 -181 127 -294c0 -152 -83 -278 -246 -278c-127 0 -232 101 -232 229c0 118 88 212 207 212c45 0 88 -13 121 -45c-49 118 -168 159 -282 170zM244 323h-10c-8 0 -22 -5 -30 -8c-39 -16 -60 -56 -60 -97
c0 -59 39 -110 101 -110c61 0 102 50 102 109c0 60 -42 106 -103 106z" />
    <glyph glyph-name="product" unicode="&#x220f;" horiz-adv-x="733" 
d="M696 -250h-294v117h80v766h-226v-766h79v-117h-292v117h83v766h-83v117h653v-117h-82v-766h82v-117z" />
    <glyph glyph-name="summation" unicode="&#x2211;" horiz-adv-x="667" 
d="M632 -250h-609v130l244 387l-244 353v130h600v-247h-117l-13 130h-323l249 -366l-249 -400h332l8 133h122v-250z" />
    <glyph glyph-name="minus" unicode="&#x2212;" 
d="M481 280h-434v120h434v-120z" />
    <glyph glyph-name="uni2215" unicode="&#x2215;" horiz-adv-x="526" 
d="M565 729l-489 -945h-120l489 945h120z" />
    <glyph glyph-name="uni2219" unicode="&#x2219;" horiz-adv-x="322" 
d="M291 353c0 -69 -62 -130 -131 -130c-59 0 -103 44 -103 103c0 69 61 131 130 131c60 0 104 -44 104 -104z" />
    <glyph glyph-name="radical" unicode="&#x221a;" horiz-adv-x="667" 
d="M706 710h-178l-165 -710h-173l-56 271h-95v116h202c7 -33 16 -66 21 -99c6 -43 10 -87 10 -131h11c6 97 21 195 43 290l89 380h291v-117z" />
    <glyph glyph-name="infinity" unicode="&#x221e;" horiz-adv-x="667" 
d="M664 340c0 -94 -67 -164 -162 -164c-64 0 -111 33 -152 79c-42 -47 -91 -79 -156 -79c-95 0 -164 68 -164 163s68 163 163 163c65 0 108 -33 151 -78c41 46 93 78 156 78c95 0 164 -66 164 -162zM530 340c0 26 -25 46 -50 46c-30 0 -53 -24 -69 -47c17 -23 38 -46 69 -46
c26 0 50 20 50 47zM283 339c-17 23 -38 46 -69 46c-26 0 -50 -19 -50 -46s25 -46 51 -46c30 0 51 24 68 46z" />
    <glyph glyph-name="integral" unicode="&#x222b;" 
d="M456 740l-23 -116c-18 6 -37 10 -56 10c-46 0 -58 -30 -58 -71v-538c0 -33 0 -65 -1 -98c-4 -112 -59 -177 -175 -177c-32 0 -63 4 -94 10l24 116c18 -6 37 -10 56 -10c57 0 57 45 57 89v44c0 178 -1 357 -1 535c0 36 2 73 12 108c22 76 92 108 167 108
c31 0 62 -5 92 -10z" />
    <glyph glyph-name="approxequal" unicode="&#x2248;" 
d="M433 528l73 -43c-33 -71 -70 -134 -159 -134c-57 0 -136 50 -182 50c-41 0 -58 -28 -74 -61l-71 47c28 72 64 139 152 139c67 0 124 -49 189 -49c37 0 55 21 72 51zM433 324l73 -42c-33 -71 -70 -134 -159 -134c-62 0 -129 50 -182 50c-41 0 -57 -28 -74 -61l-71 46
c29 72 63 140 152 140c66 0 128 -50 189 -50c36 0 55 23 72 51z" />
    <glyph glyph-name="notequal" unicode="&#x2260;" 
d="M478 171h-241l-49 -95h-102l47 95h-88v117h141l34 67h-175v116h228l55 108h102l-54 -108h102v-116h-155l-33 -67h188v-117z" />
    <glyph glyph-name="lessequal" unicode="&#x2264;" 
d="M467 145l-433 208v109l433 207v-121l-296 -141l295 -141zM467 0h-433v117h433v-117z" />
    <glyph glyph-name="greaterequal" unicode="&#x2265;" 
d="M480 353l-434 -208v121l297 141l-296 141l-1 121l434 -207v-109zM480 0h-434v117h434v-117z" />
    <glyph glyph-name="dotmath" unicode="&#x22c5;" horiz-adv-x="322" 
d="M291 353c0 -69 -62 -130 -131 -130c-59 0 -103 44 -103 103c0 69 61 131 130 131c60 0 104 -44 104 -104z" />
    <glyph glyph-name="lozenge" unicode="&#x25ca;" horiz-adv-x="667" 
d="M606 334l-260 -360l-259 360l259 359zM454 334l-108 148l-107 -148l107 -148z" />
    <glyph glyph-name="openbullet" unicode="&#x25e6;" 
d="M439 509c0 -85 -70 -153 -155 -153c-84 0 -154 69 -154 153s71 151 154 151c84 0 155 -66 155 -151zM361 509c0 42 -35 75 -77 75c-41 0 -76 -33 -76 -75s34 -76 76 -76s77 33 77 76z" />
    <glyph glyph-name="uniF400" unicode="&#xf400;" horiz-adv-x="2" 
d="M-69 678l-105 -148h-98l65 148h138z" />
    <glyph glyph-name="uniF401" unicode="&#xf401;" horiz-adv-x="2" 
d="M-69 868l-105 -148h-98l65 148h138z" />
    <glyph glyph-name="uniF406" unicode="&#xf406;" 
d="M393 866h69c-19 -89 -83 -148 -176 -148c-79 0 -140 49 -140 131v17h69c12 -45 39 -53 82 -53c47 0 74 10 96 53z" />
    <glyph glyph-name="uniF407" unicode="&#xf407;" 
d="M311 -113l-126 -124l-77 53l107 137z" />
    <glyph glyph-name="uniF408" unicode="&#xf408;" 
d="M316 870l124 -98l-65 -70l-71 55l-94 -57l-53 70z" />
    <glyph glyph-name="uniF409" unicode="&#xf409;" horiz-adv-x="246" 
d="M267 -45l-94 -188h-102l50 188h146z" />
    <glyph glyph-name="uniF40A" unicode="&#xf40a;" horiz-adv-x="246" 
d="M267 667l-104 -209h-102l60 209h146z" />
    <glyph glyph-name="uniF40B" unicode="&#xf40b;" 
d="M372 796c0 -6 -3 -16 -6 -21c-12 -32 -44 -55 -78 -55c-38 0 -67 29 -67 67c0 45 39 84 84 84c46 0 67 -32 67 -75z" />
    <glyph glyph-name="uniF40C" unicode="&#xf40c;" horiz-adv-x="503" 
d="M203 810c0 53 43 96 96 96s96 -43 96 -96s-44 -96 -95 -96c-54 0 -97 44 -97 96zM262 810c0 -21 16 -37 37 -37s37 16 37 37s-16 37 -37 37s-37 -16 -37 -37z" />
    <glyph glyph-name="uniF40D" unicode="&#xf40d;" 
d="M383 855h88c-6 -68 -44 -133 -120 -133c-47 0 -80 33 -111 33c-21 0 -28 -17 -31 -35h-89c2 19 5 38 12 56c17 42 56 76 103 76c50 0 81 -33 116 -33c22 0 29 17 32 36z" />
    <glyph glyph-name="uniF40E" unicode="&#xf40e;" 
d="M378 -92l-16 -70c-17 -7 -26 -9 -44 -9c-43 0 -92 21 -92 71c0 41 33 77 64 100h60c-19 -16 -42 -42 -42 -68c0 -21 17 -30 36 -30c12 0 23 2 34 6z" />
    <glyph glyph-name="uniF4C6" unicode="&#xf4c6;" horiz-adv-x="521" 
d="M90 667h176l-22 -178c-2 -14 -3 -25 -3 -30c0 -14 5 -25 13 -32c9 -8 23 -11 35 -11c8 0 20 1 33 7l30 244h177l-86 -710c-4 -34 -13 -96 -57 -135c-40 -36 -93 -37 -126 -37c-28 0 -52 3 -81 12l17 139c12 -11 25 -12 30 -12c12 0 22 5 28 12c12 13 13 35 16 58l33 275
c-28 -8 -53 -11 -79 -11c-32 0 -77 5 -113 33c-27 21 -51 57 -51 112c0 18 4 59 6 74z" />
    <glyph glyph-name="uniF4C7" unicode="&#xf4c7;" horiz-adv-x="476" 
d="M294 467h172l-58 -460c-8 -61 -21 -134 -69 -179c-23 -21 -63 -43 -127 -43c-23 0 -49 4 -74 10l18 145c11 -13 24 -15 31 -15c12 0 25 6 31 13c3 3 10 13 15 50l24 173c-24 -7 -46 -10 -71 -10c-59 0 -93 19 -112 37c-21 21 -34 53 -34 91c0 13 3 50 5 65l15 123h170
l-15 -122c-1 -6 -2 -21 -2 -26c0 -8 1 -17 9 -23c7 -6 16 -7 24 -7c10 0 18 2 27 8z" />
    <glyph glyph-name="uniF4CC" unicode="&#xf4cc;" 
d="M54 667h184l23 -109c11 -50 16 -94 17 -141c14 50 29 96 49 146l41 104h186l-318 -667h-177l108 230zM432 868l-105 -148h-98l65 148h138z" />
    <glyph glyph-name="uniF4CD" unicode="&#xf4cd;" horiz-adv-x="458" 
d="M487 467l-301 -682h-176l110 234l-82 448h172c9 -78 22 -156 22 -235c0 -10 -1 -20 -1 -30c15 55 28 111 48 164l38 101h170zM402 678l-105 -148h-98l65 148h138z" />
    <glyph glyph-name="dollar.fitted" unicode="&#xf5f5;" horiz-adv-x="432" 
d="M416 642l-24 -202c-23 36 -53 71 -99 71c-25 0 -49 -17 -49 -44c0 -55 138 -82 138 -224c0 -61 -23 -122 -62 -169c-29 -34 -52 -48 -90 -67l-12 -101h-84l10 85c-55 2 -80 6 -131 30l26 208c20 -40 57 -75 104 -75c29 0 58 17 58 49c0 57 -136 100 -136 226
c0 66 27 133 72 180c31 32 55 50 98 65l11 93h84l-10 -88c38 -8 58 -16 96 -37z" />
    <glyph glyph-name="Euro.fitted" unicode="&#xf5f6;" horiz-adv-x="566" 
d="M494 205l-35 -193c-42 -17 -67 -24 -110 -24c-146 0 -220 100 -234 235h-105l41 78h63c1 19 4 39 7 58h-94l43 78h71c50 145 160 242 314 242c36 0 55 -3 87 -17l-24 -190c-21 25 -42 40 -78 40c-50 0 -86 -30 -109 -75h173l-49 -78h-150l-4 -25c-1 -11 -2 -22 -2 -33
h132l-41 -78h-81c14 -38 42 -61 85 -61c39 0 68 18 100 43z" />
    <glyph glyph-name="cent.fitted" unicode="&#xf5f7;" horiz-adv-x="312" 
d="M296 590l-18 -148c-55 -3 -87 -46 -87 -99c0 -33 17 -70 55 -70h11l-19 -161c-16 -3 -32 -1 -48 -3l-10 -86h-84l13 105c-69 44 -97 106 -97 187c0 69 25 140 69 194c26 32 46 45 82 62l12 108h84l-10 -86c5 1 11 1 16 1c10 0 21 -2 31 -4z" />
    <glyph glyph-name="sterling.fitted" unicode="&#xf5f8;" horiz-adv-x="511" 
d="M490 584l-107 -96c-13 25 -28 50 -59 50c-32 0 -54 -31 -54 -61c0 -32 12 -64 12 -96h159l-12 -93h-148c-5 -49 -26 -92 -58 -129c32 -2 43 -6 71 -21c12 -7 20 -11 35 -11c24 0 42 14 56 32l82 -48c-35 -70 -88 -123 -171 -123c-28 0 -55 6 -81 17c-28 11 -39 21 -71 21
c-34 0 -60 -13 -88 -30l-39 82c27 18 54 35 83 48c22 32 28 60 28 98c0 22 -4 43 -8 64h-60l11 93h33c-5 28 -12 56 -12 85c0 122 97 211 217 211c75 0 135 -36 181 -93z" />
    <glyph glyph-name="yen.fitted" unicode="&#xf5f9;" horiz-adv-x="576" 
d="M562 667l-111 -212h78l-11 -94h-115l-34 -66h141l-12 -93h-146l-25 -202h-177l25 202h-157l11 93h152l-20 66h-124l12 94h84l-64 212h184c14 -68 30 -137 38 -206c26 70 56 138 87 206h184z" />
    <glyph glyph-name="florin.fitted" unicode="&#xf5fa;" horiz-adv-x="469" 
d="M460 729l-22 -138c-11 0 -21 3 -32 3c-23 0 -34 -12 -38 -34l-18 -93h70l-18 -94h-71l-64 -332c-20 -103 -68 -174 -182 -174c-26 0 -51 6 -76 13l26 143c10 -1 21 -2 31 -2c28 0 42 7 48 36l61 316h-68l17 94h69l21 106c20 99 55 167 167 167c27 0 53 -5 79 -11z" />
    <glyph glyph-name="uni20B4.fitted" unicode="&#xf5fb;" horiz-adv-x="509" 
d="M117 505l17 140c65 26 114 34 153 34c55 0 97 -17 122 -41c23 -22 40 -57 40 -98c0 -23 -6 -55 -31 -85h72l-12 -94h-121l-56 -66h169l-11 -93h-220c-6 -9 -10 -20 -10 -36c0 -9 1 -20 13 -29s31 -11 49 -11c27 0 67 3 112 30l-17 -140c-52 -20 -103 -28 -156 -28
c-40 0 -90 4 -131 40c-31 27 -44 64 -44 97c0 24 9 52 26 77h-62l11 93h113l56 66h-161l12 94h214c8 9 15 20 15 37c0 9 0 27 -15 40c-8 6 -20 12 -40 12c-34 0 -76 -17 -107 -39z" />
    <glyph glyph-name="uni20B6.fitted" unicode="&#xf5fc;" horiz-adv-x="588" 
d="M122 352l39 315h172c132 0 238 -43 240 -183c0 -68 -25 -141 -73 -180c-64 -55 -131 -62 -215 -62l-8 -66h140l-11 -93h-140l-10 -83h-177l12 83h-71l11 93h71l7 66h-71l13 110h71zM302 352h21c43 0 69 45 69 95c0 40 -15 74 -47 74h-23z" />
    <glyph glyph-name="uni20B8.fitted" unicode="&#xf5fd;" horiz-adv-x="452" 
d="M419 507l-19 -150h-102l-44 -357h-177l44 357h-98l19 150h377zM424 557h-377l15 110h377z" />
    <glyph glyph-name="uniF639" unicode="&#xf639;" horiz-adv-x="519" 
d="M496 426c0 -60 -6 -120 -20 -178c-30 -124 -109 -260 -253 -260c-154 0 -200 135 -200 266c0 57 6 115 21 171c32 124 116 254 259 254c146 0 193 -128 193 -253zM323 436c0 30 -1 87 -43 87c-75 0 -83 -242 -83 -297c0 -26 1 -82 38 -82c77 0 88 237 88 292z" />
    <glyph glyph-name="uniF63A" unicode="&#xf63a;" horiz-adv-x="558" 
d="M270 425h-172c12 140 101 254 250 254c113 0 185 -75 185 -187c0 -143 -111 -257 -213 -344c55 4 110 4 165 5l-19 -153h-452l209 243c53 61 137 157 137 242c0 21 -10 46 -35 46c-45 0 -53 -73 -55 -106z" />
    <glyph glyph-name="uniF63B" unicode="&#xf63b;" horiz-adv-x="511" 
d="M239 477h-171c24 120 112 202 237 202c102 0 183 -67 183 -172c0 -42 -15 -84 -42 -117c-17 -21 -34 -32 -57 -45c50 -31 71 -73 71 -131c0 -136 -120 -226 -249 -226c-104 0 -194 58 -194 170c0 13 3 25 4 38h173c-1 -6 -1 -12 -1 -18c0 -24 11 -42 37 -42
c37 0 57 39 57 72c0 40 -24 60 -63 60c-11 0 -21 -2 -32 -2l18 142c7 -1 14 -1 21 -1c54 0 81 26 81 80c0 20 -7 43 -31 43c-29 0 -37 -29 -42 -53z" />
    <glyph glyph-name="uniF63C" unicode="&#xf63c;" horiz-adv-x="523" 
d="M498 279l-17 -144h-56l-17 -135h-177l16 135h-238l17 141l247 391h217l-48 -388h56zM173 279h98c10 67 19 134 31 200c-40 -69 -80 -137 -129 -200z" />
    <glyph glyph-name="uniF63D" unicode="&#xf63d;" horiz-adv-x="524" 
d="M503 667l-19 -157h-187l-24 -75c10 1 20 1 30 1c103 0 169 -77 169 -177c0 -152 -132 -271 -281 -271c-61 0 -122 19 -174 52l40 158c41 -26 86 -46 135 -46s101 28 101 83c0 54 -52 66 -96 66c-43 0 -78 -8 -119 -23l98 389h327z" />
    <glyph glyph-name="uniF63E" unicode="&#xf63e;" horiz-adv-x="487" 
d="M431 667l-128 -190c-12 -18 -25 -35 -39 -52c21 11 40 18 64 18c96 0 138 -96 138 -179c0 -149 -106 -276 -260 -276c-124 0 -188 85 -188 204c0 151 142 349 222 475h191zM295 254c0 26 -11 59 -42 59c-51 0 -61 -82 -61 -120c0 -26 5 -61 39 -61c52 0 64 83 64 122z
" />
    <glyph glyph-name="uniF63F" unicode="&#xf63f;" horiz-adv-x="596" 
d="M590 667l-377 -667h-191l201 355c31 54 66 106 104 155h-222l19 157h466z" />
    <glyph glyph-name="uniF640" unicode="&#xf640;" horiz-adv-x="520" 
d="M497 513c0 -41 -14 -84 -40 -116c-20 -24 -41 -37 -69 -50c59 -26 84 -66 84 -130c0 -137 -120 -229 -250 -229c-104 0 -201 67 -201 178c0 55 25 111 67 146c20 17 42 26 66 35c-58 20 -83 56 -83 118c0 126 113 214 233 214c99 0 193 -58 193 -166zM320 492
c0 19 -8 43 -31 43c-34 0 -44 -44 -44 -71c0 -22 6 -45 33 -45c32 0 42 49 42 73zM293 225c0 23 -7 52 -36 52c-36 0 -52 -53 -52 -82c0 -23 7 -53 36 -53c38 0 52 53 52 83z" />
    <glyph glyph-name="uniF641" unicode="&#xf641;" horiz-adv-x="486" 
d="M56 0l128 189c12 18 25 36 39 53c-21 -12 -41 -19 -65 -19c-95 0 -137 97 -137 179c0 149 107 277 261 277c124 0 187 -86 187 -204c0 -152 -142 -349 -223 -475h-190zM296 475c0 26 -6 60 -39 60c-53 0 -65 -83 -65 -123c0 -26 11 -59 42 -59c52 0 62 84 62 122z" />
    <glyph glyph-name="uniF6BA" unicode="&#xf6ba;" horiz-adv-x="317" 
d="M262 272h-217l16 134h217z" />
    <glyph glyph-name="uniF6BB" unicode="&#xf6bb;" horiz-adv-x="574" 
d="M500 279h-434l14 120h434z" />
    <glyph glyph-name="uniF6BC" unicode="&#xf6bc;" horiz-adv-x="820" 
d="M746 279h-680l14 120h680z" />
    <glyph glyph-name="uniF6C3" unicode="&#xf6c3;" horiz-adv-x="246" 
d="M267 -46l-94 -188h-102l50 188h146z" />
    <glyph glyph-name="uniF6C9" unicode="&#xf6c9;" 
d="M437 868l-105 -148h-98l65 148h138z" />
    <glyph glyph-name="uniF6CA" unicode="&#xf6ca;" 
d="M451 802l-166 -98l-121 103l71 63l70 -58l92 56z" />
    <glyph glyph-name="uniF6CB" unicode="&#xf6cb;" 
d="M463 800c0 -42 -39 -80 -81 -80c-36 0 -63 28 -63 64c0 43 37 80 80 80c37 0 64 -27 64 -64zM273 792c0 -6 -3 -15 -5 -20c-12 -30 -43 -52 -75 -52c-37 0 -64 27 -64 64c0 43 38 80 81 80s63 -32 63 -72z" />
    <glyph glyph-name="uniF6CE" unicode="&#xf6ce;" 
d="M340 720h-98l-68 148h138z" />
    <glyph glyph-name="uniF6CF" unicode="&#xf6cf;" 
d="M516 868l-105 -148h-88l65 148h128zM351 868l-104 -148h-88l65 148h127z" />
    <glyph glyph-name="uniF6D0" unicode="&#xf6d0;" 
d="M469 837l-12 -94h-335l12 94h335z" />
    <glyph glyph-name="uniF6D1" unicode="&#xf6d1;" horiz-adv-x="394" 
d="M277 874l125 -37c-14 -56 -48 -85 -72 -99c-38 -23 -85 -27 -121 -27c-38 0 -83 5 -118 26c-25 15 -59 45 -73 99l127 38c2 -14 10 -32 20 -41c8 -7 22 -15 47 -15s39 9 47 17c9 10 16 27 18 39z" />
    <glyph glyph-name="uniF6D4" unicode="&#xf6d4;" horiz-adv-x="356" 
d="M235 677l111 -26c-13 -46 -42 -82 -72 -102c-34 -22 -72 -25 -100 -25c-35 0 -71 4 -103 27c-29 20 -53 56 -60 100l118 26c-1 -14 3 -32 12 -42c10 -11 23 -13 34 -13c12 0 27 2 38 13c11 10 19 29 22 42z" />
    <glyph glyph-name="uniF6DC" unicode="&#xf6dc;" horiz-adv-x="314" 
d="M296 667l-82 -667h-177l62 510h-71l19 157h249z" />
    <glyph glyph-name="uniF6DE" unicode="&#xf6de;" horiz-adv-x="615" 
d="M559 193h-510l11 120h510z" />
    <glyph glyph-name="nbspace" horiz-adv-x="233" 
 />
    <glyph glyph-name="hyphenminus" horiz-adv-x="317" 
d="M262 186h-217l16 134h217z" />
    <glyph glyph-name="dotlessi1" horiz-adv-x="249" 
d="M239 467l-57 -467h-171l58 467h170z" />
    </font>
</defs>
</svg>
